<?xml version="1.0" encoding="utf-8"?>
<!-- Generator: Adobe Illustrator 24.1.0, SVG Export Plug-In . SVG Version: 6.00 Build 0)  -->
<svg version="1.1" id="Layer_1" xmlns="http://www.w3.org/2000/svg" xmlns:xlink="http://www.w3.org/1999/xlink" x="0px" y="0px"
	 width="170.04px" height="95.71px" viewBox="0 0 170.04 95.71" enable-background="new 0 0 170.04 95.71" xml:space="preserve">
<g>
	<path fill="#665643" d="M68.18,3.13C67.82,1.35,66.24,0,64.34,0h-4.32v20.27v27.44v6.87c0,0.27,0.03,0.54,0.08,0.79
		c0.36,1.79,1.95,3.13,3.84,3.13h4.32V47.72V20.28V3.92C68.26,3.65,68.24,3.39,68.18,3.13"/>
	<path fill="#A01E3B" d="M50.66,1.15c0-0.62-0.49-1.12-1.1-1.14h-1.01L35.13,36.73l-6.69,18.31l-0.54-1.47
		c-0.01-0.02-0.01-0.04-0.02-0.06L27.69,53c-0.01-0.02-0.02-0.05-0.03-0.08L17.25,24.43h0L9.27,2.6c0,0-0.88-2.73-4.15-2.6H0
		l13.42,36.73h0l6.92,18.92l0.01,0.02c0.19,0.52,0.41,1.01,0.75,1.41c0.08,0.1,0.17,0.19,0.25,0.28c0.71,0.71,1.69,1.15,2.77,1.15
		h3.05h2.53h0.04l12.47-34.07l8.37-22.86C50.64,1.44,50.66,1.3,50.66,1.15"/>
	<path fill="#665643" d="M128.9,1.15c0-0.62-0.49-1.12-1.1-1.14h-1.01l-13.42,36.73h0l-6.69,18.31l-0.54-1.47
		c-0.01-0.02-0.01-0.04-0.02-0.06L105.93,53c-0.01-0.02-0.02-0.05-0.03-0.08L95.49,24.43h0L87.51,2.6c0,0-0.88-2.73-4.15-2.6h-5.13
		l13.42,36.73h0l6.91,18.92l0.01,0.02c0.19,0.52,0.41,1.01,0.75,1.41c0.08,0.1,0.16,0.19,0.25,0.28c0.71,0.71,1.69,1.15,2.77,1.15
		h3.05h2.53h0.04l12.47-34.07l8.37-22.86C128.87,1.44,128.9,1.3,128.9,1.15"/>
	<path fill="#A01E3B" d="M119.37,57.36c0,0.62,0.49,1.12,1.1,1.15h1.01l13.42-36.73l6.69-18.31l0.54,1.47
		c0.01,0.02,0.01,0.04,0.02,0.06l0.19,0.52c0.01,0.02,0.02,0.05,0.03,0.08h0l10.41,28.49h0l7.98,21.83c0,0,0.88,2.73,4.15,2.6h5.13
		l-13.42-36.73h0L149.7,2.86l-0.01-0.02c-0.19-0.52-0.41-1.01-0.75-1.42c-0.08-0.1-0.16-0.19-0.25-0.28C147.98,0.44,147,0,145.92,0
		h-3.05h-2.53h-0.04l-12.47,34.07h0l-8.37,22.86C119.4,57.06,119.37,57.21,119.37,57.36"/>
	<rect x="10.5" y="83.3" fill="#665643" width="31.2" height="0.53"/>
	<rect x="128.72" y="83.3" fill="#665643" width="30.82" height="0.53"/>
	<path fill="#A01E3B" d="M60.92,94.7c2.56,0,4.91-0.84,7.05-2.53c0.02-0.01,0.05-0.01,0.06,0.01l0.23,0.29
		c0.21,0.27,0.16,0.66-0.11,0.86c-0.96,0.71-2.01,1.27-3.14,1.68c-1.33,0.48-2.69,0.72-4.09,0.72c-1.99,0-3.81-0.32-5.47-0.95
		c-1.66-0.63-3.08-1.5-4.29-2.62c-1.2-1.11-2.13-2.4-2.79-3.87c-0.65-1.47-0.98-3.04-0.98-4.71c0-1.67,0.33-3.24,0.98-4.71
		c0.65-1.47,1.58-2.76,2.79-3.87c1.2-1.11,2.63-1.99,4.29-2.62c1.66-0.63,3.48-0.95,5.47-0.95c1.4,0,2.76,0.24,4.09,0.72
		c1.31,0.47,2.51,1.15,3.58,2.03c0.02,0.02,0.02,0.04,0.01,0.06l-0.2,0.24c-0.23,0.28-0.64,0.33-0.93,0.12
		c-2-1.44-4.18-2.15-6.55-2.15c-1.38,0-2.68,0.29-3.91,0.87c-1.22,0.58-2.3,1.38-3.24,2.4c-0.93,1.02-1.67,2.2-2.2,3.54
		c-0.53,1.34-0.8,2.78-0.8,4.32c0,1.54,0.27,2.98,0.8,4.32c0.54,1.34,1.27,2.53,2.2,3.54c0.93,1.02,2.01,1.82,3.24,2.4
		C58.24,94.4,59.54,94.7,60.92,94.7"/>
	<path fill="#A01E3B" d="M75.34,72.7c-0.15-0.74-0.81-1.3-1.6-1.3h-1.8v8.42v11.4v2.85c0,0.11,0.01,0.22,0.03,0.33
		c0.15,0.74,0.81,1.3,1.59,1.3h1.8v-4.48v-11.4v-6.79C75.37,72.92,75.36,72.81,75.34,72.7"/>
	<path fill="#A01E3B" d="M96.57,71.41h-0.56H93.2h-3.28h-3.37h-6.1h-1.4c-0.03,0-0.07,0-0.1,0.01c-0.22,0.04-0.39,0.24-0.39,0.47
		v0.53h1.88v0h6.1v17.86v1.01v2.81c0,0.11,0.01,0.22,0.03,0.32c0.15,0.73,0.79,1.28,1.57,1.28h1.77V91.3v-1.01h0V72.43h6.1v0h0.56
		h0.84c0.03,0,0.07,0,0.1-0.01c0.22-0.04,0.39-0.24,0.39-0.47v-0.53H96.57z"/>
	<path fill="#A01E3B" d="M122.16,72.09c0.05-0.07,0.08-0.15,0.08-0.25c0-0.24-0.19-0.44-0.44-0.44c0,0,0,0,0,0v0h-0.41l-8.17,13.08
		l-7.65-12.25c0,0,0,0,0,0c-0.28-0.5-0.82-0.83-1.43-0.83c-0.01,0-0.02,0-0.04,0v0h-3.04l9.08,14.54v7.3h0v0.86
		c0,0.11,0.01,0.22,0.03,0.32c0.15,0.73,0.8,1.28,1.57,1.28h1.77v-2.46h0v-7.32L122.16,72.09
		C122.16,72.09,122.16,72.09,122.16,72.09"/>
</g>
</svg>
