<svg xmlns="http://www.w3.org/2000/svg" width="323.55" height="102.94" viewBox="0 0 323.55 102.94"><title>logo-pbel-city</title><path d="M182.85,44.61V22.43c.29,0,.54-.05.8-.05h34.54a4.66,4.66,0,0,1,2.38.51,2.16,2.16,0,0,1,1.29,1.88c0,2.21,0,4.4,0,6.6a1.82,1.82,0,0,1-1.6,2,4.49,4.49,0,0,0,.51.22,1.25,1.25,0,0,1,1.07,1.12,5.24,5.24,0,0,1,.09.87q0,2.87,0,5.73a5.12,5.12,0,0,1-.08.87,2.81,2.81,0,0,1-2.69,2.41c-.31,0-.62,0-.93,0H182.85Zm5.48-5.47h26a5.22,5.22,0,0,0,.79,0,.82.82,0,0,0,.81-.86,5.58,5.58,0,0,0,0-1.08c0-.58-.28-.81-.87-.89a6.78,6.78,0,0,0-.78,0h-25.1c-.25,0-.52,0-.82,0Zm0-8.43c.3,0,.56,0,.82,0h25.23a4.93,4.93,0,0,0,.66,0c.54,0,.8-.27.84-.8a6.32,6.32,0,0,0,0-1.23.8.8,0,0,0-.8-.78,2.8,2.8,0,0,0-.5,0H189c-.21,0-.41,0-.64.06Z" fill="#2e3191" fill-rule="evenodd"/><path d="M231.44,27.87v2.82c.31,0,.62,0,.92,0h32.53v5.45c-.39,0-.75.05-1.09.05H232.52c-.35,0-.71,0-1.09,0v2.84H264.9c.05,1.82,0,3.61,0,5.43H226V22.5c.57-.15,38.06-.18,38.92,0v5.39Z" fill="#2e3191" fill-rule="evenodd"/><path d="M145.22,39.06V44.6c-1.86,0-3.63,0-5.45,0V22.43c.35,0,.68,0,1,0h32.93c.63,0,1.26,0,1.89,0a3.17,3.17,0,0,1,3.09,2.92,8.92,8.92,0,0,1,.07,1.16c0,2.87,0,5.75,0,8.63a8.39,8.39,0,0,1-.17,1.73,2.19,2.19,0,0,1-1.6,1.8,11.62,11.62,0,0,1-2.42.38c-1.85.06-3.72,0-5.58,0H145.22Zm0-5.54c.32,0,.58,0,.85,0h25.17a6.31,6.31,0,0,0,1.15-.11.87.87,0,0,0,.81-.89c0-1.2,0-2.42,0-3.62a1,1,0,0,0-1-1,3.69,3.69,0,0,0-.58,0H145.93c-.21,0-.42,0-.67.06Z" fill="#2e3191" fill-rule="evenodd"/><path d="M269.05,22.43h5.44c0,5.58,0,11.09,0,16.71H308v5.34c-.54.18-38.14.21-38.93,0Z" fill="#2e3191" fill-rule="evenodd"/><path d="M146.36,64l.57,0c8.57,0,23.06,0,31.62,0h.26V58.46h-34c-.62,0-1.25,0-1.88,0a3.18,3.18,0,0,0-3.1,2.91,9.11,9.11,0,0,0-.06,1.16c0,1.43,0,4.16,0,6.91h0c0,2.75,0,5.48,0,6.9a8.92,8.92,0,0,0,.06,1.16,3.16,3.16,0,0,0,3.1,2.91c.63,0,1.26,0,1.88,0h34V75a1.14,1.14,0,0,1-.26,0H146.93a3.63,3.63,0,0,1-.57,0c-.61-.09-1-.41-1-1s-.05-2.52-.05-4.45,0-3.86.05-4.45A1,1,0,0,1,146.36,64Z" fill="#2e3191" fill-rule="evenodd"/><polygon points="265.03 58.37 225.95 58.37 225.95 63.87 242.75 63.87 242.75 80.56 248.24 80.56 248.24 63.87 265.03 63.87 265.03 58.37" fill="#2e3191"/><polygon points="221.93 63.87 221.93 58.37 205.13 58.37 199.64 58.37 182.85 58.37 182.85 63.87 199.64 63.87 199.64 75.07 182.85 75.07 182.85 80.56 199.64 80.56 205.13 80.56 221.93 80.56 221.93 75.07 205.13 75.07 205.13 63.87 221.93 63.87" fill="#2e3191"/><polygon points="302.64 58.37 302.64 66.72 274.55 66.72 274.55 58.37 269.05 58.37 269.05 66.72 269.05 72.21 285.84 72.21 285.84 80.56 291.34 80.56 291.34 72.21 308.12 72.21 308.12 66.72 308.12 58.37 302.64 58.37" fill="#2e3191"/><rect width="25.71" height="25.73" fill="#007dc4"/><rect x="25.71" width="25.72" height="25.73" fill="#0094d9"/><rect x="51.43" width="25.71" height="25.73" fill="#00adee"/><rect x="77.14" width="25.72" height="25.73" fill="#00bff2"/><rect y="25.73" width="25.71" height="25.74" fill="#0066b2"/><rect x="77.14" y="25.73" width="25.72" height="25.74" fill="#00adee"/><rect y="51.47" width="25.71" height="25.74" fill="#034ea1"/><rect x="77.14" y="51.47" width="25.72" height="25.74" fill="#0094d9"/><rect y="77.2" width="25.71" height="25.74" fill="#2e3191"/><rect x="25.71" y="77.2" width="25.72" height="25.74" fill="#034ea1"/><rect x="51.43" y="77.2" width="25.71" height="25.74" fill="#0066b2"/><rect x="77.14" y="77.2" width="25.72" height="25.74" fill="#007dc4"/><path d="M313.49,15.44v3.93h-.63v-9H315a4,4,0,0,1,2.48.62,2.19,2.19,0,0,1,.81,1.87,2.45,2.45,0,0,1-.48,1.53,2.77,2.77,0,0,1-1.46.9l2.46,4.11h-.76l-2.33-3.93Zm0-.55h1.72a2.75,2.75,0,0,0,1.78-.51,1.82,1.82,0,0,0,.63-1.5,1.79,1.79,0,0,0-.62-1.51,3.41,3.41,0,0,0-2-.47h-1.49Z" fill="#2e3191"/><path d="M323.42,13.51a7.72,7.72,0,0,0-9.58-6,7.57,7.57,0,0,0-5.62,8.51,7.67,7.67,0,0,0,7.68,6.36,7.22,7.22,0,0,0,1.68-.19A7.57,7.57,0,0,0,323.42,13.51Zm-7.58,8.22a6.88,6.88,0,1,1,6.87-6.88A6.88,6.88,0,0,1,315.84,21.73Z" fill="#2e3191"/></svg>