<svg xmlns="http://www.w3.org/2000/svg" width="323.55" height="316.91" viewBox="0 0 323.55 316.91"><title>logo-vb-city</title><path d="M171.33,1.34a29.53,29.53,0,0,1,3.49,6.1,14.9,14.9,0,0,1,1,7.15,26.3,26.3,0,0,1-2.09,8.55c-1.17,2.67-2.33,5.29-3.49,7.84q-4.17,9.07-8.35,18.31t-8,18.31q-8.35,18.48-16.19,36.61t-15.48,37q-15.66,38-30.28,76T65.19,294.26q-1.05,3.48-6.26,3a20.36,20.36,0,0,1-9.4-3.31,26.08,26.08,0,0,1-6.26.69,30.75,30.75,0,0,1-6.62-.69A37.24,37.24,0,0,1,21.34,288,43.76,43.76,0,0,1,10.2,277,55.07,55.07,0,0,1,3.07,262.7a58.82,58.82,0,0,1-3-16.22,123.08,123.08,0,0,1,.35-15.86c.47-5.24,1.05-10.52,1.75-15.87q1-20.56,3.11-41.15,2.41-20.92,5.35-41.49t7.44-41.5a.31.31,0,0,1,.34-.35c.23,0,.35.24.35.7q-3.47,20.22-5.88,40.45T8.77,172.56c0,1.39-.06,2.79-.18,4.18s-.17,2.79-.17,4.18q2.76-15,5.88-29.81T19.84,121q1.38-7.67,2.08-15.35T24,90.26c.46-2.55.93-5,1.39-7.32s.92-4.76,1.38-7.32a19.94,19.94,0,0,1,.69-4.54l-.34-.35a6.53,6.53,0,0,1-2.43-.87c-1.15-.58-1.5-1.22-1-1.92a7.47,7.47,0,0,1,8.3-4,49.52,49.52,0,0,1,10,2.62A35.56,35.56,0,0,1,57.65,78.23a40.83,40.83,0,0,1,7.67,18,109.77,109.77,0,0,1-.17,35.39q-3,18-6.11,35.4-3.48,17.09-7.14,34a305.68,305.68,0,0,0-5.41,34.34q-.7,7.32-1.22,14.82A57.42,57.42,0,0,0,46.14,265a19.75,19.75,0,0,0,3,9.07l-.19-.35a5,5,0,0,0,.93,1.05q1.4-3.5,2.78-7l2.79-7q10.09-30.67,21.92-60.33t24-59.28q12.87-31,26.27-61.72t28.36-61c.47-.47.7-.35.7.35q-13.23,31.38-26.45,62.07t-25.75,62.07a1,1,0,0,0,.35-.7,1,1,0,0,1,.35-.7q8-18.12,16.27-36.09t17-35.74q3.84-8.37,8-16.74t8.41-16.74Q157,32,159.27,28a75.8,75.8,0,0,0,4-8.2c1.17-2.55,2.51-5.58,4-9.06s1.58-6.63.18-9.42C167,.18,167.44-.23,168.74.12a5.69,5.69,0,0,1,2.59,1.22" fill="#619044"/><path d="M69.34,281.21v0a1.8,1.8,0,0,0,0-.19Z" fill="#224725"/><path d="M223.54,129.65q0-3.63-.26-7.53t-.78-7.52a72.5,72.5,0,0,0-10.38-28.93A50.26,50.26,0,0,0,189,65.82c-.35-.17-.57-.17-.65,0s0,.35.39.52a47.2,47.2,0,0,1,17.38,15,71.51,71.51,0,0,1,10.12,21,77.36,77.36,0,0,0-20.76-25.68A80.19,80.19,0,0,0,160,60a106.28,106.28,0,0,0-39.44-.13q-5.19.78-10.77,1.95t-11,2.85a62.37,62.37,0,0,0-10.38,4.28,36.23,36.23,0,0,0-8.82,6.49q-8,8-6,20a24.74,24.74,0,0,0,1.3,5.32,28.48,28.48,0,0,0,2.73,5.71,20.79,20.79,0,0,0,3.89,4.67,8.64,8.64,0,0,0,5.06,2.2c2.24.18,3.54-1,3.89-3.37v.26a.72.72,0,0,1,.26-.52c.17-.35.34-.69.52-1a2.32,2.32,0,0,0,.26-1c.34-.69.73-1.42,1.16-2.2a22.48,22.48,0,0,0,1.17-2.47,16.58,16.58,0,0,1,3.89-4.8,32.94,32.94,0,0,1,5.19-3.5,63.29,63.29,0,0,1,15.31-5.32q8-1.68,15.83-3a112.92,112.92,0,0,1,24.26-.52A64.7,64.7,0,0,1,181.5,92c-1.38-.34-2.72-.68-4-1s-2.64-.69-4-1a89.41,89.41,0,0,0-34.25-.65,135.93,135.93,0,0,0-32.95,10v.26A143.41,143.41,0,0,1,137,91a91.67,91.67,0,0,1,31.53.26,62.77,62.77,0,0,1,14.4,4.28,42,42,0,0,1,12.32,8.17c.52.52,1.08,1,1.69,1.56a12.22,12.22,0,0,1,1.69,1.81l.78,1.56a2.92,2.92,0,0,1,.51.91,3,3,0,0,0,.52.91,4,4,0,0,1,.65,1.55,6.61,6.61,0,0,0,.65,1.82,14,14,0,0,1,.78,3.5,22.62,22.62,0,0,1,0,4.8,33.85,33.85,0,0,1-.65,6.62,33.08,33.08,0,0,1-2,6.36,63.21,63.21,0,0,1-15.69,23.61A170.34,170.34,0,0,1,162,176.87a177.72,177.72,0,0,1-15.31,9.47q-7.78,4.29-16.08,8.18-4.16,1.81-8.18,3.24T114.56,201q-4.41,2.08-9,4.15a44.74,44.74,0,0,1-9.47,3.12c-.7,0-.87.43-.52,1.29q-2.09,2.08.26,4.93a12.36,12.36,0,0,0,4.54,3.25,26.29,26.29,0,0,0,5.32,1.68,40.59,40.59,0,0,1,7,1.43,13.07,13.07,0,0,1,5.71,4.28,37.68,37.68,0,0,1,8,18.16,51.69,51.69,0,0,1,.77,11.42,40.89,40.89,0,0,1-2.07,11.16,61.4,61.4,0,0,1-3.63,9.6,16.49,16.49,0,0,1-7,7.52,13.24,13.24,0,0,1-9.08,1,92.21,92.21,0,0,1-9.34-2.33,19.52,19.52,0,0,1-8-4.67,29.59,29.59,0,0,1-5.44-7.79,30.91,30.91,0,0,1-2.86-8.69c-.38-2.22-.85-4.6-1.13-6.87L71.47,275a37.92,37.92,0,0,0,13.12,11.61,75.74,75.74,0,0,0,17.26,6.74A72.87,72.87,0,0,0,127,295.71a30.12,30.12,0,0,0,4.93-.91,24.26,24.26,0,0,0,4.41-1.69,24,24,0,0,0,7-2.72,29,29,0,0,0,6-4.54,31.29,31.29,0,0,0,7.26-10.38A51.94,51.94,0,0,0,160.23,263a46.25,46.25,0,0,0-2.34-23.23,50.61,50.61,0,0,0-13-19.59h-.26a47.45,47.45,0,0,1,10.77,18.55,51.24,51.24,0,0,1,1.94,21.41,42.74,42.74,0,0,1-6,16.87,44.51,44.51,0,0,0,4.42-21.8,48.49,48.49,0,0,0-6-21.54,46.4,46.4,0,0,0-9.21-11.93,59.45,59.45,0,0,0-12.33-8.82q2.85-.52,5.45-.91t5.19-.91a145.56,145.56,0,0,0,37.1-13,135.05,135.05,0,0,0,15.18-9.47,94.42,94.42,0,0,0,13.62-11.94,81.1,81.1,0,0,0,10.77-14.27,57.91,57.91,0,0,0,6.62-16.73,46.59,46.59,0,0,0,1.3-8.05,63.42,63.42,0,0,0,0-8" fill="#224725"/><path d="M238.77,246.52a10.37,10.37,0,0,0,5.47-2.43A15.89,15.89,0,0,0,248,239.4a15.31,15.31,0,0,0,1.6-6,13.68,13.68,0,0,0-1.11-6.16,11.19,11.19,0,0,0-2.18-3.58,12.3,12.3,0,0,0-3.27-2.61,16.13,16.13,0,0,0-5-3.36,18.61,18.61,0,0,0-5.81-1.47,17,17,0,0,0-6.14.37,23.06,23.06,0,0,0-5.61,2.2,30.1,30.1,0,0,0-5,3.47c-1.58,1.35-3.07,2.75-4.45,4.19a139.87,139.87,0,0,0-15.9,20A148.22,148.22,0,0,0,183.06,269c-.14.38-.29.76-.46,1.15s-.36.76-.56,1.14c.14-.51.3-1,.47-1.53s.33-1,.47-1.54a84,84,0,0,1,3.66-9.28q2.09-4.48,4.51-8.78A124.86,124.86,0,0,1,202.36,234l3.23-3.83c1.1-1.3,2.21-2.57,3.33-3.84s2.44-2.72,3.73-4a26.86,26.86,0,0,1,4.18-3.43,28,28,0,0,0-6.54,4.87c-1.95,2-3.81,3.94-5.6,6s-3.75,4.31-5.47,6.49-3.36,4.45-4.9,6.8a106.28,106.28,0,0,0-8.47,14.36A84.69,84.69,0,0,0,180.06,273c-.35,1.48-.68,2.95-1,4.42s-.56,2.95-.79,4.43a24.7,24.7,0,0,0-.3,2.6,7.54,7.54,0,0,0,.28,2.52,10.53,10.53,0,0,0,3.76,6.13,14.1,14.1,0,0,0,7,3l1.06,0a30.17,30.17,0,0,0,3.26.86,14.54,14.54,0,0,0,3.28.27,18.67,18.67,0,0,0,7.67-1.65,19.89,19.89,0,0,0,6.06-2.51,46.23,46.23,0,0,0,5.2-3.69,27.77,27.77,0,0,0,5.17-5.82,36.29,36.29,0,0,0,3.55-6.91c0-.13-.06-.13-.19,0a27.63,27.63,0,0,1-3.78,6.43,38.26,38.26,0,0,1-5.21,5.43c-.59.5-1.2,1-1.82,1.4s-1.26.84-1.91,1.21a4,4,0,0,0,.59-.46,3.47,3.47,0,0,1,.59-.47,63.41,63.41,0,0,0,5.95-6.09,29.14,29.14,0,0,0,4.52-7.28,24.1,24.1,0,0,0,1.4-3.83,9.41,9.41,0,0,0,.24-4.06,6.76,6.76,0,0,0-1.61-3.37,9.71,9.71,0,0,0-3-2.29,12.05,12.05,0,0,0-7.36-1,2,2,0,0,0-1.23.75,2.07,2.07,0,0,0-.46,1.25.45.45,0,0,1,.09.3,3.77,3.77,0,0,0,.49,1.51,5.44,5.44,0,0,0,1.08,1.33,1.3,1.3,0,0,1-.11.57,8.82,8.82,0,0,1-.32,1.3c-.14.42-.28.85-.42,1.3-.34.89-.72,1.76-1.13,2.62a27.19,27.19,0,0,1-1.41,2.63,35.82,35.82,0,0,1-3.35,4.46q-1.83,2.07-3.81,4a41,41,0,0,1-5,4.08,13,13,0,0,1-5.85,2.32l-.19-.19-.09-.1-.1-.2h-.09l-.19-.39a9.84,9.84,0,0,1,.07-2.71,20,20,0,0,1,.64-2.68c.56-1.67,1.16-3.32,1.82-5s1.35-3.32,2.1-5q2-4.87,4.48-9.6t5.15-9.29q2.63-4.49,5.58-8.76t6.14-8.44q3.19-4.18,6.67-8.06c1.06-1.19,2.19-2.36,3.37-3.49a16.24,16.24,0,0,1,4-2.8,9,9,0,0,1,2-.92,9.78,9.78,0,0,1,2-.43l.67-.08h.58a.23.23,0,0,1,.15,0,.17.17,0,0,0,.14.06,2.2,2.2,0,0,1,.53.06,5.09,5.09,0,0,1,.53.16.32.32,0,0,0,.19.1.7.7,0,0,1,.29.1.32.32,0,0,1,.19.1,5.12,5.12,0,0,1,.19,1.89,16.79,16.79,0,0,1-.29,2.12,19.88,19.88,0,0,1-.53,2.06l-.53,1.63a19.45,19.45,0,0,1-2.12,3.86,11.43,11.43,0,0,1-3.17,3.07c0,.13,0,.19.1.19a11.36,11.36,0,0,0,3.84-3.14,17,17,0,0,0,2.33-4.34c.34-.83.69-1.82,1-3a10.51,10.51,0,0,0,.47-3.37,1.31,1.31,0,0,1,.23.3,1.61,1.61,0,0,0,.23.29,5.46,5.46,0,0,1,0,2.32,18.2,18.2,0,0,1-1.1,3.69c-.51,1.25-1,2.41-1.58,3.49a16.27,16.27,0,0,1-1.71,2.71,7.18,7.18,0,0,1-2.46,2,9.12,9.12,0,0,1-2.11,1c-.68.21-1.37.44-2.09.68a4,4,0,0,0-.72-.26c-.35-.11-.5,0-.44.33V241a.35.35,0,0,0,0,.48,7.68,7.68,0,0,1,.55,1.22,2.2,2.2,0,0,0,.85,1,13.68,13.68,0,0,0,2.66,1.61,12.91,12.91,0,0,0,7.22,1.15" fill="#224725"/><path d="M250.19,255.8a6.66,6.66,0,0,0,2.72.6,1.8,1.8,0,0,0,1.83-1l1-2.49c.35-.84.67-1.69.94-2.56a8.69,8.69,0,0,0,.3-2.47,3,3,0,0,0-1.06-2.14,4.36,4.36,0,0,0-1.9-1.42,5,5,0,0,0-1-.27,1,1,0,0,0-1,.22,2.26,2.26,0,0,0-.33.62,4.09,4.09,0,0,0-1.21,1.37c-.35.59-.65,1.11-.91,1.56A16.69,16.69,0,0,0,248.5,250c-.33.76-.67,1.51-1,2.24a1.72,1.72,0,0,0,.45,2,6.33,6.33,0,0,0,2.26,1.61" fill="#224725"/><path d="M243.86,263.65s0,0,.13.05a.17.17,0,0,1-.13-.05m79.66-2a7.8,7.8,0,0,0-1-3.35,10,10,0,0,0-2.3-2.75,10.32,10.32,0,0,0-3.11-1.78,8.54,8.54,0,0,0-3.48-.5,3.32,3.32,0,0,0-1.34.47,1.2,1.2,0,0,0-.61,1.23,2.18,2.18,0,0,0,.23.92q-.08-.42,0-.09a3.14,3.14,0,0,0,.43,1.09,3.31,3.31,0,0,1,.43,1,3.56,3.56,0,0,1,0,1.75,17.15,17.15,0,0,1-.46,1.81c-.29.94-.62,1.9-1,2.89a26.08,26.08,0,0,1-1.23,2.87c-.17.28-.36.56-.56.86l-.56.86h-.09c.49-1.6.94-3.2,1.37-4.83a31.66,31.66,0,0,0,.87-5c0-.11,0-.17-.08-.17s-.12.05-.17.16q-1,2.39-1.74,4.94c-.52,1.71-1.07,3.38-1.66,5-.3.77-.59,1.52-.89,2.26s-.59,1.5-.88,2.26q-1.2,1.64-2.4,3.15c-.8,1-1.66,2-2.57,3-1.36,1.52-2.76,3-4.18,4.43a58.58,58.58,0,0,1-4.5,4.09c-1.52,1.29-3.05,2.5-4.57,3.62-.34.27-.68.52-1,.77s-.68.49-1,.76a7.29,7.29,0,0,1,.76-4,50.64,50.64,0,0,1,2.74-5.08c1-1.64,2-3.3,2.9-5,.41-.76.84-1.56,1.31-2.37s.88-1.64,1.26-2.47a14.3,14.3,0,0,0,.9-2.55,10.29,10.29,0,0,0,.27-2.73,7.05,7.05,0,0,0-.89-2.93,8.81,8.81,0,0,0-1.93-2.37,11.49,11.49,0,0,0-2.66-1.73,12.42,12.42,0,0,0-2.88-1,10.62,10.62,0,0,0-2.12-.22,1.64,1.64,0,0,0-1.72,1,2,2,0,0,0,.93,2.68h.25l.16.17.08.09v-.08c.1.39.17.64.19.75a4.38,4.38,0,0,1,0,.83,5.71,5.71,0,0,1-.78,3.3c-.61,1.1-1.2,2.1-1.78,3l-2,3.57c-.21.37-.43.78-.65,1.16-2,1.48-3.89,3-5.72,4.7a114.52,114.52,0,0,0-9.41,9.66,4.45,4.45,0,0,1,0-1.74q2.52-4.68,5-9.39t5-9.39q2.6-4.84,5.17-9.56t5-9.55c.05,0,.07-.09,0-.12s-.07,0-.12,0q-2.94,4.59-5.59,9.26t-5.25,9.42l-4.18,7.87q1.23-2.54,2.41-5c.78-1.64,1.59-3.28,2.4-4.92,1.16-2.3,2.33-4.54,3.49-6.73s2.35-4.4,3.56-6.64c.58-1,1.15-2.06,1.7-3.07s1.11-2,1.69-3l1.62-.13,1.71-.12c1.44-.08,2.85-.12,4.24-.11s2.79,0,4.23,0l1.83,0a11.15,11.15,0,0,1,1.82.21,2.13,2.13,0,0,1,.62.23l.53.3c.06,0,.08,0,.08.08a1.5,1.5,0,0,1-.27,1.08,1.27,1.27,0,0,0,.1,1,.68.68,0,0,0,.86.48,2.14,2.14,0,0,0,1.37-1.88,5.63,5.63,0,0,0-.27-2.42A4.87,4.87,0,0,0,301,245.4a10.52,10.52,0,0,0-3.54-1.09,49.29,49.29,0,0,0-5-.53q-2.49-.15-5-.21a5.32,5.32,0,0,0,.2-1.28,9.62,9.62,0,0,1,.11-1.28,1.64,1.64,0,0,0-.31-1,5.06,5.06,0,0,0-.81-.89,6,6,0,0,0-1-.73l-.86-.48c-.27-.11-.62-.23-1-.35a8.88,8.88,0,0,0-1.24-.28,3.45,3.45,0,0,0-1.2,0c-.39.07-2,.59-3.73,2.86-.09.12-.21.23-.3.36a1.52,1.52,0,0,1-.3.37,8.12,8.12,0,0,0-1,1.43l-.86,1.52a13.07,13.07,0,0,1-3.61-.09l-2.11-.39-2.11-.38c-.39-.12-.77-.23-1.16-.32s-.77-.2-1.15-.32a3.48,3.48,0,0,1-.62-.18.87.87,0,0,0-.29-.09,2.51,2.51,0,0,0-1.47-.86,1.46,1.46,0,0,0-1,.34,1.15,1.15,0,0,0-.36,1,5.91,5.91,0,0,0,1.45,3.86A9,9,0,0,0,266,248.7a18.91,18.91,0,0,0,4.16,1.14c1.47.23-1.68.72,1.15.57l-.52,1-4,7.34c-1.3,2.43-2.57,4.91-3.79,7.42q-2.7,5.46-5.26,10.9c-1.06.81-2.11,1.61-3.12,2.4s-2.15,1.7-3.22,2.62q-3.23,2.58-6.19,5.16l-1.52,1.21c.46-.76.88-1.54,1.26-2.33s.77-1.57,1.18-2.34c.58-1.09,1.16-2.2,1.74-3.32s1.16-2.23,1.74-3.33c.47-.92,1-1.88,1.44-2.87s.95-2,1.36-3a18.05,18.05,0,0,0,.95-3.09,11.55,11.55,0,0,0,.2-3.23h-.08a19.08,19.08,0,0,1-2.08,6.84c-1.1,2.08-2.2,4.18-3.31,6.32-.4.65-.78,1.32-1.13,2s-.72,1.38-1.13,2.09l1.76-4.07c.59-1.34,1.2-2.69,1.85-4.06.35-.82.74-1.66,1.18-2.51a12,12,0,0,0,1-2.51,7.44,7.44,0,0,0,.23-2.48,5.21,5.21,0,0,0-1.06-2.6,9.23,9.23,0,0,0-1.67-1.46,13.8,13.8,0,0,0-2.5-1.43,5.06,5.06,0,0,0-2.48-.47,1.65,1.65,0,0,0-1.52,1.33.55.55,0,0,0,0,.58,2.07,2.07,0,0,0-.26.54,2,2,0,0,1-.26.53L240.25,267c-.58,1.15-1.15,2.32-1.7,3.49s-1.13,2.37-1.71,3.57c-1.06,2.47-2.08,4.94-3.09,7.4s-3.94,7.34-4.78,9.87a2.53,2.53,0,0,0,.6,2.59,12.14,12.14,0,0,0,2,1.87,13.81,13.81,0,0,0,2.84,1.28,7.78,7.78,0,0,0,3.1.36,3.09,3.09,0,0,1,.67-.15,1.36,1.36,0,0,0,1.5-.13c1.13-.91,4.23-4.24,5.25-5.24s2.1-1.95,3.23-2.87,2.05-1.82,3.1-2.71l3.18-2.7.6-.51c-.18.45-.36.88-.54,1.34a9.57,9.57,0,0,0-.67,3.72,7.39,7.39,0,0,0,1.22,4.35,10.66,10.66,0,0,0,3.16,3.15A11.79,11.79,0,0,0,261,297a4.87,4.87,0,0,0,3.65-.12,1.33,1.33,0,0,0,.42-.24,2,2,0,0,0,.69-.89q4.62-5.62,9.77-10.77l.27-.26a16.08,16.08,0,0,0-.68,1.79,9.08,9.08,0,0,0-.46,3.72,5.7,5.7,0,0,0,1.54,3.36,13.28,13.28,0,0,0,3.34,2.66,10.11,10.11,0,0,0,4,1.34,4.89,4.89,0,0,0,2,.47,2.7,2.7,0,0,0,1.84-.62c.9-.65,1.79-1.3,2.66-2s1.74-1.39,2.59-2.14q2.21-1.86,4.28-3.8t4-4.06a1.26,1.26,0,0,1,0,.33,1.26,1.26,0,0,0-.05.33q-1.21,2.15-2.47,4.18c-.84,1.36-1.69,2.76-2.55,4.17-1.32,2-2.69,4-4.09,6s-2.91,3.89-4.5,5.79a21.84,21.84,0,0,1-2.05,2.15,5.27,5.27,0,0,1-2.69,1.3,9.33,9.33,0,0,1-2,.2,15.73,15.73,0,0,0-2,.12,11.8,11.8,0,0,0-2.27-.18c-.81,0-1.27.31-1.4.92a1.28,1.28,0,0,0,.18,1.13,4.89,4.89,0,0,0,.93,1,10,10,0,0,0,1.23.86c.44.26.85.47,1.23.65a15.28,15.28,0,0,0,4.23,1.93,16.27,16.27,0,0,0,4.59.61,12.49,12.49,0,0,0,4.51-.89,11.31,11.31,0,0,0,3.88-2.56,39.76,39.76,0,0,0,2.87-3.38q1.32-1.75,2.7-3.55t2.71-3.75c.89-1.25,1.73-2.53,2.54-3.84q2.5-3.76,4.71-7.61t4.14-8c.29-.6.63-1.26,1-2a18.59,18.59,0,0,0,1-2.22c.58-1.15,1.14-2.3,1.67-3.45s1-2.32,1.49-3.53q1.06-2.38,2.16-5.14a12,12,0,0,0,.92-5.42" fill="#224725"/></svg>