<svg xmlns="http://www.w3.org/2000/svg" width="323.55" height="85.75" viewBox="0 0 323.55 85.75"><title>logo-one-city</title><path d="M31.41,54.16a13.71,13.71,0,0,1-4.62,18.93,13.3,13.3,0,0,1-10.41,1.62A13.81,13.81,0,0,1,6.25,58a13.31,13.31,0,0,1,6.24-8.5,13.3,13.3,0,0,1,10.43-1.62,13.24,13.24,0,0,1,8.49,6.24m-16,.09a8.26,8.26,0,0,0,2.33,15.09,8,8,0,0,0,6.25-1,8.28,8.28,0,0,0-2.33-15.11,8,8,0,0,0-6.25,1" fill="#9e1f63"/><path d="M10.84,76.87a5.84,5.84,0,0,1-2,8,5.66,5.66,0,0,1-4.41.68A5.65,5.65,0,0,1,.86,82.93a5.84,5.84,0,0,1,2-8,5.63,5.63,0,0,1,4.42-.69,5.65,5.65,0,0,1,3.6,2.65M4,76.9a3.41,3.41,0,0,0-1.59,2.17,3.37,3.37,0,0,0,.41,2.64A3.36,3.36,0,0,0,5,83.3a3.43,3.43,0,0,0,2.65-.41,3.39,3.39,0,0,0,1.59-2.16,3.35,3.35,0,0,0-.42-2.65,3.36,3.36,0,0,0-2.16-1.59A3.36,3.36,0,0,0,4,76.9" fill="#9e1f63"/><path d="M69.52,8.07A26.46,26.46,0,0,1,77.6,27.46a26.43,26.43,0,0,1-8.08,19.4,26.5,26.5,0,0,1-19.39,8.06,26.45,26.45,0,0,1-19.4-8.06,26.45,26.45,0,0,1-8.06-19.4A26.48,26.48,0,0,1,30.73,8.07,26.42,26.42,0,0,1,50.13,0,26.47,26.47,0,0,1,69.52,8.07m-31,7.75a15.92,15.92,0,0,0-4.82,11.64A15.8,15.8,0,0,0,38.5,39.09a16.43,16.43,0,0,0,23.27,0,15.79,15.79,0,0,0,4.85-11.63,15.91,15.91,0,0,0-4.85-11.64,16.38,16.38,0,0,0-23.27,0" fill="#9e1f63"/><polygon points="113.74 30.01 113.74 0 124.75 0 124.75 54.92 91.8 24.87 91.8 54.92 80.8 54.92 80.8 0 113.74 30.01" fill="#9e1f63"/><polygon points="163.69 0 163.69 10.97 141.75 10.97 141.75 21.98 158.2 21.98 158.2 32.94 141.75 32.94 141.75 43.92 163.69 43.92 163.69 54.92 141.75 54.92 130.74 54.92 130.74 32.94 130.74 21.98 130.74 0 163.69 0" fill="#9e1f63"/><path d="M206.74,2.16A28.51,28.51,0,0,1,215.51,8l-7.77,7.77A16,16,0,0,0,196.09,11a15.81,15.81,0,0,0-11.63,4.85,15.93,15.93,0,0,0-4.83,11.64,15.81,15.81,0,0,0,4.83,11.63,16.43,16.43,0,0,0,23.28,0l7.77,7.77a28.24,28.24,0,0,1-8.77,5.91,27.36,27.36,0,0,1-30.05-5.9,26.45,26.45,0,0,1-8.06-19.4,26.48,26.48,0,0,1,8.06-19.39,27.35,27.35,0,0,1,30.05-5.91" fill="#9e1f63"/><rect x="219.43" width="11.01" height="54.92" fill="#9e1f63"/><polygon points="260.96 0 274.69 0 274.69 10.97 260.96 10.97 260.96 54.92 249.96 54.92 249.96 10.97 236.22 10.97 236.22 0 249.96 0 260.96 0" fill="#9e1f63"/><polygon points="292.1 0 301.57 17.41 311.04 0 323.55 0 307.06 30.29 307.06 54.92 296.09 54.92 296.09 30.29 279.63 0 292.1 0" fill="#9e1f63"/></svg>