<svg xmlns="http://www.w3.org/2000/svg" xmlns:xlink="http://www.w3.org/1999/xlink" x="0px" y="0px" width="64px" height="64px" viewBox="0 0 64 64"><g stroke-width="2" transform="translate(0, 0)"><circle cx="29" cy="8" r="6" fill="none" stroke="#c0343c" stroke-linecap="square" stroke-miterlimit="10" stroke-width="2" stroke-linejoin="miter"></circle>
  <path d="M35,30V26.163l5.41,3.381a3,3,0,0,0,3.542-.266l7.276-6.236a2.637,2.637,0,0,0,.286-3.719h0A2.638,2.638,0,0,0,48,18.881l-6.275,4.407L35.59,19.456A3,3,0,0,0,34,19H24a3,3,0,0,0-1.874.657l-9,7A3,3,0,0,0,12,29V39.392A2.608,2.608,0,0,0,14.608,42h0a2.61,2.61,0,0,0,2.6-2.385L18,30.441,23,27V37a4,4,0,0,0,4,4h8.768l2.359,7.862a3,3,0,0,0,3.7,2.021,3.146,3.146,0,0,0,1.994-3.907l-2.951-9.839A3,3,0,0,0,38,35H31" fill="none" stroke="#c0343c" stroke-linecap="square" stroke-miterlimit="10" stroke-width="2" stroke-linejoin="miter"></path>
  <polygon points="50 62 34 62 35 56 49 56 50 62" fill="none" stroke="#c0343c" stroke-linecap="square" stroke-miterlimit="10" stroke-width="2" data-color="color-2" stroke-linejoin="miter"></polygon>
  <path d="M30.194,46.352l-.207,2.919a2.983,2.983,0,0,1-.365,1.186l-5,9a3,3,0,1,1-5.244-2.914L24.069,48.1l.206-2.26" fill="none" stroke="#c0343c" stroke-linecap="square" stroke-miterlimit="10" stroke-width="2" stroke-linejoin="miter"></path></g></svg>