<svg xmlns="http://www.w3.org/2000/svg" xmlns:xlink="http://www.w3.org/1999/xlink" x="0px" y="0px" width="64px" height="64px" viewBox="0 0 64 64"><g stroke-width="2" transform="translate(0, 0)"><path d="M8,22A14,14,0,0,1,22,8" fill="none" stroke="#c0343c" stroke-linecap="square" stroke-miterlimit="10" stroke-width="2" data-color="color-2" stroke-linejoin="miter"></path><path d="M56,42A14,14,0,0,1,42,56" fill="none" stroke="#c0343c" stroke-linecap="square" stroke-miterlimit="10" stroke-width="2" data-color="color-2" stroke-linejoin="miter"></path><path d="M27.087,55.087,33.061,51.5l-1.2-1.194L25.918,51.5a87.062,87.062,0,0,0-5.709-7.41l11.657-6.92-2.389-2.389-15.525,2.95-4.56-4.56c-2.625-2.625-5.791-3.9-6.958-2.735s.11,4.333,2.735,6.958l4.56,4.56L6.779,57.477l2.389,2.389,6.92-11.657a87.062,87.062,0,0,0,7.41,5.709l-1.189,5.948,1.194,1.2Z" fill="none" stroke="#c0343c" stroke-linecap="square" stroke-miterlimit="10" stroke-width="2" stroke-linejoin="miter"></path><path d="M36.913,8.913,30.939,12.5l1.2,1.194L38.082,12.5a87.062,87.062,0,0,0,5.709,7.41l-11.657,6.92,2.389,2.389,15.525-2.95,4.56,4.56c2.625,2.625,5.791,3.9,6.958,2.735s-.11-4.333-2.735-6.958l-4.56-4.56,2.95-15.525L54.832,4.134l-6.92,11.657a87.062,87.062,0,0,0-7.41-5.709l1.189-5.948L40.5,2.939Z" fill="none" stroke="#c0343c" stroke-linecap="square" stroke-miterlimit="10" stroke-width="2" stroke-linejoin="miter"></path></g></svg>