<?xml version="1.0" encoding="UTF-8"?>
<svg width="60px" height="60px" viewBox="0 0 60 60" version="1.1" xmlns="http://www.w3.org/2000/svg" xmlns:xlink="http://www.w3.org/1999/xlink">
    <!-- Generator: Sketch 53.2 (72643) - https://sketchapp.com -->
    <title>Icons/icon-badmintoncourt</title>
    <desc>Created with Sketch.</desc>
    <g id="Icons/icon-badmintoncourt" stroke="none" stroke-width="1" fill="none" fill-rule="evenodd" stroke-linecap="round" stroke-linejoin="round">
        <g id="shuttlecock" transform="translate(2.000000, 0.000000)" stroke="#C0343C" stroke-width="2">
            <path d="M22.583334,35.4166679 L40.9720307,17.0279674 C43.1025735,14.8974285 43.1024552,11.4433364 40.9720307,9.3129138 C38.84161,7.1824922 35.3875161,7.1823749 33.2569771,9.3129138 C35.387516,7.1823749 35.3874016,3.7282824 33.2569771,1.5978602 C31.1265564,-0.5325614 27.6724644,-0.5326792 25.5419254,1.5978602 C24.9340057,2.2057789 24.519741,2.9263576 24.2588691,3.6882566 L6.2542906,40.17313" id="Path"></path>
            <path d="M40.9720306,17.0279675 C43.1025734,14.8974286 46.5566635,14.8975468 48.6870842,17.0279675 C50.8175087,19.1583901 50.817627,22.6124821 48.6870842,24.7430211 C50.817627,22.6124822 54.2717171,22.6126004 56.4021378,24.7430211 C58.5325623,26.8734437 58.5326806,30.3275376 56.4021378,32.4580766 C55.79422,33.0659944 55.0736428,33.4802591 54.3117447,33.741131 L17.82687,51.7457085" id="Path"></path>
            <path d="M33.2569771,9.3129139 L17.82687,31.125" id="Path"></path>
            <path d="M48.6870842,24.743021 L27,39.75" id="Path"></path>
            <path d="M2.396769,55.603241 L2.3967576,55.6032296 C-0.7989192,52.4075547 -0.7989192,47.2263375 2.3967576,44.0306626 L6.2542906,40.1731301 L17.82687,51.7457085 L13.9693375,55.603241 C10.7736616,58.7989197 5.5924454,58.7989197 2.396769,55.603241 Z" id="Path"></path>
        </g>
    </g>
</svg>