<svg xmlns="http://www.w3.org/2000/svg" xmlns:xlink="http://www.w3.org/1999/xlink" x="0px" y="0px" width="64px" height="64px" viewBox="0 0 64 64"><g stroke-width="2" transform="translate(0, 0)"><circle cx="39" cy="9" r="6" fill="none" stroke="#c0343c" stroke-linecap="square" stroke-miterlimit="10" stroke-width="2" stroke-linejoin="miter"></circle>
<circle data-color="color-2" cx="51" cy="46" r="5" fill="none" stroke="#c0343c" stroke-linecap="square" stroke-miterlimit="10" stroke-width="2" stroke-linejoin="miter"></circle>
<path d="M23.239,47.229,17.683,58.342a3,3,0,0,1-5.367-2.684h0L18.13,44.05" fill="none" stroke="#c0343c" stroke-linecap="square" stroke-miterlimit="10" stroke-width="2" stroke-linejoin="miter"></path>
<path data-cap="butt" d="M33.292,39.651l4.624-10.787,3.353,6.377A3,3,0,0,0,44,37h9.376A2.624,2.624,0,0,0,56,34.376h0a2.624,2.624,0,0,0-2.365-2.611L45.932,31l-4.2-8.241a3.125,3.125,0,0,0-1.617-1.545l-10-4A3.02,3.02,0,0,0,29,17H19a3,3,0,0,0-2.544,1.41l-5.209,8.335a2.6,2.6,0,0,0,.82,3.584l.009.006h0a2.605,2.605,0,0,0,3.449-.625L20.663,23h5.67l-5.42,9.756a6,6,0,0,0,2.331,8.158L32,45.781l-.059,9.05A3.115,3.115,0,0,0,34.781,58a3,3,0,0,0,3.156-2.836c0-.054,0-.109,0-.164L38,44a3,3,0,0,0-1.563-2.634l-7.395-4.033" fill="none" stroke="#c0343c" stroke-miterlimit="10" stroke-width="2" stroke-linecap="butt" stroke-linejoin="miter"></path></g></svg>