<?xml version="1.0" encoding="UTF-8"?>
<svg width="60px" height="61px" viewBox="0 0 60 61" version="1.1" xmlns="http://www.w3.org/2000/svg" xmlns:xlink="http://www.w3.org/1999/xlink">
    <!-- Generator: Sketch 53.2 (72643) - https://sketchapp.com -->
    <title>Icons/icon-carparks</title>
    <desc>Created with Sketch.</desc>
    <g id="Icons/icon-carparks" stroke="none" stroke-width="1" fill="none" fill-rule="evenodd" stroke-linecap="round" stroke-linejoin="round">
        <g id="car-parking" transform="translate(0.000000, 19.000000)" stroke="#C0343C" stroke-width="2">
            <polyline id="Path" points="6 17 6 20 0.5 20 0.5 17"></polyline>
            <polyline id="Path" points="27.5 17 27.5 20 22 20 22 17"></polyline>
            <path d="M25.5,8 L23.6895,0.7575 C23.5781898,0.31218952 23.1780113,-0.000160001753 22.719,-2.46913601e-13 L5.281,-2.46913601e-13 C4.82217512,6.94700223e-05 4.42226503,0.312370387 4.311,0.7575 L2.5,8" id="Path"></path>
            <path d="M27.5,17 L0.5,17 L0.5,10.414 C0.500056637,10.1488052 0.605450625,9.89449273 0.793,9.707 L2.5,8 L25.5,8 L27.207,9.707 C27.3945494,9.89449273 27.4999434,10.1488052 27.5,10.414 L27.5,17 Z" id="Path"></path>
            <circle id="Oval" cx="5" cy="12.5" r="1.5"></circle>
            <circle id="Oval" cx="23" cy="12.5" r="1.5"></circle>
            <path d="M11.5,12.5 L16.5,12.5" id="Path"></path>
        </g>
        <g id="car-parking-copy" transform="translate(32.000000, 41.000000)" stroke="#C0343C" stroke-width="2">
            <polyline id="Path" points="6 17 6 20 0.5 20 0.5 17"></polyline>
            <polyline id="Path" points="27.5 17 27.5 20 22 20 22 17"></polyline>
            <path d="M25.5,8 L23.6895,0.7575 C23.5781898,0.31218952 23.1780113,-0.000160001753 22.719,-2.46913601e-13 L5.281,-2.46913601e-13 C4.82217512,6.94700223e-05 4.42226503,0.312370387 4.311,0.7575 L2.5,8" id="Path"></path>
            <path d="M27.5,17 L0.5,17 L0.5,10.414 C0.500056637,10.1488052 0.605450625,9.89449273 0.793,9.707 L2.5,8 L25.5,8 L27.207,9.707 C27.3945494,9.89449273 27.4999434,10.1488052 27.5,10.414 L27.5,17 Z" id="Path"></path>
            <circle id="Oval" cx="5" cy="12.5" r="1.5"></circle>
            <circle id="Oval" cx="23" cy="12.5" r="1.5"></circle>
            <path d="M11.5,12.5 L16.5,12.5" id="Path"></path>
        </g>
        <polyline id="Path" stroke="#C0343C" stroke-width="2" points="0 14 30 0 60 14"></polyline>
    </g>
</svg>