<svg xmlns="http://www.w3.org/2000/svg" xmlns:xlink="http://www.w3.org/1999/xlink" x="0px" y="0px" width="64px" height="64px" viewBox="0 0 64 64"><g stroke-width="2" transform="translate(0, 0)"><line data-cap="butt" fill="none" stroke="#c0343c" stroke-width="2" stroke-miterlimit="10" x1="32" y1="28" x2="41" y2="19" stroke-linecap="butt" stroke-linejoin="miter"></line>
<path data-cap="butt" fill="none" stroke="#c0343c" stroke-width="2" stroke-miterlimit="10" d="M57,28L52.531,8.335
	C52.22,6.969,51.006,6,49.605,6H14.395c-1.401,0-2.615,0.969-2.925,2.335L7,28" stroke-linecap="butt" stroke-linejoin="miter"></path>
<polyline data-color="color-2" fill="none" stroke="#c0343c" stroke-width="2" stroke-linecap="square" stroke-miterlimit="10" points="
	18,50 18,57 6,57 6,50 " stroke-linejoin="miter"></polyline>
<polyline data-color="color-2" fill="none" stroke="#c0343c" stroke-width="2" stroke-linecap="square" stroke-miterlimit="10" points="
	58,50 58,57 46,57 46,50 " stroke-linejoin="miter"></polyline>
<path fill="none" stroke="#c0343c" stroke-width="2" stroke-linecap="square" stroke-miterlimit="10" d="M62,50H2V35.448
	c0-0.936,0.328-1.842,0.927-2.561L7,28h50l4.073,4.887C61.672,33.606,62,34.512,62,35.448V50z" stroke-linejoin="miter"></path>
<circle data-color="color-2" fill="none" stroke="#c0343c" stroke-width="2" stroke-linecap="square" stroke-miterlimit="10" cx="12" cy="39" r="4" stroke-linejoin="miter"></circle>
<circle data-color="color-2" fill="none" stroke="#c0343c" stroke-width="2" stroke-linecap="square" stroke-miterlimit="10" cx="52" cy="39" r="4" stroke-linejoin="miter"></circle>
<line data-color="color-2" fill="none" stroke="#c0343c" stroke-width="2" stroke-linecap="square" stroke-miterlimit="10" x1="26" y1="39" x2="38" y2="39" stroke-linejoin="miter"></line></g></svg>