<svg xmlns="http://www.w3.org/2000/svg" xmlns:xlink="http://www.w3.org/1999/xlink" x="0px" y="0px" width="64px" height="64px" viewBox="0 0 64 64"><g stroke-width="2" transform="translate(0, 0)"><polyline data-color="color-2" fill="none" stroke="#c0343c" stroke-width="2" stroke-linecap="square" stroke-miterlimit="10" points="
	12,62 2,62 2,48 10,48 " stroke-linejoin="miter"></polyline>
<polyline data-color="color-2" fill="none" stroke="#c0343c" stroke-width="2" stroke-linecap="square" stroke-miterlimit="10" points="
	52,62 62,62 62,48 54,48 " stroke-linejoin="miter"></polyline>
<line data-color="color-2" fill="none" stroke="#c0343c" stroke-width="2" stroke-linecap="square" stroke-miterlimit="10" x1="32" y1="14" x2="32" y2="2" stroke-linejoin="miter"></line>
<rect data-color="color-2" x="32" y="4" fill="none" stroke="#c0343c" stroke-width="2" stroke-linecap="square" stroke-miterlimit="10" width="8" height="4" stroke-linejoin="miter"></rect>
<polyline data-color="color-2" fill="none" stroke="#c0343c" stroke-width="2" stroke-linecap="square" stroke-miterlimit="10" points="
	36,62 36,52 28,52 28,62 " stroke-linejoin="miter"></polyline>
<line data-cap="butt" fill="none" stroke="#c0343c" stroke-width="2" stroke-miterlimit="10" x1="10" y1="30" x2="54" y2="30" stroke-linejoin="miter" stroke-linecap="butt"></line>
<line data-cap="butt" fill="none" stroke="#c0343c" stroke-width="2" stroke-miterlimit="10" x1="10" y1="38" x2="54" y2="38" stroke-linejoin="miter" stroke-linecap="butt"></line>
<line data-cap="butt" fill="none" stroke="#c0343c" stroke-width="2" stroke-miterlimit="10" x1="19" y1="62" x2="19" y2="38" stroke-linejoin="miter" stroke-linecap="butt"></line>
<line data-cap="butt" fill="none" stroke="#c0343c" stroke-width="2" stroke-miterlimit="10" x1="45" y1="62" x2="45" y2="38" stroke-linejoin="miter" stroke-linecap="butt"></line>
<polygon fill="none" stroke="#c0343c" stroke-width="2" stroke-linecap="square" stroke-miterlimit="10" points="54,30 54,62 10,62 
	10,30 32,14 " stroke-linejoin="miter"></polygon>
<line fill="none" stroke="#c0343c" stroke-width="2" stroke-linecap="square" stroke-miterlimit="10" x1="28" y1="45" x2="36" y2="45" stroke-linejoin="miter"></line></g></svg>