<?xml version="1.0" encoding="UTF-8"?>
<svg width="60px" height="60px" viewBox="0 0 60 60" version="1.1" xmlns="http://www.w3.org/2000/svg" xmlns:xlink="http://www.w3.org/1999/xlink">
    <!-- Generator: Sketch 53.2 (72643) - https://sketchapp.com -->
    <title>Icons/icon-youdontneedtosupervise</title>
    <desc>Created with Sketch.</desc>
    <g id="Icons/icon-youdontneedtosupervise" stroke="none" stroke-width="1" fill="none" fill-rule="evenodd" stroke-linecap="round" stroke-linejoin="round">
        <path d="M59.5081967,60 L0.491803279,60" id="Path" stroke="#C0343C" stroke-width="2"></path>
        <path d="M51.0303129,30.2472584 C50.6110206,29.7692944 50.0262613,29.3160415 49.5,28.8829476 L49.5,24.9610416 C48.9519487,17.1295853 43.7161392,10.587006 36.4924269,8.08923768 L36.1510504,7.97543673 C34.2150427,7.34595489 32.1489553,7 29.9996698,7 C27.8503844,7 25.7836367,7.34595489 23.8482893,7.97543673 L23.5069128,8.08923768 C16.2832005,10.587006 11.0480513,17.1295853 10.5,24.9610416 L10.5,28.8783956 C9.97241809,29.3121398 9.38831905,29.7673436 8.9690268,30.2466081 C7.74020335,31.6486359 6.99802305,33.2841181 7.00000396,35.0308002 C6.99868335,36.7787828 7.74020335,38.414265 8.9690268,39.8162927 C10.0426791,41.040791 11.4913834,42.115072 13.220056,43.0384854 C14.0593008,44.205758 15.0609801,45.2761373 16.1993421,46.2236115 C19.7577137,49.1889391 24.6340496,50.9993497 30.0003302,51 C35.367271,50.9993497 40.2436069,49.1889391 43.8013182,46.2236115 C44.9350581,45.280039 45.9334359,44.2142118 46.7706998,43.0521415 C48.5066357,42.1261269 49.9546797,41.0459933 51.0309732,39.8156425 C52.2597966,38.4136147 53.001977,36.7774822 52.999996,35.0301499 C53.0013167,33.2847684 52.2591363,31.6492862 51.0303129,30.2472584 Z" id="Path" stroke="#C0343C" stroke-width="2"></path>
        <path d="M22.832506,30.5227657 C25.0222991,30.8082603 27.3388968,30.9706968 29.7520462,30.9706968 C32.224414,30.9706968 34.5957244,30.8002615 36.832506,30.5 L36.832506,34.0108445 C34.6111727,34.3215659 32.2353566,34.5 29.7520462,34.5 C27.3285979,34.5 25.0081382,34.3307953 22.832506,34.0342255 L22.832506,30.5227657 Z" id="Path" stroke="#C0343C" stroke-width="2"></path>
        <path d="M10.5,26 L10.5,32.7551188 C10.5,35.8638025 12.5501886,38.6000552 15.5337087,39.4732806 L21.6672014,41.2684492 C27.74774,43.048119 34.2234066,42.9545708 40.25,41 L44.6595329,39.5698812 C47.5455176,38.6338862 49.5,35.9452948 49.5,32.9113215 L49.5,29" id="Path-34" stroke="#C0343C" stroke-width="2"></path>
        <path d="M30,7 L30,16" id="Path-40" stroke="#C0343C" stroke-width="2"></path>
        <path d="M33.5,8 L33.5,13" id="Path-40-Copy" stroke="#C0343C" stroke-width="2"></path>
        <path d="M26.5,8 L26.5,11.5" id="Path-40-Copy-2" stroke="#C0343C" stroke-width="2"></path>
    </g>
</svg>