<svg xmlns="http://www.w3.org/2000/svg" xmlns:xlink="http://www.w3.org/1999/xlink" x="0px" y="0px" width="64px" height="64px" viewBox="0 0 64 64"><g stroke-width="2" transform="translate(0, 0)"><rect x="48" y="42" width="12" height="6" fill="none" stroke="#c0343c" stroke-linecap="square" stroke-miterlimit="10" stroke-width="2" data-color="color-2" stroke-linejoin="miter"></rect><line x1="54" y1="28" x2="54" y2="42" fill="none" stroke="#c0343c" stroke-linecap="square" stroke-miterlimit="10" stroke-width="2" data-color="color-2" stroke-linejoin="miter"></line><polyline points="23 23 23 59 14 59 14 23" fill="none" stroke="#c0343c" stroke-linecap="square" stroke-miterlimit="10" stroke-width="2" stroke-linejoin="miter"></polyline><line x1="6" y1="59" x2="31" y2="59" fill="none" stroke="#c0343c" stroke-linecap="square" stroke-miterlimit="10" stroke-width="2" stroke-linejoin="miter"></line><polyline points="27 14 60 17 60 23 4 23 4 16 10 14" fill="none" stroke="#c0343c" stroke-miterlimit="10" stroke-width="2" data-cap="butt" stroke-linecap="butt" stroke-linejoin="miter"></polyline><line x1="23" y1="23" x2="14" y2="32" fill="none" stroke="#c0343c" stroke-miterlimit="10" stroke-width="2" data-cap="butt" stroke-linecap="butt" stroke-linejoin="miter"></line><line x1="23" y1="41" x2="14" y2="50" fill="none" stroke="#c0343c" stroke-miterlimit="10" stroke-width="2" data-cap="butt" stroke-linecap="butt" stroke-linejoin="miter"></line><line x1="23" y1="41" x2="14" y2="32" fill="none" stroke="#c0343c" stroke-miterlimit="10" stroke-width="2" data-cap="butt" stroke-linecap="butt" stroke-linejoin="miter"></line><line x1="23" y1="59" x2="14" y2="50" fill="none" stroke="#c0343c" stroke-miterlimit="10" stroke-width="2" data-cap="butt" stroke-linecap="butt" stroke-linejoin="miter"></line><polyline points="10 23 10 5 24 5 27 14 27 23" fill="none" stroke="#c0343c" stroke-linecap="square" stroke-miterlimit="10" stroke-width="2" stroke-linejoin="miter"></polyline><path d="M16,5v5a4,4,0,0,0,4,4h7" fill="none" stroke="#c0343c" stroke-miterlimit="10" stroke-width="2" data-cap="butt" stroke-linecap="butt" stroke-linejoin="miter"></path></g></svg>