<svg xmlns="http://www.w3.org/2000/svg" xmlns:xlink="http://www.w3.org/1999/xlink" x="0px" y="0px" width="64px" height="64px" viewBox="0 0 64 64"><g stroke-width="2" transform="translate(0, 0)"><circle data-color="color-2" cx="13" cy="49" r="11" fill="none" stroke="#c0343c" stroke-linecap="square" stroke-miterlimit="10" stroke-width="2" stroke-linejoin="miter"></circle>
<circle data-color="color-2" cx="51" cy="49" r="11" fill="none" stroke="#c0343c" stroke-linecap="square" stroke-miterlimit="10" stroke-width="2" stroke-linejoin="miter"></circle>
<circle cx="46" cy="10" r="6" fill="none" stroke="#c0343c" stroke-linecap="square" stroke-miterlimit="10" stroke-width="2" stroke-linejoin="miter"></circle>
<path d="M53.638,24.761,46.1,24l-7.014-5.917a4.989,4.989,0,0,0-6.447.217l-11,10a5.066,5.066,0,0,0-.336,7.063c1.277,1.512,7.7,6.1,7.7,6.1V55a3,3,0,0,0,6,0V40a3,3,0,0,0-1.156-2.367l-4.1-3.191,9.351-8.5,3.965,3.351A3.005,3.005,0,0,0,45,30h8.374a2.626,2.626,0,0,0,.264-5.239Z" fill="none" stroke="#c0343c" stroke-linecap="square" stroke-miterlimit="10" stroke-width="2" stroke-linejoin="miter"></path></g></svg>