<svg xmlns="http://www.w3.org/2000/svg" xmlns:xlink="http://www.w3.org/1999/xlink" x="0px" y="0px" width="64px" height="64px" viewBox="0 0 64 64"><g stroke-width="2" transform="translate(0, 0)"><line x1="8" y1="36" x2="11.839" y2="36" fill="none" stroke="#c0343c" stroke-miterlimit="10" stroke-width="2" data-cap="butt" data-color="color-2" stroke-linecap="butt" stroke-linejoin="miter"></line>
  <line x1="4" y1="36" x2="8" y2="36" fill="none" stroke="#c0343c" stroke-linecap="square" stroke-miterlimit="10" stroke-width="2" data-color="color-2" stroke-linejoin="miter"></line>
  <line x1="8" y1="28" x2="8" y2="44" fill="none" stroke="#c0343c" stroke-linecap="square" stroke-miterlimit="10" stroke-width="2" data-color="color-2" stroke-linejoin="miter"></line>
  <line x1="56" y1="28" x2="56" y2="44" fill="none" stroke="#c0343c" stroke-linecap="square" stroke-miterlimit="10" stroke-width="2" data-color="color-2" stroke-linejoin="miter"></line>
  <line x1="56" y1="36" x2="60" y2="36" fill="none" stroke="#c0343c" stroke-linecap="square" stroke-miterlimit="10" stroke-width="2" data-color="color-2" stroke-linejoin="miter"></line>
  <line x1="52.166" y1="36" x2="56" y2="36" fill="none" stroke="#c0343c" stroke-miterlimit="10" stroke-width="2" data-cap="butt" data-color="color-2" stroke-linecap="butt" stroke-linejoin="miter"></line>
  <circle cx="32" cy="8" r="6" fill="none" stroke="#c0343c" stroke-linecap="square" stroke-miterlimit="10" stroke-width="2" stroke-linejoin="miter"></circle>
  <line x1="17.663" y1="36" x2="24" y2="36" fill="none" stroke="#c0343c" stroke-miterlimit="10" stroke-width="2" data-cap="butt" data-color="color-2" stroke-linecap="butt" stroke-linejoin="miter"></line>
  <line x1="46.337" y1="36" x2="40" y2="36" fill="none" stroke="#c0343c" stroke-miterlimit="10" stroke-width="2" data-cap="butt" data-color="color-2" stroke-linecap="butt" stroke-linejoin="miter"></line>
  <path d="M29.981,41.331l-2,18A3,3,0,0,1,25,62a2.907,2.907,0,0,1-.335-.019,3,3,0,0,1-2.65-3.312L23.957,41.22" fill="none" stroke="#c0343c" stroke-linecap="square" stroke-miterlimit="10" stroke-width="2" stroke-linejoin="miter"></path>
  <path d="M34.019,41.331l2,18A3,3,0,0,0,39,62a2.907,2.907,0,0,0,.335-.019,3,3,0,0,0,2.65-3.312L40.043,41.22" fill="none" stroke="#c0343c" stroke-linecap="square" stroke-miterlimit="10" stroke-width="2" stroke-linejoin="miter"></path>
  <path d="M40,36V28h.553l6.97,9.636a2.566,2.566,0,0,0,3.465.653h0a2.567,2.567,0,0,0,.77-3.546L42.523,20.378A3,3,0,0,0,40,19H24a3,3,0,0,0-2.523,1.378L12.242,34.743a2.567,2.567,0,0,0,.77,3.546h0a2.566,2.566,0,0,0,3.465-.653L23.447,28H24v8" fill="none" stroke="#c0343c" stroke-linecap="square" stroke-miterlimit="10" stroke-width="2" stroke-linejoin="miter"></path>
  <line x1="24" y1="36" x2="40" y2="36" fill="none" stroke="#c0343c" stroke-linecap="square" stroke-miterlimit="10" stroke-width="2" data-color="color-2" stroke-linejoin="miter"></line></g></svg>