<?xml version="1.0" encoding="UTF-8"?>
<svg width="60px" height="60px" viewBox="0 0 60 60" version="1.1" xmlns="http://www.w3.org/2000/svg" xmlns:xlink="http://www.w3.org/1999/xlink">
    <!-- Generator: Sketch 53.2 (72643) - https://sketchapp.com -->
    <title>Icons/icon-doubleheightlivingroom</title>
    <desc>Created with Sketch.</desc>
    <g id="Icons/icon-doubleheightlivingroom" stroke="none" stroke-width="1" fill="none" fill-rule="evenodd" stroke-linecap="round" stroke-linejoin="round">
        <g id="socket-europe-1" transform="translate(-1.000000, -1.000000)" stroke="#C0343C" stroke-width="2">
            <path d="M61,1 L1,1" id="Path"></path>
        </g>
        <g id="socket-europe-1-copy" transform="translate(-1.000000, 59.000000)" stroke="#C0343C" stroke-width="2">
            <path d="M61,1 L1,1" id="Path"></path>
        </g>
        <path d="M0,30 L14.1673873,30" id="Path-14" stroke="#C0343C" stroke-width="2"></path>
        <polyline id="Path-15" stroke="#C0343C" stroke-width="2" points="41 60 41 54 60 54"></polyline>
        <polyline id="Path-2" stroke="#C0343C" stroke-width="2" points="41 54 41 48 60 48"></polyline>
        <path d="M31,54 L37,54" id="Path-3" stroke="#C0343C" stroke-width="2"></path>
        <path d="M34,54 L34,59" id="Path-4" stroke="#C0343C" stroke-width="2"></path>
        <polygon id="Path-20" stroke="#C0343C" stroke-width="2" points="18 55 23 55 22 59 19 59"></polygon>
        <polyline id="Path-21" stroke="#C0343C" stroke-width="2" points="20.5 54.3051997 20.5 48.3051997 23 45.3051997"></polyline>
        <path d="M20.3812852,54.4545697 C19.5662007,46.662313 21.047269,49.7873901 16.932045,44.6698994" id="Path-5" stroke="#C0343C" stroke-width="2"></path>
        <polyline id="Path-7" stroke="#C0343C" stroke-width="2" points="28 60 28 17 60 17"></polyline>
        <path d="M34,21 L33,25" id="Path-8" stroke="#C0343C" stroke-width="2"></path>
        <path d="M38,21 L37,25" id="Path-8-Copy" stroke="#C0343C" stroke-width="2"></path>
        <path d="M20.2706595,48.2833418 C20.6162614,46.1888946 20.9618634,44.0944473 21.3074654,42" id="Path-6" stroke="#C0343C" stroke-width="2"></path>
    </g>
</svg>