<?xml version="1.0" encoding="UTF-8"?>
<svg width="60px" height="60px" viewBox="0 0 60 60" version="1.1" xmlns="http://www.w3.org/2000/svg" xmlns:xlink="http://www.w3.org/1999/xlink">
    <!-- Generator: Sketch 53.2 (72643) - https://sketchapp.com -->
    <title>Icons/icon-elderlyjackfruit</title>
    <desc>Created with Sketch.</desc>
    <g id="Icons/icon-elderlyjackfruit" stroke="none" stroke-width="1" fill="none" fill-rule="evenodd" stroke-linecap="round" stroke-linejoin="round">
        <g id="socket-europe-1-copy-2" transform="translate(0.000000, 59.000000)" stroke="#C0343C" stroke-width="2">
            <path d="M59.5081967,1 L0.491803279,1" id="Path"></path>
        </g>
        <polyline id="Path-19-Copy" stroke="#C0343C" stroke-width="2" points="42 59.5 42 25.3987187 47.25 21"></polyline>
        <polyline id="Path-19-Copy-2" stroke="#C0343C" stroke-width="2" transform="translate(37.250000, 39.000000) scale(-1, 1) translate(-37.250000, -39.000000) " points="36.5 48 36.6278525 33 38 30"></polyline>
        <path d="M37.8721475,55.1504691 C37.8625936,56.5910431 37.8530398,58.031617 37.8434859,59.472191" id="Path-31" stroke="#C0343C" stroke-width="2"></path>
        <path d="M25.0902756,10.95908 C25.8192107,4.78252423 30.8734365,0 37,0 C42.8465557,0 47.7165537,4.35535423 48.7829849,10.1212613 C55.1190734,10.9903295 60,16.425164 60,23 C60,30.1797017 54.1797017,36 47,36 L30,36 C22.8202983,36 17,30.1797017 17,23 C17,17.5575258 20.3444537,12.8961907 25.0902756,10.95908 Z" id="Combined-Shape-Copy" stroke="#C0343C" stroke-width="2"></path>
        <path d="M23.1227667,23.329891 C23.0430816,23.0367573 23,22.7237753 23,22.3987187 C23,20.7418644 24.1192881,19.3987187 25.5,19.3987187 C26.8807119,19.3987187 28,20.7418644 28,22.3987187 C28,22.7237753 27.9569184,23.0367573 27.8772333,23.329891 C28.5677439,23.9692069 29,24.8834834 29,25.8987187 C29,27.8317153 27.4329966,29.3987187 25.5,29.3987187 C23.5670034,29.3987187 22,27.8317153 22,25.8987187 C22,24.8834834 22.4322561,23.9692069 23.1227667,23.329891 Z" id="Combined-Shape" stroke="#C0343C" stroke-width="2"></path>
        <path d="M36.3804292,51.1736964 C36.1411229,50.8440517 36,50.4385063 36,50 C36,48.8954305 36.8954305,48 38,48 C39.1045695,48 40,48.8954305 40,50 C40,50.1585996 39.9815392,50.3128874 39.9466493,50.4608319 C40.5841182,50.9138905 41,51.6583781 41,52.5 C41,53.8807119 39.8807119,55 38.5,55 C37.1192881,55 36,53.8807119 36,52.5 C36,52.0127812 36.1393747,51.558115 36.3804292,51.1736964 Z" id="Combined-Shape-Copy-3" stroke="#C0343C" stroke-width="2"></path>
        <path d="M43.0015211,38.5984103 C43.0005102,38.5657636 43,38.5329563 43,38.5 C43,37.1192881 43.8954305,36 45,36 C46.1045695,36 47,37.1192881 47,38.5 C47,38.9354688 46.9109283,39.3449329 46.7543161,39.7014781 C46.9117776,40.0944054 47,40.5348394 47,41 C47,42.6568542 45.8807119,44 44.5,44 C43.1192881,44 42,42.6568542 42,41 C42,40.01769 42.3934327,39.1456493 43.0015211,38.5984103 Z" id="Combined-Shape-Copy-2" stroke="#C0343C" stroke-width="2"></path>
        <path d="M25.3433949,19.2710497 C25.888772,18.1806998 26.4341491,17.0903499 26.9795262,16" id="Path-32" stroke="#C0343C" stroke-width="2"></path>
    </g>
</svg>