<svg xmlns="http://www.w3.org/2000/svg" xmlns:xlink="http://www.w3.org/1999/xlink" x="0px" y="0px" width="64px" height="64px" viewBox="0 0 64 64"><g stroke-width="2" transform="translate(0, 0)"><path d="M20.991,47.8,23.2,49.588l1.839,9.264A2.495,2.495,0,0,0,30,58.5c0-.121-1.03-10.924-1.03-10.924a3,3,0,0,0-1.079-1.906L24,42.515" fill="none" stroke="#c0343c" stroke-linejoin="miter" stroke-width="2" data-cap="butt" stroke-linecap="butt"></path><line x1="54" y1="49" x2="38" y2="49" fill="none" stroke="#c0343c" stroke-linecap="square" stroke-miterlimit="10" stroke-width="2" data-color="color-2" stroke-linejoin="miter"></line><circle cx="35" cy="9" r="6" fill="none" stroke="#c0343c" stroke-linecap="square" stroke-linejoin="miter" stroke-width="2"></circle><circle cx="54" cy="59" r="3" fill="none" stroke="#c0343c" stroke-linecap="square" stroke-miterlimit="10" stroke-width="2" data-color="color-2" stroke-linejoin="miter"></circle><path d="M54,56V43a7.976,7.976,0,0,0-2.826-6.095" fill="none" stroke="#c0343c" stroke-linecap="square" stroke-miterlimit="10" stroke-width="2" data-color="color-2" stroke-linejoin="miter"></path><path d="M38.616,39.922A7.961,7.961,0,0,0,38,43V61" fill="none" stroke="#c0343c" stroke-linecap="square" stroke-miterlimit="10" stroke-width="2" data-color="color-2" stroke-linejoin="miter"></path><path d="M45.134,31.091l-8.287-2.707-5.671-8.092a4.948,4.948,0,0,0-.975-1.133,5,5,0,0,0-7.042.64l-10,12a4.979,4.979,0,0,0-.85,4.876l2.576,11.184-2.752,9.852.006,0A2.474,2.474,0,0,0,12,58.5a2.493,2.493,0,0,0,4.861.787h0l3.982-10.339a3,3,0,0,0,.074-1.637l-1.691-7.177,10.1-12.121,3.192,4.677a3,3,0,0,0,1.714,1.21l9.63,2.008a2.491,2.491,0,1,0,1.268-4.818Z" fill="none" stroke="#c0343c" stroke-linecap="square" stroke-linejoin="miter" stroke-width="2"></path></g></svg>