<?xml version="1.0" encoding="UTF-8"?>
<svg width="60px" height="60px" viewBox="0 0 60 60" version="1.1" xmlns="http://www.w3.org/2000/svg" xmlns:xlink="http://www.w3.org/1999/xlink">
    <!-- Generator: Sketch 53.2 (72643) - https://sketchapp.com -->
    <title>Icons/icon-exposedsoil</title>
    <desc>Created with Sketch.</desc>
    <g id="Icons/icon-exposedsoil" stroke="none" stroke-width="1" fill="none" fill-rule="evenodd" stroke-linecap="round" stroke-linejoin="round">
        <polyline id="Path-18" stroke="#C0343C" stroke-width="2" points="29 0 31.5 2.5 29 5 31.5 7.5 29 10 31.5 12.5 29 15 31.5 17.5 29 20 31.5 22.5 29 25 32 28 29 31 26 28 23 31 20 28 17 31 14 28 11 31 8 28 5 31 2 28 0 30"></polyline>
        <ellipse id="Oval" stroke="#C0343C" stroke-width="2" cx="43.5" cy="5" rx="1" ry="1"></ellipse>
        <ellipse id="Oval-Copy-6" stroke="#C0343C" stroke-width="2" cx="43.5" cy="31" rx="1" ry="1"></ellipse>
        <ellipse id="Oval-Copy-12" stroke="#C0343C" stroke-width="2" cx="43.5" cy="57" rx="1" ry="1"></ellipse>
        <ellipse id="Oval-Copy-13" stroke="#C0343C" stroke-width="2" cx="19.5" cy="57" rx="1" ry="1"></ellipse>
        <ellipse id="Oval-Copy-23" stroke="#C0343C" stroke-width="2" cx="7.5" cy="57" rx="1" ry="1"></ellipse>
        <ellipse id="Oval-Copy-3" stroke="#C0343C" stroke-width="2" cx="43.5" cy="18.5" rx="1" ry="1"></ellipse>
        <ellipse id="Oval-Copy-7" stroke="#C0343C" stroke-width="2" cx="43.5" cy="44.5" rx="1" ry="1"></ellipse>
        <ellipse id="Oval-Copy-15" stroke="#C0343C" stroke-width="2" cx="19.5" cy="44.5" rx="1" ry="1"></ellipse>
        <ellipse id="Oval-Copy-24" stroke="#C0343C" stroke-width="2" cx="7.5" cy="44.5" rx="1" ry="1"></ellipse>
        <ellipse id="Oval-Copy" stroke="#C0343C" stroke-width="2" cx="49.5" cy="11.5" rx="1" ry="1"></ellipse>
        <ellipse id="Oval-Copy-8" stroke="#C0343C" stroke-width="2" cx="49.5" cy="37.5" rx="1" ry="1"></ellipse>
        <ellipse id="Oval-Copy-17" stroke="#C0343C" stroke-width="2" cx="25.5" cy="37.5" rx="1" ry="1"></ellipse>
        <ellipse id="Oval-Copy-4" stroke="#C0343C" stroke-width="2" cx="49.5" cy="25" rx="1" ry="1"></ellipse>
        <ellipse id="Oval-Copy-9" stroke="#C0343C" stroke-width="2" cx="49.5" cy="51" rx="1" ry="1"></ellipse>
        <ellipse id="Oval-Copy-19" stroke="#C0343C" stroke-width="2" cx="25.5" cy="51" rx="1" ry="1"></ellipse>
        <ellipse id="Oval-Copy-2" stroke="#C0343C" stroke-width="2" cx="37.5" cy="11.5" rx="1" ry="1"></ellipse>
        <ellipse id="Oval-Copy-10" stroke="#C0343C" stroke-width="2" cx="37.5" cy="37.5" rx="1" ry="1"></ellipse>
        <ellipse id="Oval-Copy-20" stroke="#C0343C" stroke-width="2" cx="13.5" cy="37.5" rx="1" ry="1"></ellipse>
        <ellipse id="Oval-Copy-21" stroke="#C0343C" stroke-width="2" cx="1.5" cy="37.5" rx="1" ry="1"></ellipse>
        <ellipse id="Oval-Copy-5" stroke="#C0343C" stroke-width="2" cx="37.5" cy="24.5" rx="1" ry="1"></ellipse>
        <ellipse id="Oval-Copy-11" stroke="#C0343C" stroke-width="2" cx="37.5" cy="50.5" rx="1" ry="1"></ellipse>
        <ellipse id="Oval-Copy-22" stroke="#C0343C" stroke-width="2" cx="13.5" cy="50.5" rx="1" ry="1"></ellipse>
        <ellipse id="Oval-Copy-25" stroke="#C0343C" stroke-width="2" cx="1.5" cy="50.5" rx="1" ry="1"></ellipse>
        <ellipse id="Oval-Copy-30" stroke="#C0343C" stroke-width="2" cx="55.5" cy="5" rx="1" ry="1"></ellipse>
        <ellipse id="Oval-Copy-34" stroke="#C0343C" stroke-width="2" cx="55.5" cy="31" rx="1" ry="1"></ellipse>
        <ellipse id="Oval-Copy-38" stroke="#C0343C" stroke-width="2" cx="55.5" cy="57" rx="1" ry="1"></ellipse>
        <ellipse id="Oval-Copy-39" stroke="#C0343C" stroke-width="2" cx="31.5" cy="57" rx="1" ry="1"></ellipse>
        <ellipse id="Oval-Copy-32" stroke="#C0343C" stroke-width="2" cx="55.5" cy="18.5" rx="1" ry="1"></ellipse>
        <ellipse id="Oval-Copy-35" stroke="#C0343C" stroke-width="2" cx="55.5" cy="44.5" rx="1" ry="1"></ellipse>
        <ellipse id="Oval-Copy-41" stroke="#C0343C" stroke-width="2" cx="31.5" cy="44.5" rx="1" ry="1"></ellipse>
    </g>
</svg>