<svg xmlns="http://www.w3.org/2000/svg" xmlns:xlink="http://www.w3.org/1999/xlink" x="0px" y="0px" width="64px" height="64px" viewBox="0 0 64 64"><g stroke-width="2" transform="translate(0, 0)"><path d="M57,35V30a4,4,0,0,0-4-4H31a4,4,0,0,0-4,4v5" fill="none" stroke="#c0343c" stroke-linecap="square" stroke-miterlimit="10" stroke-width="2" stroke-linejoin="miter"></path><path d="M52,45v4H32V45a5,5,0,0,0-5-5h0a5,5,0,0,0-5,5V58H62V45a5,5,0,0,0-5-5h0A5,5,0,0,0,52,45Z" fill="none" stroke="#c0343c" stroke-linecap="square" stroke-miterlimit="10" stroke-width="2" stroke-linejoin="miter"></path><line x1="26" y1="58" x2="26" y2="62" fill="none" stroke="#c0343c" stroke-linecap="square" stroke-miterlimit="10" stroke-width="2" stroke-linejoin="miter"></line><line x1="58" y1="58" x2="58" y2="62" fill="none" stroke="#c0343c" stroke-linecap="square" stroke-miterlimit="10" stroke-width="2" stroke-linejoin="miter"></line><line x1="12" y1="62" x2="12" y2="24" fill="none" stroke="#c0343c" stroke-linecap="square" stroke-miterlimit="10" stroke-width="2" data-color="color-2" stroke-linejoin="miter"></line><polygon points="17 3 7 3 2 17 2 19 22 19 22 17 17 3" fill="none" stroke="#c0343c" stroke-linecap="square" stroke-miterlimit="10" stroke-width="2" data-color="color-2" stroke-linejoin="miter"></polygon><line x1="18" y1="62" x2="6" y2="62" fill="none" stroke="#c0343c" stroke-linecap="square" stroke-miterlimit="10" stroke-width="2" data-color="color-2" stroke-linejoin="miter"></line></g></svg>