<?xml version="1.0" encoding="utf-8"?>
<!-- Generator: Adobe Illustrator 24.1.0, SVG Export Plug-In . SVG Version: 6.00 Build 0)  -->
<svg version="1.1" id="Layer_1" xmlns="http://www.w3.org/2000/svg" xmlns:xlink="http://www.w3.org/1999/xlink" x="0px" y="0px"
	 width="64px" height="64px" viewBox="0 0 64 64" style="enable-background:new 0 0 64 64;" xml:space="preserve">
<style type="text/css">
	.st0{fill:none;stroke:#C0343C;stroke-width:2;stroke-linecap:square;stroke-miterlimit:10;}
	.st1{clip-path:url(#SVGID_2_);}
	.st2{fill:none;stroke:#C0343C;stroke-miterlimit:10;}
</style>
<polygon class="st0" points="61,21 3,21 3,15 32,3 61,15 "/>
<rect x="6" y="21" class="st0" width="4" height="40"/>
<rect x="54" y="21" class="st0" width="4" height="40"/>
<rect x="30" y="21" class="st0" width="4" height="40"/>
<rect x="18" y="47" transform="matrix(-1.836970e-16 1 -1 -1.836970e-16 77 37)" class="st0" width="4" height="20"/>
<rect x="18" y="28" transform="matrix(-1.836970e-16 1 -1 -1.836970e-16 58 18)" class="st0" width="4" height="20"/>
<g>
	<defs>
		<rect id="SVGID_1_" x="10" y="40" width="20" height="15"/>
	</defs>
	<clipPath id="SVGID_2_">
		<use xlink:href="#SVGID_1_"  style="overflow:visible;"/>
	</clipPath>
	<g class="st1">
		<line class="st2" x1="10" y1="40" x2="25" y2="55"/>
		<line class="st2" x1="5" y1="40" x2="20" y2="55"/>
		<line class="st2" x1="0" y1="40" x2="15" y2="55"/>
		<line class="st2" x1="15" y1="40" x2="30" y2="55"/>
		<line class="st2" x1="20" y1="40" x2="35" y2="55"/>
		<line class="st2" x1="25" y1="40" x2="40" y2="55"/>
		<line class="st2" x1="30" y1="40" x2="15" y2="55"/>
		<line class="st2" x1="35" y1="40" x2="20" y2="55"/>
		<line class="st2" x1="40" y1="40" x2="25" y2="55"/>
		<line class="st2" x1="25" y1="40" x2="10" y2="55"/>
		<line class="st2" x1="20" y1="40" x2="5" y2="55"/>
		<line class="st2" x1="15" y1="40" x2="0" y2="55"/>
	</g>
</g>
</svg>
