<svg xmlns="http://www.w3.org/2000/svg" xmlns:xlink="http://www.w3.org/1999/xlink" x="0px" y="0px" width="64px" height="64px" viewBox="0 0 64 64"><g stroke-width="2" transform="translate(0, 0)"><circle cx="32" cy="32" r="22" fill="none" stroke="#c0343c" stroke-linecap="square" stroke-miterlimit="10" stroke-width="2" stroke-linejoin="miter"></circle>
<line x1="32" y1="2" x2="32" y2="10" fill="none" stroke="#c0343c" stroke-linecap="square" stroke-miterlimit="10" stroke-width="2" stroke-linejoin="miter"></line>
<line x1="9" y1="9" x2="13" y2="13" fill="none" stroke="#c0343c" stroke-linecap="square" stroke-miterlimit="10" stroke-width="2" stroke-linejoin="miter"></line>
<line x1="55" y1="9" x2="51" y2="13" fill="none" stroke="#c0343c" stroke-linecap="square" stroke-miterlimit="10" stroke-width="2" stroke-linejoin="miter"></line>
<line x1="55" y1="55" x2="51" y2="51" fill="none" stroke="#c0343c" stroke-linecap="square" stroke-miterlimit="10" stroke-width="2" stroke-linejoin="miter"></line>
<line x1="9" y1="55" x2="13" y2="51" fill="none" stroke="#c0343c" stroke-linecap="square" stroke-miterlimit="10" stroke-width="2" stroke-linejoin="miter"></line>
<line x1="62" y1="32" x2="54" y2="32" fill="none" stroke="#c0343c" stroke-linecap="square" stroke-miterlimit="10" stroke-width="2" stroke-linejoin="miter"></line>
<line x1="32" y1="62" x2="32" y2="54" fill="none" stroke="#c0343c" stroke-linecap="square" stroke-miterlimit="10" stroke-width="2" stroke-linejoin="miter"></line>
<line x1="2" y1="32" x2="10" y2="32" fill="none" stroke="#c0343c" stroke-linecap="square" stroke-miterlimit="10" stroke-width="2" stroke-linejoin="miter"></line>
<path data-color="color-2" d="M23.338,39a10,10,0,0,0,17.324,0" fill="none" stroke="#c0343c" stroke-linecap="square" stroke-miterlimit="10" stroke-width="2" stroke-linejoin="miter"></path>
<circle data-color="color-2" cx="21.5" cy="29.5" r="2.5" fill="none" stroke="#c0343c" stroke-linecap="square" stroke-miterlimit="10" stroke-width="2" stroke-linejoin="miter"></circle>
<circle data-color="color-2" cx="42.5" cy="29.5" r="2.5" fill="none" stroke="#c0343c" stroke-linecap="square" stroke-miterlimit="10" stroke-width="2" stroke-linejoin="miter"></circle>
<circle data-color="color-2" data-stroke="none" cx="21.5" cy="29.5" r="2.5" fill="#c0343c"></circle>
<circle data-color="color-2" data-stroke="none" cx="42.5" cy="29.5" r="2.5" fill="#c0343c"></circle></g></svg>