<?xml version="1.0" encoding="UTF-8"?>
<svg width="60px" height="60px" viewBox="0 0 60 60" version="1.1" xmlns="http://www.w3.org/2000/svg" xmlns:xlink="http://www.w3.org/1999/xlink">
    <!-- Generator: Sketch 53.2 (72643) - https://sketchapp.com -->
    <title>Icons/icons-indoorgames</title>
    <desc>Created with Sketch.</desc>
    <g id="Icons/icons-indoorgames" stroke="none" stroke-width="1" fill="none" fill-rule="evenodd" stroke-linecap="round" stroke-linejoin="round">
        <g id="table-tennis-bat" transform="translate(-1.000000, 1.000000)" stroke="#C0343C" stroke-width="2">
            <circle id="Oval" cx="51.5" cy="36" r="7.5"></circle>
            <path d="M58.18,25 C60.113,17.9 58.647,10.464 53.591,5.409 C45.605,-2.577 31.691,-1.608 22.506,7.574 C14.65,15.431 12.828,26.744 17.464,34.853 L1.994,47.722 C1.39735215,48.2191495 1.03738528,48.9443755 1.00218959,49.7202024 C0.966993912,50.4960294 1.25981704,51.2508695 1.809,51.8 L7.2,57.191 C7.74910138,57.7398474 8.50371374,58.0324563 9.27928275,57.9972637 C10.0548518,57.962071 10.7798624,57.6023221 11.277,57.006 L24.169,41.548 C28.9142739,44.1313256 34.4799999,44.762017 39.683,43.306 L15.7,19.31" id="Path"></path>
        </g>
    </g>
</svg>