<svg xmlns="http://www.w3.org/2000/svg" xmlns:xlink="http://www.w3.org/1999/xlink" x="0px" y="0px" width="64px" height="64px" viewBox="0 0 64 64"><g stroke-width="2" transform="translate(0, 0)"><path d="M41.387,38.587l-4.564,5.7A48.167,48.167,0,0,1,19.709,27.179l5.705-4.564a3.877,3.877,0,0,0,1.12-4.6l-5.2-11.71a3.878,3.878,0,0,0-4.52-2.18l-9.9,2.568A3.9,3.9,0,0,0,4.037,11,57.521,57.521,0,0,0,53,59.963a3.9,3.9,0,0,0,4.307-2.877l2.568-9.9a3.881,3.881,0,0,0-2.179-4.52l-11.709-5.2A3.874,3.874,0,0,0,41.387,38.587Z" fill="none" stroke="#c0343c" stroke-linecap="square" stroke-miterlimit="10" stroke-width="2" stroke-linejoin="miter"></path><path data-color="color-2" d="M35,5A24,24,0,0,1,59,29" fill="none" stroke="#c0343c" stroke-linecap="square" stroke-miterlimit="10" stroke-width="2" stroke-linejoin="miter"></path><path data-color="color-2" d="M47,29A12,12,0,0,0,35,17" fill="none" stroke="#c0343c" stroke-linecap="square" stroke-miterlimit="10" stroke-width="2" stroke-linejoin="miter"></path></g></svg>