<?xml version="1.0" encoding="UTF-8"?>
<svg width="60px" height="60px" viewBox="0 0 60 60" version="1.1" xmlns="http://www.w3.org/2000/svg" xmlns:xlink="http://www.w3.org/1999/xlink">
    <!-- Generator: Sketch 53.2 (72643) - https://sketchapp.com -->
    <title>Icons/icons-jogging</title>
    <desc>Created with Sketch.</desc>
    <g id="Icons/icons-jogging" stroke="none" stroke-width="1" fill="none" fill-rule="evenodd" stroke-linecap="round" stroke-linejoin="round">
        <g id="walk" transform="translate(9.000000, 0.000000)" stroke="#C0343C" stroke-width="2">
            <path d="M20.5,35.227 L30.012,43.771 C30.642022,44.3406378 31.0010536,45.1506392 31,46 L31,57 C31,58.6568542 29.6568542,60 28,60 L28,60 C26.3431458,60 25,58.6568542 25,57 L25,47.336 L18.109,43.367" id="Path"></path>
            <circle id="Oval" cx="22.5" cy="6.5" r="6.5"></circle>
            <path d="M12.489,25.683 L9,26 L6.977,32.068 C6.71799512,32.8456943 6.16060094,33.4886119 5.42748531,33.8552635 C4.69436967,34.221915 3.84561143,34.2822535 3.068,34.023 L3.068,34.023 C2.26734005,33.7561753 1.61065671,33.1734751 1.25047775,32.4102432 C0.890298779,31.6470114 0.857969852,30.7696703 1.161,29.982 L4.417,21.517 C4.78083808,20.5714315 5.59735824,19.8733838 6.588,19.661 L17.315,17.129" id="Path"></path>
            <path d="M41.91,26.272 C41.7170656,25.500081 41.225384,24.8364235 40.5431236,24.4270298 C39.8608631,24.017636 39.0439132,23.8960427 38.272,24.089 L31.349,25.82 L21.784,18.095 C20.2038855,16.9123523 18.1106201,16.6687076 16.3011195,17.4568227 C14.491619,18.2449377 13.2442913,19.9435538 13.034,21.906 L8.051,56.5 C7.78163415,58.0535695 8.76578747,59.5490723 10.2991776,59.9162928 C11.8325676,60.2835133 13.3873994,59.3960536 13.851,57.889 L22.784,27.42 L29.226,31.32 C30.137604,31.8703102 31.2310053,32.0344283 32.264,31.776 L39.726,29.91 C40.4981037,29.7172847 41.162003,29.2256941 41.5715995,28.5434083 C41.981196,27.8611225 42.1029255,27.0440512 41.91,26.272 L41.91,26.272 Z" id="Path"></path>
        </g>
    </g>
</svg>