<?xml version="1.0" encoding="UTF-8"?>
<svg width="60px" height="60px" viewBox="0 0 60 60" version="1.1" xmlns="http://www.w3.org/2000/svg" xmlns:xlink="http://www.w3.org/1999/xlink">
    <!-- Generator: Sketch 53.2 (72643) - https://sketchapp.com -->
    <title>Icons/icon-optforalargekitchenisland</title>
    <desc>Created with Sketch.</desc>
    <g id="Icons/icon-optforalargekitchenisland" stroke="none" stroke-width="1" fill="none" fill-rule="evenodd" stroke-linecap="round" stroke-linejoin="round">
        <rect id="Rectangle" stroke="#C0343C" stroke-width="2" x="0" y="35" width="60" height="25"></rect>
        <path d="M16.5,35.5 L16.5,59.5" id="Line" stroke="#C0343C" stroke-width="2"></path>
        <path d="M43.5,35.5 L43.5,59.5" id="Line-Copy" stroke="#C0343C" stroke-width="2"></path>
        <path d="M16.5,40.5 L43.5,40.5" id="Line-2" stroke="#C0343C" stroke-width="2"></path>
        <path d="M43.5,44.5 L59.3103141,44.5" id="Line-3" stroke="#C0343C" stroke-width="2"></path>
        <path d="M47,34.4051571 L47,29.4051571 C46.9019249,26.4683857 48.3703106,25 51.4051571,25 C54.4400036,25 56.0075297,26.5675262 56.1077356,29.7025785" id="Path-47" stroke="#C0343C" stroke-width="2"></path>
        <rect id="Rectangle" stroke="#C0343C" stroke-width="2" x="20" y="44" width="20" height="13"></rect>
        <path d="M24.5,46.5 L22.5724675,48.4275325" id="Line-4" stroke="#C0343C" stroke-width="2"></path>
        <path d="M27.5,46.5 L25.5724675,48.4275325" id="Line-4-Copy" stroke="#C0343C" stroke-width="2"></path>
        <polyline id="Path-35" stroke="#C0343C" stroke-width="2" points="26 0 26 10 34 10 34 0"></polyline>
        <rect id="Rectangle" stroke="#C0343C" stroke-width="2" x="19" y="10" width="23" height="3" rx="1.5"></rect>
    </g>
</svg>