<?xml version="1.0" encoding="UTF-8"?>
<svg width="60px" height="60px" viewBox="0 0 60 60" version="1.1" xmlns="http://www.w3.org/2000/svg" xmlns:xlink="http://www.w3.org/1999/xlink">
    <!-- Generator: Sketch 53.2 (72643) - https://sketchapp.com -->
    <title>Icons/icon-optionallift</title>
    <desc>Created with Sketch.</desc>
    <g id="Icons/icon-optionallift" stroke="none" stroke-width="1" fill="none" fill-rule="evenodd" stroke-linecap="round" stroke-linejoin="round">
        <g id="socket-europe-1-copy-2" transform="translate(0.000000, 59.000000)" stroke="#C0343C" stroke-width="2">
            <path d="M59.5081967,1 L0.491803279,1" id="Path"></path>
        </g>
        <circle id="Oval" stroke="#C0343C" stroke-width="2" cx="30.5" cy="28.5" r="2.5"></circle>
        <rect id="Rectangle" stroke="#C0343C" stroke-width="2" x="11" y="16" width="38" height="44" rx="2"></rect>
        <path d="M30.5,16 L30.5,22.5162456" id="Line" stroke="#C0343C" stroke-width="2"></path>
        <path d="M30.5,55 L30.5,59" id="Line-Copy" stroke="#C0343C" stroke-width="2"></path>
        <path d="M33,44.3292943 L33,49.5 C33,50.8807119 31.8807119,52 30.5,52 C29.1192881,52 28,50.8807119 28,49.5 L28,44.3292943 C26.8348076,43.9174579 26,42.8062188 26,41.5 L26,35.5 C26,33.8431458 27.3431458,32.5 29,32.5 L32,32.5 C33.6568542,32.5 35,33.8431458 35,35.5 L35,41.5 C35,42.8062188 34.1651924,43.9174579 33,44.3292943 Z" id="Combined-Shape" stroke="#C0343C" stroke-width="2"></path>
        <g id="Arrow" transform="translate(20.500000, 5.000000) rotate(180.000000) translate(-20.500000, -5.000000) translate(16.000000, 0.000000)" stroke="#C0343C" stroke-width="2">
            <polyline id="Path-30" transform="translate(4.500000, 7.500000) rotate(90.000000) translate(-4.500000, -7.500000) " points="2.25 3 6.75 7.5 2.25 12"></polyline>
            <path d="M8.5,4.75 L0,4.75" id="Path-22-Copy-3" transform="translate(4.500000, 4.750000) rotate(-90.000000) translate(-4.500000, -4.750000) "></path>
        </g>
        <g id="Arrow" transform="translate(35.000000, 0.000000)" stroke="#C0343C" stroke-width="2">
            <polyline id="Path-30" transform="translate(4.500000, 7.500000) rotate(90.000000) translate(-4.500000, -7.500000) " points="2.25 3 6.75 7.5 2.25 12"></polyline>
            <path d="M8.5,4.75 L0,4.75" id="Path-22-Copy-3" transform="translate(4.500000, 4.750000) rotate(-90.000000) translate(-4.500000, -4.750000) "></path>
        </g>
    </g>
</svg>