<svg xmlns="http://www.w3.org/2000/svg" xmlns:xlink="http://www.w3.org/1999/xlink" x="0px" y="0px" width="64px" height="64px" viewBox="0 0 64 64"><g stroke-width="2" transform="translate(0, 0)"><line x1="11" y1="11" x2="53" y2="11" fill="none" stroke="#c0343c" stroke-linecap="square" stroke-miterlimit="10" stroke-width="2" stroke-linejoin="miter"></line><line x1="11" y1="51" x2="53" y2="51" fill="none" stroke="#c0343c" stroke-linecap="square" stroke-miterlimit="10" stroke-width="2" stroke-linejoin="miter"></line><path d="M48,62H16a5,5,0,0,1-5-5V7a5,5,0,0,1,5-5H48a5,5,0,0,1,5,5V57A5,5,0,0,1,48,62Z" fill="none" stroke="#c0343c" stroke-linecap="square" stroke-miterlimit="10" stroke-width="2" stroke-linejoin="miter"></path><line x1="32" y1="17" x2="32" y2="45" fill="none" stroke="#c0343c" stroke-linecap="square" stroke-miterlimit="10" stroke-width="2" data-color="color-2" stroke-linejoin="miter"></line><path d="M38.75,21.438C35.508,19.655,25.3,18.326,25.3,24.464c0,7.348,12.967,4.755,12.967,11.238S29.835,41.7,24,39.591" fill="none" stroke="#c0343c" stroke-linecap="square" stroke-miterlimit="10" stroke-width="2" data-color="color-2" stroke-linejoin="miter"></path></g></svg>