<?xml version="1.0" encoding="UTF-8"?>
<svg width="60px" height="60px" viewBox="0 0 60 60" version="1.1" xmlns="http://www.w3.org/2000/svg" xmlns:xlink="http://www.w3.org/1999/xlink">
    <!-- Generator: Sketch 53.2 (72643) - https://sketchapp.com -->
    <title>Icons/icon-multipurposehall</title>
    <desc>Created with Sketch.</desc>
    <g id="Icons/icon-multipurposehall" stroke="none" stroke-width="1" fill="none" fill-rule="evenodd" stroke-linecap="round" stroke-linejoin="round">
        <path d="M46.9640818,8.98309049 L46.9640818,8.73943833 C46.9640818,6.90847546 46.9640051,5.07759023 46.9640818,3.24670501 C46.9641584,2.69658534 47.2637246,2.30921102 47.7926234,2.19429541 C50.6317165,1.57716751 53.4715764,0.962912507 56.3110529,0.347648108 C56.8030714,0.241040584 57.2955499,0.136529493 57.7868783,0.0268161417 C58.4337787,-0.11760483 58.9995578,0.337243586 58.9995578,1.00810229 C58.9999412,5.62095473 59.0004779,10.2338072 58.9991745,14.8466596 C58.9987911,16.4653392 57.7066004,17.8498394 56.1100131,17.988204 C54.2211436,18.1518034 52.6007106,16.5922899 52.6748546,14.640355 C52.7305967,13.1765009 53.9060892,11.8512444 55.338057,11.6419893 C56.1160703,11.528316 56.8328977,11.6826756 57.5045638,12.0841038 C57.5360769,12.1028941 57.5678201,12.1214514 57.6188851,12.1516556 L57.6188851,4.62250888 C54.5203264,5.29779339 51.4343423,5.97020502 48.3367804,6.64517895 L48.3367804,6.88914168 C48.3367804,8.46775608 48.339694,10.0463705 48.3358603,11.6249849 C48.3324866,12.979048 47.4567903,14.2165649 46.2091474,14.6434608 C44.2784138,15.304148 42.2874909,14.0409303 42.0238082,11.9880561 C41.8103472,10.3260502 43.0592936,8.6805829 44.6859373,8.45882683 C45.5003709,8.34771586 46.2410438,8.52870795 46.9640818,8.98309049" id="Fill-1" stroke="#C0343C" stroke-width="2"></path>
        <g id="cake-100" transform="translate(0.000000, 16.000000)" stroke="#C0343C" stroke-width="2">
            <path d="M23,9 C24.65675,9 26,7.65675 26,6 C26,4.34325 23,0 23,0 C23,0 20,4.34325 20,6 C20,7.65675 21.34325,9 23,9 Z" id="Path"></path>
            <path d="M9,10 C10.1046667,10 11,8.95544444 11,7.66666667 C11,6.37788889 9,3 9,3 C9,3 7,6.37788889 7,7.66666667 C7,8.95544444 7.89533333,10 9,10 Z" id="Path"></path>
            <path d="M37,10 C35.8953333,10 35,8.95544444 35,7.66666667 C35,6.37788889 37,3 37,3 C37,3 39,6.37788889 39,7.66666667 C39,8.95544444 38.1046667,10 37,10 Z" id="Path"></path>
            <path d="M0,30 C0,33.3139198 2.84059469,36 6.34514484,36 C8.75255842,36 10.8218607,34.7167714 11.8967632,32.8484775 C12.9716657,34.7167714 15.040968,36 17.4483816,36 C19.8557952,36 21.9250975,34.7167714 23,32.8484775 C24.0749025,34.7167714 26.1442048,36 28.5516184,36 C30.959032,36 33.0283343,34.7167714 34.1032368,32.8484775 C35.1781393,34.7167714 37.2474416,36 39.6548552,36 C43.1594053,36 46,33.3139198 46,30" id="Path"></path>
            <path d="M42.9333333,26 L3.06666667,26 C1.3731,26 0,27.3839545 0,29.0909091 L0,43 L46,43 L46,29.0909091 C46,27.3839545 44.6269,26 42.9333333,26 Z" id="Path"></path>
            <path d="M40,22 L40,19 C40,17.34325 38.65675,16 37,16 L10,16 C8.34325,16 7,17.34325 7,19 L7,22" id="Path"></path>
        </g>
    </g>
</svg>