<?xml version="1.0" encoding="UTF-8"?>
<svg width="60px" height="60px" viewBox="0 0 60 60" version="1.1" xmlns="http://www.w3.org/2000/svg" xmlns:xlink="http://www.w3.org/1999/xlink">
    <!-- Generator: Sketch 53.2 (72643) - https://sketchapp.com -->
    <title>Icons/icons-outdoorgym</title>
    <desc>Created with Sketch.</desc>
    <g id="Icons/icons-outdoorgym" stroke="none" stroke-width="1" fill="none" fill-rule="evenodd" stroke-linecap="round" stroke-linejoin="round">
        <g id="jump-rope" transform="translate(3.000000, 0.000000)" stroke="#C0343C" stroke-width="2">
            <circle id="Oval" cx="25.5737705" cy="6.88131148" r="5.90163934"></circle>
            <path d="M1.96721311,34.4262295 C1.96721311,46.8590164 10.1577049,57.2154098 21.0118033,59.5180328" id="Path"></path>
            <path d="M38.2878689,55.9672131 C45.2187942,50.9967161 49.2854046,42.9545661 49.1803279,34.4262295" id="Path"></path>
            <path d="M49.4222951,23.7304918 L32.3606557,17.8406557 C32.0698934,17.7707104 31.7737711,17.725305 31.4754098,17.704918 L19.6721311,17.7196721 C19.3725894,17.7143382 19.0740114,17.7551439 18.7868852,17.8406557 L1.7252459,23.7304918 C0.566067751,24.0901757 -0.155587415,25.2437366 0.0280394249,26.4434647 C0.211666265,27.6431929 1.24532193,28.5280911 2.45901639,28.5245902 C2.70853819,28.5214097 2.95606212,28.4796027 3.19278689,28.4006557 L18.6885246,24 L18.6885246,45.2459016 C18.6885246,46.8755943 20.0096516,48.1967213 21.6393443,48.1967213 C23.269037,48.1967213 24.5901639,46.8755943 24.5901639,45.2459016 L24.5901639,39.3442623 L26.557377,39.3442623 L26.557377,57.0491803 C26.557377,58.678873 27.878504,60 29.5081967,60 C31.1378894,60 32.4590164,58.678873 32.4590164,57.0491803 L32.4590164,24 L47.9547541,28.3996721 C48.191426,28.4789534 48.4389512,28.5210924 48.6885246,28.5245902 C49.9022191,28.5280911 50.9358747,27.6431929 51.1195016,26.4434647 C51.3031284,25.2437366 50.5814732,24.0901757 49.4222951,23.7304918 Z" id="Path"></path>
        </g>
    </g>
</svg>