<?xml version="1.0" encoding="UTF-8"?>
<svg width="60px" height="60px" viewBox="0 0 60 60" version="1.1" xmlns="http://www.w3.org/2000/svg" xmlns:xlink="http://www.w3.org/1999/xlink">
    <!-- Generator: Sketch 53.2 (72643) - https://sketchapp.com -->
    <title>Icons/icon-pedestrianvehicularaccess</title>
    <desc>Created with Sketch.</desc>
    <g id="Icons/icon-pedestrianvehicularaccess" stroke="none" stroke-width="1" fill="none" fill-rule="evenodd" stroke-linecap="round" stroke-linejoin="round">
        <g id="socket-europe-1-copy-2" transform="translate(0.000000, 59.000000)" stroke="#C0343C" stroke-width="2">
            <path d="M59.5081967,1 L0.491803279,1" id="Path"></path>
        </g>
        <g id="car-parking" transform="translate(29.000000, 35.000000)" stroke="#C0343C" stroke-width="2">
            <polyline id="Path" points="6 17 6 20 0.5 20 0.5 17"></polyline>
            <polyline id="Path" points="27.5 17 27.5 20 22 20 22 17"></polyline>
            <path d="M25.5,8 L23.6895,0.7575 C23.5781898,0.31218952 23.1780113,-0.000160001753 22.719,-2.46913601e-13 L5.281,-2.46913601e-13 C4.82217512,6.94700223e-05 4.42226503,0.312370387 4.311,0.7575 L2.5,8" id="Path"></path>
            <path d="M27.5,17 L0.5,17 L0.5,10.414 C0.500056637,10.1488052 0.605450625,9.89449273 0.793,9.707 L2.5,8 L25.5,8 L27.207,9.707 C27.3945494,9.89449273 27.4999434,10.1488052 27.5,10.414 L27.5,17 Z" id="Path"></path>
            <circle id="Oval" cx="5" cy="12.5" r="1.5"></circle>
            <circle id="Oval" cx="23" cy="12.5" r="1.5"></circle>
            <path d="M11.5,12.5 L16.5,12.5" id="Path"></path>
        </g>
        <path d="M25.5,0 L25.5,59" id="Line" stroke="#C0343C" stroke-width="2"></path>
        <g id="Arrow" transform="translate(43.500000, 14.000000) rotate(180.000000) translate(-43.500000, -14.000000) translate(39.000000, 9.000000)" stroke="#C0343C" stroke-width="2">
            <polyline id="Path-30" transform="translate(4.500000, 7.500000) rotate(90.000000) translate(-4.500000, -7.500000) " points="2.25 3 6.75 7.5 2.25 12"></polyline>
            <path d="M8.5,4.75 L0,4.75" id="Path-22-Copy-3" transform="translate(4.500000, 4.750000) rotate(-90.000000) translate(-4.500000, -4.750000) "></path>
        </g>
        <g id="Arrow" transform="translate(11.500000, 14.000000) rotate(180.000000) translate(-11.500000, -14.000000) translate(7.000000, 9.000000)" stroke="#C0343C" stroke-width="2">
            <polyline id="Path-30" transform="translate(4.500000, 7.500000) rotate(90.000000) translate(-4.500000, -7.500000) " points="2.25 3 6.75 7.5 2.25 12"></polyline>
            <path d="M8.5,4.75 L0,4.75" id="Path-22-Copy-3" transform="translate(4.500000, 4.750000) rotate(-90.000000) translate(-4.500000, -4.750000) "></path>
        </g>
        <circle id="Oval" stroke="#C0343C" stroke-width="2" cx="11.5" cy="32.5" r="2.5"></circle>
        <path d="M14,48.3292943 L14,53.5 C14,54.8807119 12.8807119,56 11.5,56 C10.1192881,56 9,54.8807119 9,53.5 L9,48.3292943 C7.83480763,47.9174579 7,46.8062188 7,45.5 L7,39.5 C7,37.8431458 8.34314575,36.5 10,36.5 L13,36.5 C14.6568542,36.5 16,37.8431458 16,39.5 L16,45.5 C16,46.8062188 15.1651924,47.9174579 14,48.3292943 Z" id="Combined-Shape" stroke="#C0343C" stroke-width="2"></path>
    </g>
</svg>