<?xml version="1.0" encoding="UTF-8"?>
<svg width="60px" height="60px" viewBox="0 0 60 60" version="1.1" xmlns="http://www.w3.org/2000/svg" xmlns:xlink="http://www.w3.org/1999/xlink">
    <!-- Generator: Sketch 53.2 (72643) - https://sketchapp.com -->
    <title>Icons/icons-rockclimbingalt</title>
    <desc>Created with Sketch.</desc>
    <g id="Icons/icons-rockclimbingalt" stroke="none" stroke-width="1" fill="none" fill-rule="evenodd" stroke-linecap="round" stroke-linejoin="round">
        <g id="climbing" transform="translate(8.000000, 0.000000)" stroke="#C0343C" stroke-width="2">
            <circle id="Oval" cx="27" cy="9" r="6"></circle>
            <path d="M15,60 L15,48" id="Path"></path>
            <path d="M15,0 L15,12" id="Path"></path>
            <path d="M21,37.268 L21,26 L13,26 C11.9955579,26.0012658 11.0571302,25.49977 10.5,24.664 L4.275,15.327 C3.48205111,14.1336027 3.80404823,12.5236171 4.995,11.727 L4.995,11.727 C6.11893976,10.9801377 7.62744696,11.2172944 8.468,12.273 L14.605,20 L32,20 C32.6811379,19.9999076 33.3420313,20.2316082 33.874,20.657 L42.874,28.657 C43.5857854,29.2263859 44.0000989,30.0884965 44,31 L44,41.392 C44,42.8323586 42.8323586,44 41.392,44 L41.392,44 C40.0380054,44.0013717 38.908338,42.9659881 38.792,41.617 L38,32.441 L33,28 L33,39.064 C32.9998156,40.9601491 32.1033397,42.7446263 30.5822232,43.8766978 C29.0611068,45.0087693 27.0943792,45.3551948 25.278,44.811 L13.854,41.389 L5.121,50.121 C4.53021932,50.712297 3.7195378,51.0303134 2.88429116,50.9984221 C2.04904451,50.9665309 1.26497279,50.587624 0.721,49.953 C-0.287133122,48.6987951 -0.170842488,46.8824048 0.989,45.767 L10.877,35.879 C11.6565665,35.0974037 12.803073,34.8083749 13.86,35.127 L21,37.268 Z" id="Path"></path>
        </g>
    </g>
</svg>