<?xml version="1.0" encoding="UTF-8"?>
<svg width="60px" height="60px" viewBox="0 0 60 60" version="1.1" xmlns="http://www.w3.org/2000/svg" xmlns:xlink="http://www.w3.org/1999/xlink">
    <!-- Generator: Sketch 53.2 (72643) - https://sketchapp.com -->
    <title>Icons/icons-rockclimbing</title>
    <desc>Created with Sketch.</desc>
    <g id="Icons/icons-rockclimbing" stroke="none" stroke-width="1" fill="none" fill-rule="evenodd" stroke-linecap="round" stroke-linejoin="round">
        <path d="M-7.10542736e-15,60 L3.24890608,54.3144144 C3.7386572,53.4573499 4.47114244,52.7644288 5.35405382,52.3229731 L6.24383584,51.8780821 C7.37265399,51.313673 8.24627593,50.3432642 8.68941375,49.1615633 L13.4730127,36.4052995 C13.8167613,35.4886365 14.4220502,34.6930544 15.2138001,34.1172363 L23.9726873,27.7471365 C24.6468543,27.2568333 25.1877364,26.6057536 25.5461314,25.853124 L29.1687925,18.2455357 C29.7036356,17.1223653 30.6379678,16.238911 31.7892958,15.7677287 L51.7960277,7.57995129 C52.7195954,7.20198017 53.5089348,6.55629495 54.0624799,5.72597734 L54.8127931,4.60050754 C55.0783094,4.20223302 55.3996407,3.84414924 55.7669491,3.53721921 L60,-7.10542736e-15 L-7.10542736e-15,-7.10542736e-15 L-7.10542736e-15,60 Z" id="Path-60" stroke="#C0343C" stroke-width="2"></path>
        <circle id="Oval" stroke="#C0343C" stroke-width="2" cx="54" cy="26" r="4"></circle>
        <path d="M39.2168876,34.3971821 C36.3174703,33.3533995 33.6819473,31.6819473 31.5,29.5 L29.767767,27.767767 C28.7534299,26.7534299 28.6393064,25.1475914 29.5,24 C30.2669171,22.9774438 31.7175719,22.7702074 32.740128,23.5371246 C32.7877013,23.5728045 32.8338817,23.6103047 32.8785665,23.6495418 L38.1381429,28.267899 C38.6836748,28.7469226 39.3492909,29.0684435 40.0636337,29.1979929 L45.3885382,30.1636896 C46.6703287,30.1504361 47.9609078,30.5907944 49,31.5 C50.7165021,33.0019393 50.8904396,35.6110016 49.3885002,37.3275036 C49.1618717,37.5865077 48.9037564,37.8161675 48.6201571,38.011142 L37,46 L23.7932619,44.1133231 C23.2840942,44.0405849 22.766476,44.1668029 22.3479428,44.4657552 L18.0343337,47.5469045 C16.9032316,48.3548346 15.3340093,48.1120124 14.5,47 C13.7163192,45.9550922 13.9280854,44.4727282 14.9729932,43.6890474 C15.007996,43.6627953 15.0437206,43.6375196 15.0801257,43.6132495 L21.4918275,39.3387817 C21.8230592,39.1179606 22.212654,39.0010115 22.6107405,39.0029049 L35,39.0618327 L39.2168876,34.3971821 Z" id="Combined-Shape" stroke="#C0343C" stroke-width="2"></path>
        <path d="M20.1489638,58.5 L20.1489638,58.5 C19.1226387,57.9868374 18.7066382,56.738836 19.2198008,55.7125108 C19.2425384,55.6670356 19.2669376,55.6224102 19.2929491,55.578725 L21.9012897,51.1981272 C22.5689104,50.0768864 23.4495315,49.0971559 24.4934927,48.314185 L28.912406,45 L37,46 L28.756329,51.3086993 C27.654052,52.0185357 26.7021157,52.9381975 25.9546966,54.0153451 L23.4237171,57.6628816 C22.6920764,58.71729 21.2968576,59.0739469 20.1489638,58.5 Z" id="Path-3" stroke="#C0343C" stroke-width="2"></path>
        <path d="M41,29 L39.3876713,18.5198633 C39.1708171,17.1103113 40.1015591,15.7796882 41.5,15.5 L41.5,15.5 C42.7939631,15.2412074 44.0527204,16.0803789 44.311513,17.374342 C44.3216422,17.4249881 44.3301266,17.4759492 44.3369527,17.5271452 L46,30 C46,30 44.3333333,29.6666667 41,29 Z" id="Path" stroke="#C0343C" stroke-width="2"></path>
    </g>
</svg>