<svg xmlns="http://www.w3.org/2000/svg" xmlns:xlink="http://www.w3.org/1999/xlink" x="0px" y="0px" width="64px" height="64px" viewBox="0 0 64 64"><g stroke-width="2" transform="translate(0, 0)"><line data-color="color-2" x1="2" y1="52" x2="23" y2="52" fill="none" stroke="#c0343c" stroke-linecap="square" stroke-miterlimit="10" stroke-width="2" stroke-linejoin="miter"></line>
<line data-color="color-2" x1="2" y1="42" x2="10" y2="42" fill="none" stroke="#c0343c" stroke-linecap="square" stroke-miterlimit="10" stroke-width="2" stroke-linejoin="miter"></line>
<line data-cap="butt" data-color="color-2" x1="43.6" y1="24.238" x2="37.046" y2="26.347" fill="none" stroke="#c0343c" stroke-miterlimit="10" stroke-width="2" stroke-linecap="butt" stroke-linejoin="miter"></line>
<line data-cap="butt" data-color="color-2" x1="45.801" y1="31.123" x2="39.408" y2="33.181" fill="none" stroke="#c0343c" stroke-miterlimit="10" stroke-width="2" stroke-linecap="butt" stroke-linejoin="miter"></line>
<path d="M39.707,12.061,48,38h8a6,6,0,0,1,6,6v4a4,4,0,0,1-4,4H40L3.671,28.106a4.012,4.012,0,0,1-.93-5.58L15.21,5.066a2.545,2.545,0,0,1,3.55-.592l.017.012a2.59,2.59,0,0,1,1.065,2.151c-.024,2.12.282,8.641,5.151,11.556a12.724,12.724,0,0,0,10.757.987" fill="none" stroke="#c0343c" stroke-linecap="square" stroke-miterlimit="10" stroke-width="2" stroke-linejoin="miter"></path></g></svg>