<svg xmlns="http://www.w3.org/2000/svg" xmlns:xlink="http://www.w3.org/1999/xlink" x="0px" y="0px" width="64px" height="64px" viewBox="0 0 64 64"><g stroke-width="2" transform="translate(0, 0)"><line x1="32" y1="51" x2="32" y2="62" fill="none" stroke="#c0343c" stroke-linecap="square" stroke-miterlimit="10" stroke-width="2" data-color="color-2" stroke-linejoin="miter"></line><path d="M52,8.979C52,5.125,43.046,2,32,2S12,5.125,12,8.979c0,2.041,2.528,3.872,6.533,5.149,1.653,3.355,7.05,5.818,13.467,5.818s11.814-2.463,13.467-5.818C49.472,12.851,52,11.02,52,8.979Z" fill="none" stroke="#c0343c" stroke-miterlimit="10" stroke-width="2" data-cap="butt" stroke-linecap="butt" stroke-linejoin="miter"></path><circle cx="32" cy="10" r="3" fill="none" stroke="#c0343c" stroke-linecap="square" stroke-miterlimit="10" stroke-width="2" data-color="color-2" stroke-linejoin="miter"></circle><path d="M25,33.618V41L9.8,45.342A8,8,0,0,0,4,53.034V62H60V53.034a8,8,0,0,0-5.8-7.692L39,41V33.618" fill="none" stroke="#c0343c" stroke-miterlimit="10" stroke-width="2" data-cap="butt" stroke-linecap="butt" stroke-linejoin="miter"></path><path d="M46,14.5V20c0,7.732-6.268,16-14,16h0c-7.732,0-14-8.268-14-16V14.11" fill="none" stroke="#c0343c" stroke-miterlimit="10" stroke-width="2" data-cap="butt" stroke-linecap="butt" stroke-linejoin="miter"></path></g></svg>