<svg xmlns="http://www.w3.org/2000/svg" xmlns:xlink="http://www.w3.org/1999/xlink" x="0px" y="0px" width="64px" height="64px" viewBox="0 0 64 64"><g stroke-width="2" transform="translate(0, 0)"><circle cx="47" cy="8" r="6" fill="none" stroke="#c0343c" stroke-linecap="square" stroke-miterlimit="10" stroke-width="2" stroke-linejoin="miter"></circle>
  <path d="M24.343,40.874l-4,5a3.018,3.018,0,0,1-1,.809l-8,4a3,3,0,1,1-2.684-5.366l7.411-3.706,3.588-4.485" fill="none" stroke="#c0343c" stroke-linecap="square" stroke-miterlimit="10" stroke-width="2" stroke-linejoin="miter"></path>
  <path d="M34.068,33.33l5.5-6.193,1.655,4.007A3,3,0,0,0,44,33h9.375A2.625,2.625,0,0,0,56,30.375h0a2.626,2.626,0,0,0-2.363-2.612L46.007,27l-3.489-8.342a5.969,5.969,0,0,0-5.457-3.653L24,15a3,3,0,0,0-1.344.317l-6.335,3.167a2.625,2.625,0,0,0-1.174,3.522l.007.015a2.624,2.624,0,0,0,3.251,1.29L24.708,21h4.264l-4.456,5.014a6,6,0,0,0,.5,8.47c.167.149,8.986,6.109,8.986,6.109V52" fill="none" stroke="#c0343c" stroke-miterlimit="10" stroke-width="2" data-cap="butt" stroke-linecap="butt" stroke-linejoin="miter"></path>
  <path d="M40,52V39a3,3,0,0,0-1.319-2.485L31.417,31.5" fill="none" stroke="#c0343c" stroke-miterlimit="10" stroke-width="2" data-cap="butt" stroke-linecap="butt" stroke-linejoin="miter"></path>
  <circle cx="28.5" cy="59.5" r="2.5" fill="none" stroke="#c0343c" stroke-linecap="square" stroke-miterlimit="10" stroke-width="2" data-color="color-2" stroke-linejoin="miter"></circle>
  <circle cx="45.5" cy="59.5" r="2.5" fill="none" stroke="#c0343c" stroke-linecap="square" stroke-miterlimit="10" stroke-width="2" data-color="color-2" stroke-linejoin="miter"></circle>
  <path d="M50,50l-2.244,1.5a3,3,0,0,1-1.664.5H27.908a3,3,0,0,1-1.664-.5L24,50" fill="none" stroke="#c0343c" stroke-linecap="square" stroke-miterlimit="10" stroke-width="2" data-color="color-2" stroke-linejoin="miter"></path></g></svg>