<?xml version="1.0" encoding="UTF-8"?>
<svg width="60px" height="60px" viewBox="0 0 60 60" version="1.1" xmlns="http://www.w3.org/2000/svg" xmlns:xlink="http://www.w3.org/1999/xlink">
    <!-- Generator: Sketch 53.2 (72643) - https://sketchapp.com -->
    <title>Icons/icons-swimmingpool</title>
    <desc>Created with Sketch.</desc>
    <g id="Icons/icons-swimmingpool" stroke="none" stroke-width="1" fill="none" fill-rule="evenodd" stroke-linecap="round" stroke-linejoin="round">
        <g id="swimming-pool" transform="translate(0.000000, 1.000000)" stroke="#C0343C" stroke-width="2">
            <path d="M14,48 L14,6 C14,2.6862915 16.6862915,4.4408921e-16 20,0" id="Path"></path>
            <path d="M46,48 L46,6 C46,2.6862915 48.6862915,4.4408921e-16 52,0" id="Path"></path>
            <path d="M14,40 L46,40" id="Path"></path>
            <path d="M14,26 L46,26" id="Path"></path>
            <path d="M14,12 L46,12" id="Path"></path>
            <path d="M0,58 C3.68909093,57.8327753 7.21326193,56.4231069 10,54 C16.08,59.394 24.281,59.625 30,54 C35.719,59.625 43.92,59.394 50,54 C52.7867381,56.4231069 56.3109091,57.8327753 60,58" id="Path"></path>
        </g>
    </g>
</svg>