<svg xmlns="http://www.w3.org/2000/svg" xmlns:xlink="http://www.w3.org/1999/xlink" x="0px" y="0px" width="64px" height="64px" viewBox="0 0 64 64"><g stroke-width="2" transform="translate(0, 0)"><circle cx="32" cy="12" r="6" fill="none" stroke="#c0343c" stroke-linecap="square" stroke-miterlimit="10" stroke-width="2" stroke-linejoin="miter"></circle>
  <path d="M26.142,46.053l4.044,1.894,1.84,11.8A2.493,2.493,0,0,0,37,59.5c0-.088-1.016-13.8-1.016-13.8a3,3,0,0,0-1.642-2.374L22.477,37.384a1,1,0,0,1-.446-1.342,1.028,1.028,0,0,1,.186-.258L28.592,29.4" fill="none" stroke="#c0343c" stroke-miterlimit="10" stroke-width="2" data-cap="butt" stroke-linecap="butt" stroke-linejoin="miter"></path>
  <path d="M26,28l8.39,4.531A3,3,0,0,0,36,33H47.405A2.6,2.6,0,0,0,50,30.405h0a2.6,2.6,0,0,0-2.4-2.588L36.874,27l-12.4-7.028a5,5,0,0,0-6.168.988l-7.693,8.471a8.972,8.972,0,0,0-.959,11.6l5.633,7.944-5.73,8.957a2.492,2.492,0,0,0,3.86,3.152c.05-.06.1-.123.14-.188l7.846-10.114a3,3,0,0,0,.029-3.527L16.73,40.661" fill="none" stroke="#c0343c" stroke-linecap="square" stroke-miterlimit="10" stroke-width="2" stroke-linejoin="miter"></path>
  <ellipse cx="52.242" cy="9.828" rx="7.901" ry="6.145" transform="translate(31.239 58.661) rotate(-77.382)" fill="none" stroke="#c0343c" stroke-linecap="square" stroke-miterlimit="10" stroke-width="2" data-color="color-2" stroke-linejoin="miter"></ellipse>
  <line x1="50.516" y1="17.538" x2="49.192" y2="23.453" fill="none" stroke="#c0343c" stroke-linecap="square" stroke-miterlimit="10" stroke-width="2" data-color="color-2" stroke-linejoin="miter"></line></g></svg>