<svg xmlns="http://www.w3.org/2000/svg" xmlns:xlink="http://www.w3.org/1999/xlink" x="0px" y="0px" width="64px" height="64px" viewBox="0 0 64 64"><g stroke-width="2" transform="translate(0, 0)"><line fill="none" stroke="#c0343c" stroke-width="2" stroke-linecap="square" stroke-miterlimit="10" x1="4" y1="19" x2="4" y2="27" stroke-linejoin="miter"></line>
<line fill="none" stroke="#c0343c" stroke-width="2" stroke-linecap="square" stroke-miterlimit="10" x1="60" y1="19" x2="60" y2="27" stroke-linejoin="miter"></line>
<line data-cap="butt" data-color="color-2" fill="none" stroke="#c0343c" stroke-width="2" stroke-miterlimit="10" x1="45" y1="48" x2="51.818" y2="62" stroke-linecap="butt" stroke-linejoin="miter"></line>
<line data-cap="butt" data-color="color-2" fill="none" stroke="#c0343c" stroke-width="2" stroke-miterlimit="10" x1="12.182" y1="62" x2="19" y2="48" stroke-linecap="butt" stroke-linejoin="miter"></line>
<line data-cap="butt" data-color="color-2" fill="none" stroke="#c0343c" stroke-width="2" stroke-miterlimit="10" x1="15.104" y1="56" x2="48.896" y2="56" stroke-linecap="butt" stroke-linejoin="miter"></line>
<path fill="none" stroke="#c0343c" stroke-width="2" stroke-linecap="square" stroke-miterlimit="10" d="M50,48H14
	c-2.209,0-4-1.791-4-4V6c0-2.209,1.791-4,4-4h36c2.209,0,4,1.791,4,4v38C54,46.209,52.209,48,50,48z" stroke-linejoin="miter"></path>
<polygon data-color="color-2" fill="none" stroke="#c0343c" stroke-width="2" stroke-linecap="square" stroke-miterlimit="10" points="
	45,30 19,30 17,9 47,9 " stroke-linejoin="miter"></polygon>
<circle data-color="color-2" fill="none" stroke="#c0343c" stroke-width="2" stroke-linecap="square" stroke-miterlimit="10" cx="19" cy="39" r="3" stroke-linejoin="miter"></circle>
<circle data-color="color-2" fill="none" stroke="#c0343c" stroke-width="2" stroke-linecap="square" stroke-miterlimit="10" cx="45" cy="39" r="3" stroke-linejoin="miter"></circle>
<line data-color="color-2" fill="none" stroke="#c0343c" stroke-width="2" stroke-linecap="square" stroke-miterlimit="10" x1="29" y1="39" x2="35" y2="39" stroke-linejoin="miter"></line></g></svg>