<svg xmlns="http://www.w3.org/2000/svg" xmlns:xlink="http://www.w3.org/1999/xlink" x="0px" y="0px" width="64px" height="64px" viewBox="0 0 64 64"><g stroke-width="2" transform="translate(0, 0)"><line data-cap="butt" x1="24" y1="6" x2="32" y2="16" fill="none" stroke="#c0343c" stroke-miterlimit="10" stroke-width="2" stroke-linecap="butt" stroke-linejoin="miter"></line><line data-cap="butt" x1="32" y1="16" x2="44" y2="2" fill="none" stroke="#c0343c" stroke-miterlimit="10" stroke-width="2" stroke-linecap="butt" stroke-linejoin="miter"></line><path d="M57,62H7a5,5,0,0,1-5-5V21a5,5,0,0,1,5-5H57a5,5,0,0,1,5,5V57A5,5,0,0,1,57,62Z" fill="none" stroke="#c0343c" stroke-linecap="square" stroke-miterlimit="10" stroke-width="2" stroke-linejoin="miter"></path><rect data-color="color-2" x="10" y="24" width="36" height="30" fill="none" stroke="#c0343c" stroke-linecap="square" stroke-miterlimit="10" stroke-width="2" stroke-linejoin="miter"></rect><line data-color="color-2" x1="54" y1="24" x2="54" y2="28" fill="none" stroke="#c0343c" stroke-linecap="square" stroke-miterlimit="10" stroke-width="2" stroke-linejoin="miter"></line><line data-color="color-2" x1="54" y1="36" x2="54" y2="54" fill="none" stroke="#c0343c" stroke-linecap="square" stroke-miterlimit="10" stroke-width="2" stroke-linejoin="miter"></line></g></svg>