<?xml version="1.0" encoding="UTF-8"?>
<svg width="60px" height="60px" viewBox="0 0 60 60" version="1.1" xmlns="http://www.w3.org/2000/svg" xmlns:xlink="http://www.w3.org/1999/xlink">
    <!-- Generator: Sketch 53.2 (72643) - https://sketchapp.com -->
    <title>Icons/icon-undergroundstructure</title>
    <desc>Created with Sketch.</desc>
    <g id="Icons/icon-undergroundstructure" stroke="none" stroke-width="1" fill="none" fill-rule="evenodd" stroke-linecap="round" stroke-linejoin="round">
        <g id="socket-europe-1-copy-3" transform="translate(0.000000, 8.000000)" stroke="#C0343C" stroke-width="2">
            <path d="M59.5081967,1 L0.491803279,1" id="Path"></path>
        </g>
        <polyline id="Path-25" stroke="#C0343C" stroke-width="2" points="0 4 4 0 8 4 12 0 16 4 20 0 24 4 28 0 32 4 36 0 40 4 44 0 48 4 52 0 56 4 60 0"></polyline>
        <path d="M2,12 L15,12 C16.1045695,12 17,12.8954305 17,14 L17,36 C17,37.1045695 16.1045695,38 15,38 L2,38 C0.8954305,38 1.3527075e-16,37.1045695 0,36 L0,14 C-1.3527075e-16,12.8954305 0.8954305,12 2,12 Z" id="Rectangle" stroke="#C0343C" stroke-width="2" stroke-dasharray="4,4"></path>
        <rect id="Rectangle-Copy" stroke="#C0343C" stroke-width="2" x="20" y="12" width="39" height="48" rx="2"></rect>
        <path d="M8.5,22 L8.5,29" id="Path-54" stroke="#C0343C" stroke-width="2"></path>
        <path d="M12,25.5 L5,25.5" id="Path-54" stroke="#C0343C" stroke-width="2"></path>
    </g>
</svg>