<?xml version="1.0" encoding="UTF-8"?>
<svg width="60px" height="60px" viewBox="0 0 60 60" version="1.1" xmlns="http://www.w3.org/2000/svg" xmlns:xlink="http://www.w3.org/1999/xlink">
    <!-- Generator: Sketch 53.2 (72643) - https://sketchapp.com -->
    <title>Icons/icon-hiddenutility</title>
    <desc>Created with Sketch.</desc>
    <g id="Icons/icon-hiddenutility" stroke="none" stroke-width="1" fill="none" fill-rule="evenodd" stroke-linecap="round" stroke-linejoin="round">
        <g id="wash-2" stroke="#C0343C" stroke-width="2">
            <rect id="Rectangle" x="0" y="0" width="60" height="60"></rect>
            <path d="M0,8 L60,8" id="Path"></path>
            <circle id="Oval" cx="30" cy="34" r="18"></circle>
            <path d="M39,35.3 C37.2,35.3 35.7,34.6 34.5,33.5 C33.3,34.6 31.8,35.3 30,35.3 C28.2,35.3 26.7,34.6 25.5,33.5 C24.3,34.6 22.8,35.3 21,35.3 C19.5,35.3 18.2,34.8 17.1,34 C17.1,34 17.1,34 17.1,34 C17.1,41.1 22.9,46.9 30,46.9 C37.1,46.9 42.9,41.1 42.9,34 C42.9,34 42.9,34 42.9,34 C41.8,34.8 40.5,35.3 39,35.3 Z" id="Path"></path>
        </g>
    </g>
</svg>