<?xml version="1.0" encoding="UTF-8"?>
<svg width="60px" height="60px" viewBox="0 0 60 60" version="1.1" xmlns="http://www.w3.org/2000/svg" xmlns:xlink="http://www.w3.org/1999/xlink">
    <!-- Generator: Sketch 53.2 (72643) - https://sketchapp.com -->
    <title>Icons/icon-vehicularhugs</title>
    <desc>Created with Sketch.</desc>
    <g id="Icons/icon-vehicularhugs" stroke="none" stroke-width="1" fill="none" fill-rule="evenodd" stroke-linecap="round" stroke-linejoin="round">
        <g id="socket-europe-1-copy-2" transform="translate(0.000000, 59.000000)" stroke="#C0343C" stroke-width="2">
            <path d="M59.5081967,1 L0.491803279,1" id="Path"></path>
        </g>
        <g id="car-parking" transform="translate(16.000000, 38.000000)" stroke="#C0343C" stroke-width="2">
            <polyline id="Path" points="6 17 6 20 0.5 20 0.5 17"></polyline>
            <polyline id="Path" points="27.5 17 27.5 20 22 20 22 17"></polyline>
            <path d="M25.5,8 L23.6895,0.7575 C23.5781898,0.31218952 23.1780113,-0.000160001753 22.719,-2.46913601e-13 L5.281,-2.46913601e-13 C4.82217512,6.94700223e-05 4.42226503,0.312370387 4.311,0.7575 L2.5,8" id="Path"></path>
            <path d="M27.5,17 L0.5,17 L0.5,10.414 C0.500056637,10.1488052 0.605450625,9.89449273 0.793,9.707 L2.5,8 L25.5,8 L27.207,9.707 C27.3945494,9.89449273 27.4999434,10.1488052 27.5,10.414 L27.5,17 Z" id="Path"></path>
            <circle id="Oval" cx="5" cy="12.5" r="1.5"></circle>
            <circle id="Oval" cx="23" cy="12.5" r="1.5"></circle>
            <path d="M11.5,12.5 L16.5,12.5" id="Path"></path>
        </g>
        <rect id="Rectangle" stroke="#C0343C" stroke-width="2" x="51" y="26" width="9" height="34"></rect>
        <path d="M60,0 L43.5,0" id="Path-22" stroke="#C0343C" stroke-width="2"></path>
        <path d="M45.5,4.5 L29,4.5" id="Path-22-Copy" stroke="#C0343C" stroke-width="2"></path>
        <path d="M51.5,10.5 L43,10.5" id="Path-22-Copy-2" stroke="#C0343C" stroke-width="2"></path>
        <path d="M44.5,28.5 L36,28.5" id="Path-22-Copy-3" stroke="#C0343C" stroke-width="2"></path>
        <polyline id="Path-30" stroke="#C0343C" stroke-width="2" points="41 24 45.5 28.5 41 33"></polyline>
    </g>
</svg>