<svg xmlns="http://www.w3.org/2000/svg" xmlns:xlink="http://www.w3.org/1999/xlink" x="0px" y="0px" width="64px" height="64px" viewBox="0 0 64 64"><g stroke-width="2" transform="translate(0, 0)"><circle data-color="color-2" cx="52" cy="21" r="5" fill="none" stroke="#c0343c" stroke-miterlimit="10" stroke-width="2"></circle>
<circle cx="34" cy="10" r="6" fill="none" stroke="#c0343c" stroke-linecap="square" stroke-miterlimit="10" stroke-width="2" stroke-linejoin="miter"></circle>
<path d="M28.7,44.315l3.486,1.632,1.84,11.8A2.493,2.493,0,0,0,39,57.5c0-.088-1.016-13.8-1.016-13.8a3,3,0,0,0-1.642-2.374L24.477,35.384a1,1,0,0,1-.446-1.342,1.028,1.028,0,0,1,.186-.258L30.8,27.2l15.46,8.459a2.511,2.511,0,0,0,3.777-2,2.415,2.415,0,0,0-1.276-2.3l-.021-.012L26.512,18.093a5,5,0,0,0-6.261.934l-7.633,8.4a8.972,8.972,0,0,0-.959,11.6l5.633,7.944-5.73,8.957a2.492,2.492,0,0,0,3.86,3.152c.05-.06.1-.123.14-.188l7.846-10.114a3,3,0,0,0,.029-3.527L17.544,37" fill="none" stroke="#c0343c" stroke-linecap="square" stroke-miterlimit="10" stroke-width="2" stroke-linejoin="miter"></path></g></svg>