<?xml version="1.0" encoding="UTF-8"?>
<svg width="60px" height="60px" viewBox="0 0 60 60" version="1.1" xmlns="http://www.w3.org/2000/svg" xmlns:xlink="http://www.w3.org/1999/xlink">
    <!-- Generator: Sketch 53.2 (72643) - https://sketchapp.com -->
    <title>Icons/icon-addawalkindressing</title>
    <desc>Created with Sketch.</desc>
    <g id="Icons/icon-addawalkindressing" stroke="none" stroke-width="1" fill="none" fill-rule="evenodd" stroke-linecap="round" stroke-linejoin="round">
        <path d="M59.5081967,60 L0.491803279,60" id="Path" stroke="#C0343C" stroke-width="2"></path>
        <rect id="Rectangle" stroke="#C0343C" stroke-width="2" x="27" y="0" width="33" height="60" rx="2"></rect>
        <path d="M30.5,28 L30.5,34.5162456" id="Line" stroke="#C0343C" stroke-width="2"></path>
        <g id="Arrow" transform="translate(12.000000, 14.500000) rotate(270.000000) translate(-12.000000, -14.500000) translate(7.500000, 9.500000)" stroke="#C0343C" stroke-width="2">
            <polyline id="Path-30" transform="translate(4.500000, 7.500000) rotate(90.000000) translate(-4.500000, -7.500000) " points="2.25 3 6.75 7.5 2.25 12"></polyline>
            <path d="M8.5,4.75 L0,4.75" id="Path-22-Copy-3" transform="translate(4.500000, 4.750000) rotate(-90.000000) translate(-4.500000, -4.750000) "></path>
        </g>
        <path d="M44,12 L44,10 C45.1045695,10 46,9.1045695 46,8 C46,6.8954305 45.1045695,6 44,6 C42.8954305,6 42,6.8954305 42,8" id="Oval" stroke="#C0343C" stroke-width="2"></path>
        <polyline id="Path-46" stroke="#C0343C" stroke-width="2" points="44 10 44 11.7777778 35 18 54 18 44 11.7777778"></polyline>
    </g>
</svg>