<?xml version="1.0" encoding="UTF-8"?>
<svg width="60px" height="60px" viewBox="0 0 60 60" version="1.1" xmlns="http://www.w3.org/2000/svg" xmlns:xlink="http://www.w3.org/1999/xlink">
    <!-- Generator: Sketch 53.2 (72643) - https://sketchapp.com -->
    <title>Icons/icons-walkways</title>
    <desc>Created with Sketch.</desc>
    <g id="Icons/icons-walkways" stroke="none" stroke-width="1" fill="none" fill-rule="evenodd" stroke-linecap="round" stroke-linejoin="round">
        <g id="Group-16" transform="translate(16.000000, 0.000000)" stroke="#C0343C" stroke-width="2">
            <path d="M17.5651043,14.0004897 C19.2966241,13.9914879 21.0149679,14.1019991 22.6716473,14.7150777 C24.9289829,15.5505194 26.307558,17.2361503 26.7479923,19.7999334 C27.0633412,21.6353385 27.1111266,23.479554 26.7277889,25.3084472 C26.4031289,26.8571362 25.6088715,28.0200893 24.2283638,28.6507884 C23.7573609,28.8658735 23.2896959,29.0918756 22.8322205,29.3387541 C21.6834372,29.9583446 20.8905852,30.9334096 20.3844459,32.2175995 C19.7403964,33.8513265 19.503753,35.5754544 19.3468691,37.3231401 C19.0060464,41.1195923 19.2437439,44.9099156 19.4498187,48.7002389 C19.5181589,49.9566574 19.6868134,51.2117351 19.6797862,52.4662383 C19.6688939,54.4257531 19.1992964,56.2525396 17.9568747,57.7498992 C16.7898204,59.1566665 15.3060119,59.8540171 13.5874925,59.976786 C12.2862173,60.0698682 11.0206056,59.8909818 9.82192859,59.2955237 C8.03612302,58.4081782 6.72887469,57.0312892 6.31918471,54.8836946 C6.08816314,53.6722851 6.04353996,52.4187396 5.91072451,51.1847298 C5.66055362,48.8588235 5.41284227,46.5327256 5.15388729,44.2079684 C4.91601412,42.0733978 4.66654595,39.9401678 4.41865892,37.8065548 C4.17270439,35.6894131 3.909006,33.5743782 3.67675465,31.4551297 C3.3141474,28.1468803 2.88688924,24.8392056 3.02743469,21.4962898 C3.06731446,20.5530183 3.23842854,19.5940416 3.49053193,18.6890756 C3.831706,17.4640676 4.60944936,16.5884053 5.67900021,16.0239746 C6.93020604,15.3637803 8.27065823,15.0433553 9.62516497,14.8073938 C12.2544189,14.3498353 14.896849,14.016578 17.5651043,14.0004897" id="Fill-1"></path>
            <path d="M21.0003125,6.94196088 C21.177883,6.09088875 21.3914527,5.06151626 21.6072606,4.0327027 C21.7820333,3.20007543 21.96464,2.36912496 22.1340035,1.53519351 C22.3680907,0.383227875 23.2348663,-0.206262544 24.3959763,0.0655663185 C25.4653166,0.315783017 26.5286882,0.599908456 27.5808684,0.914961648 C28.6423747,1.23280952 29.1778842,2.20722004 28.9469679,3.3215507 C28.5921998,5.03338318 28.2363126,6.74502935 27.8645709,8.4531356 C27.5982151,9.67683126 26.7402061,10.2184396 25.5227659,9.91922286 C24.5008026,9.66807461 23.4857407,9.38637122 22.4755284,9.09162601 C21.5455212,8.8205424 20.984831,8.05107481 21.0003125,6.94196088" id="Fill-4"></path>
            <path d="M17.9959899,5.00680746 C17.9964575,5.81390174 18.0012899,6.62099602 17.9953663,7.42809029 C17.987884,8.44301539 17.4979457,8.99741037 16.6190809,8.99848721 C16.1646838,8.99902564 15.7102867,9.00207669 15.2560455,8.99758984 C14.5522366,8.99076983 14.0417218,8.50960022 14.0259777,7.69281435 C13.9913718,5.88569131 13.9904365,4.07623511 14.0286277,2.26929155 C14.0456189,1.4688378 14.547716,1.00848716 15.2399896,1.002744 C15.7332014,0.998616097 16.2265691,0.999692941 16.7199368,1.00238505 C17.4938927,1.0068719 17.9763487,1.54349896 17.9924046,2.45109864 C18.0073693,3.30270246 17.9955222,4.15484469 17.9959899,5.00680746" id="Fill-7"></path>
            <path d="M11.9901633,8.2312408 C12.0756751,9.09127701 11.5969013,9.89201926 10.8174518,9.87322763 C10.334064,9.86155128 9.84959953,9.96755065 9.36436611,9.99765374 C8.75148015,10.0356019 8.29100824,9.61105707 8.21518571,8.88146759 C8.13874799,8.14476283 8.11952321,7.39948325 8.08322683,6.65748765 C8.04892983,5.96055546 8.01155685,5.26325839 8.00032958,4.56559643 C7.98694914,3.73657553 8.3815954,3.2292016 9.07245706,3.15330532 C9.56907156,3.09875487 10.0661474,3.05077236 10.5635309,3.00534406 C11.2247095,2.94495543 11.7239386,3.39996823 11.7776142,4.18757457 C11.8694317,5.53345644 11.9211079,6.88316962 11.9901633,8.2312408" id="Fill-9"></path>
            <path d="M7,10.3005752 C6.99775024,11.0764893 6.77851114,11.4929358 6.38367828,11.6330426 C6.03924004,11.7550711 5.69333946,11.8699974 5.34552658,11.9691052 C4.85012946,12.1106648 4.50141668,11.7592679 4.4131136,11.048242 C4.2838649,10.0058344 4.1545037,8.96358831 4.02581744,7.92101936 C3.91670408,7.03663552 4.15225394,6.5268921 4.75530208,6.33368029 C5.06509402,6.23457249 5.37319863,6.12448857 5.68355301,6.02957751 C6.07197405,5.91061586 6.44633409,6.15418863 6.52856282,6.69379352 C6.71990489,7.94942812 6.86175226,9.2205584 7,10.3005752" id="Fill-11"></path>
            <path d="M2.99990154,13.2602407 C3.00286441,13.7971419 2.84891384,14.1575251 2.5101989,14.3646873 C2.19103888,14.5598426 1.86915302,14.7462169 1.54465983,14.9202259 C1.14206548,15.1361691 0.809039238,14.9092943 0.67831755,14.2931841 C0.452902636,13.2312093 0.238628102,12.1631415 0.0409456218,11.0886223 C-0.0903686394,10.3748448 0.0977141517,9.86518287 0.55411417,9.59834513 C0.874933398,9.41089565 1.19587114,9.22057887 1.52297165,9.06108552 C1.86749381,8.89299029 2.18523166,9.07362994 2.29663545,9.58060373 C2.55073092,10.7366617 2.76464991,11.9129699 2.99314621,13.0819307 C3.00404956,13.1374845 2.99824234,13.2005651 2.99990154,13.2602407" id="Fill-13"></path>
        </g>
    </g>
</svg>