<?xml version="1.0" encoding="UTF-8"?>
<svg width="60px" height="60px" viewBox="0 0 60 60" version="1.1" xmlns="http://www.w3.org/2000/svg" xmlns:xlink="http://www.w3.org/1999/xlink">
    <!-- Generator: Sketch 53.2 (72643) - https://sketchapp.com -->
    <title>Icons/icons-waterbody</title>
    <desc>Created with Sketch.</desc>
    <g id="Icons/icons-waterbody" stroke="none" stroke-width="1" fill="none" fill-rule="evenodd" stroke-linecap="round" stroke-linejoin="round">
        <g id="socket-europe-1-copy-3" transform="translate(0.000000, 31.000000)" stroke="#C0343C" stroke-width="2">
            <path d="M11,5 L0.491803279,5" id="Path-Copy"></path>
            <path d="M49,13 L24.4918033,13" id="Path-Copy-2"></path>
            <path d="M57,1 L48,1" id="Path-Copy-3"></path>
            <path d="M21,29 L12,29" id="Path-Copy-4"></path>
        </g>
        <g id="water-surface" transform="translate(0.000000, 21.000000)" stroke="#C0343C" stroke-width="2">
            <path d="M0,1.99991094 C3.88926165,2.00025549 7.60003029,1.27460703 10.227,0 C12.8545661,1.27437807 16.5652153,2 20.4545,2 C24.3437847,2 28.0544339,1.27437807 30.682,0 C33.1961485,1.21768845 36.7037638,1.93661827 40.4199855,1.99592248 C44.1362071,2.0552267 47.7508121,1.44995469 50.455,0.315541503 C53.0305898,1.40183435 56.4492295,2.00510855 60,1.99991094" id="Path"></path>
        </g>
        <path d="M45,44 C45,40.1340068 41.8659932,37 38,37 C34.1340068,37 31,40.1340068 31,44 C31,44.0417126 34.4276318,44.0417126 38,44 C41.4245056,43.9600139 45,44.0417126 45,44 Z" id="Oval" stroke="#C0343C" stroke-width="2"></path>
        <path d="M32,46.5 L37,46.5" id="Path-37" stroke="#C0343C" stroke-width="2"></path>
        <path d="M38,48.5 L43,48.5" id="Path-37-Copy" stroke="#C0343C" stroke-width="2"></path>
        <path d="M37,50.5 L39,50.5" id="Path-37-Copy-2" stroke="#C0343C" stroke-width="2"></path>
    </g>
</svg>