<svg xmlns="http://www.w3.org/2000/svg" xmlns:xlink="http://www.w3.org/1999/xlink" x="0px" y="0px" width="64px" height="64px" viewBox="0 0 64 64"><g stroke-width="2" transform="translate(0, 0)"><path data-color="color-2" fill="none" stroke="#c0343c" stroke-width="2" stroke-linecap="square" stroke-miterlimit="10" d="M40,28
	c0-3.8,6-10,6-10s6,6.2,6,10s-3,6-6,6S40,31.8,40,28z" stroke-linejoin="miter"></path>
<path data-color="color-2" fill="none" stroke="#c0343c" stroke-width="2" stroke-linecap="square" stroke-miterlimit="10" d="M20,14
	c0-3.8,6-10,6-10s6,6.2,6,10s-3,6-6,6S20,17.8,20,14z" stroke-linejoin="miter"></path>
<path data-cap="butt" fill="none" stroke="#c0343c" stroke-width="2" stroke-miterlimit="10" d="M10,34h2c4.6,0,9.6,2.4,12,6h8
	c4,0,8,4,8,8H22" stroke-linejoin="miter" stroke-linecap="butt"></path>
<path data-cap="butt" fill="none" stroke="#c0343c" stroke-width="2" stroke-miterlimit="10" d="M38.8,44H52c7.2,0,8,4,8,4L31.4,59.6
	c-2.2,1-4.8,0.8-7-0.2L10,52" stroke-linejoin="miter" stroke-linecap="butt"></path>
<rect x="2" y="30" fill="none" stroke="#c0343c" stroke-width="2" stroke-linecap="square" stroke-miterlimit="10" width="8" height="26" stroke-linejoin="miter"></rect></g></svg>