<?xml version="1.0" encoding="utf-8"?>
<!-- Generator: Adobe Illustrator 24.0.1, SVG Export Plug-In . SVG Version: 6.00 Build 0)  -->
<svg version="1.1" id="Layer_1" xmlns="http://www.w3.org/2000/svg" xmlns:xlink="http://www.w3.org/1999/xlink" x="0px" y="0px"
	 width="60px" height="40.84px" viewBox="0 0 60 40.84" enable-background="new 0 0 60 40.84" xml:space="preserve">
<g>
	<g>
		<path fill="#C0343C" d="M34.75,21.61c0,2.62-2.13,4.75-4.75,4.75s-4.75-2.13-4.75-4.75s2.13-4.75,4.75-4.75
			S34.75,18.99,34.75,21.61z"/>
		<path fill="#2E73D8" d="M30,0c0,0,0.95-0.1,2.15,0.85s25.48,25.33,25.48,25.33s1.45,1.5,1.5,3.4s-2.15,4.2-5.16,4.1H37.21
			l-6.65-6.98H43.5c0,0,3.37-0.73,0.51-3.73c-2.85-3-13.16-13.21-13.16-13.21s-0.2-0.3-0.85-0.3s-0.85,0.3-0.85,0.3
			S18.84,19.97,15.98,22.98c-2.85,3,0.51,3.73,0.51,3.73h12.95l-6.65,6.98H6.02c-3,0.1-5.21-2.2-5.16-4.1c0.05-1.9,1.5-3.4,1.5-3.4
			S26.65,1.8,27.85,0.85C29.05-0.1,30,0,30,0z"/>
		<path fill="#2E73D8" d="M54.55,38.4H5.45c0,0-3.26-0.33-5.45-3.58c0,0,2.36,6.02,3.91,6.02h52.18c1.55,0,3.91-6.02,3.91-6.02
			C57.8,38.08,54.55,38.4,54.55,38.4z"/>
	</g>
</g>
</svg>
