<?xml version="1.0" encoding="utf-8"?>
<!-- Generator: Adobe Illustrator 24.1.0, SVG Export Plug-In . SVG Version: 6.00 Build 0)  -->
<svg version="1.1" id="Layer_1" xmlns="http://www.w3.org/2000/svg" xmlns:xlink="http://www.w3.org/1999/xlink" x="0px" y="0px"
	 width="335px" height="137px" viewBox="0 0 335 137" style="enable-background:new 0 0 335 137;" xml:space="preserve">
<style type="text/css">
	.st0{fill:#A8AFBC;}
</style>
<g>
	<path class="st0" d="M151.7,66c-4.9,3.4-10.3,5.9-15.3,9.1c-4.8,3-9.9,5.5-14.9,8.2c-1.1,0.3-1,1.1-0.3,1.4
		c0.7,0.3,1.7,0.1,2.5,0.1c25.2,0,50.3,0,75.5,0c0.9,0,1.7,0,2.6,0c0.2,0,0.4-0.5,0.6-0.7c0.2-0.1,0.4-0.2,0.6-0.3c0,0,0-0.2,0-0.2
		c-2.6-1.4-5.3-2.7-7.8-4.2c-4.3-2.5-8.6-5.2-12.9-7.7c-3.4-1.9-6.9-3.5-10.1-5.7c-0.5-0.3-1.4-0.2-2.1-0.3
		c-0.1-1.1-0.9-0.6-1.5-0.7c0-0.1,0-0.3,0-0.4c-1.9-0.4-3.9-0.7-5.8-1.1c-2.2-0.5-4.3,0.4-6.3,0.9C154.9,64.7,153.1,65,151.7,66z"/>
	<path class="st0" d="M319.3,119.2c0-5.4,0-10.8,0-16.2c0-1.5,0-1.4-1.6-0.9c-0.7,0.2-1.4,0.2-2.1,0.3c-0.5,0.1-1.3-0.3-1.5,0.6
		c-0.2,1.2,0.8,0.9,1.5,0.9c0.1,0,0.3,0,0.3,0c0.1,1.6,0.2,3.3,0.2,4.9c0,0.1-0.5,0.1-1,0.2c-0.2-0.1-0.5-0.2-0.7-0.3
		c-0.9-0.6-1.8-0.6-2.7-0.1c-0.4,0-0.7,0.1-1,0.2c-0.3,0.1-0.5,0.3-0.7,0.5c-1.7,0.8-2,3-3.2,4.2c0.4,2.6-0.7,5.3,1.3,7.9
		c1.3,1.7,2.9,1.8,4.4,2c0.1,0.2,0.4,0.3,0.6,0.2c0.2-0.1,0.4-0.1,0.5-0.1c0.1,0,0.2,0,0.3,0c0,0,0,0,0,0c0,0,0,0,0,0
		c0,0,0.1,0,0.1,0c0.4,0,0.8-0.1,1.1-0.2c0.4-0.1,0.9-0.3,1.2-0.6c0,0,0.1,0.1,0.1,0.1c1.2,1,2.6-0.2,3.9-0.7c0.1-0.1,0-0.8,0-1.2
		C319.2,120.9,319.3,120,319.3,119.2z M309.8,117.8c-0.2-0.9-0.6-1.7-0.7-2.6c0-0.7,0.7-1.5,0.6-2.2c-0.1-1.8,0.9-2.6,2.3-3.2
		c0.7,0,1.5,0,2.2,0c0,0,0,0,0,0c1.7,0.8,2.4,2.1,2.2,4c-0.2,2.2,0,4.4-0.1,6.6c0,0.4-0.3,1.2-0.4,1.2c-1.5-0.2-3,0.5-4.5-0.6
		C310.3,120,310,119,309.8,117.8z"/>
	<path class="st0" d="M235.6,120.5c-1-0.7-0.9-1.6-0.9-2.6c0-4.8,0-9.5,0-14.2c0-1.2-0.4-1.5-1.5-1.3c-0.5,0.1-1,0-1.5,0
		c-0.6,0-1.6-0.4-1.5,0.9c0.1,0.9,0.9,0.5,1.5,0.6c0.2,0,0.5,0,0.7,0c0,1.1,0,2.2,0,3.3c-0.1,1.5-0.8,1.9-2.3,1.4
		c-2.8-0.8-5.7,0.9-6.6,4.1c-1.4,0.8-1.4,2.2-1.5,3.6c-0.1,1.6,0.4,3.1,1.1,4.3c1.8,3.2,3.6,3.7,7.2,2.6c0.4-0.1,2.7-1.2,2.9-1
		c1.2,1.1,0.7,1,1.8,0.6c0.6-0.2,0.2-0.6,0.8-1C235.6,121.4,236.1,120.8,235.6,120.5z M230.8,121.3c-1.5,0.8-3.5-0.3-4.4-2
		c-0.3-0.5-0.7-1-1.1-1.5c0-0.7,0-1.5,0-2.2c0-0.2,0-0.5,0-0.7c-0.4-1.3,0.3-2.4,0.8-3.3c1.1-2.2,3-2.4,5.8-1.1
		c0.2,0.7,0.7,1.5,0.7,2.2c0.1,2.1-0.2,4.2,0.1,6.2C232.9,120.6,231.6,120.9,230.8,121.3z"/>
	<path class="st0" d="M204.4,103.1c0.3-0.1,0.6-0.2,0.9-0.3c-3-0.4-6-0.5-9-0.4c-0.2,0-0.3,0.2-0.5,0.4c0.2,0.1,0.4,0.3,0.6,0.3
		c1.4,0,2.3,0.4,2.3,2c0,5.1,0,10.2,0,15.4c0,1-0.6,1.5-1.5,1.8c-0.5,0.2-1.2-0.5-1.3,0.5c0,0,0.9,0.2,1.3,0.2c1.7,0,3.4,0,5.1,0
		c0.2,1.4,1.3,0.6,2,0.7c0.3,0.1,0.7-0.4,1-0.6c-0.3-0.3-0.5-0.7-0.8-0.8c-0.7-0.3-1.4-0.5-2.2-0.8c0-5.4,0-10.7,0-16.1
		C202.4,103.7,202.6,103.6,204.4,103.1z"/>
	<path class="st0" d="M90.5,103.4c-1.2-0.6-2.5-1.2-4-1.1c-2.1,0.2-4.2,0-6.2,0c-0.4,0-0.7,0-1.1,0c-0.8,0.1-1.6,0.2-2.5,0.2
		c0.3,1.2,1.4,0,2,0.7c0.4,0.6,0.9,1,0.8,1.9c-0.1,5-0.1,9.9,0,14.9c0,0.8-0.3,1.4-0.9,1.8c-0.4,0.3-0.8,0.5-1.2,0.8
		c0.6,0.1,1.1,0.2,1.7,0.2c0.4,0,0.7,0,1.1,0c1.1,0,2.2,0,3.2,0c0.6,0,1.1-0.1,1.7-0.2c-0.5-0.3-1-0.6-1.3-1
		c-0.4-0.5-0.6-1.2-0.7-1.9c-0.1-1.9,0-3.8,0-5.7c1,0,1.9-0.1,2.8,0c2.2,0.4,3.9-0.9,5.7-1.7c0.2-0.1,0.2-0.8,0.2-1.3
		c0.2-0.3,0.6-0.6,0.7-1C94.3,107,93.6,105,90.5,103.4z M89.1,110.9c-1,0.8-2,1.6-3.3,1.8c-1.1,0.1-2.2,0-3.3,0c0-2.9,0-5.9,0-8.8
		c1.7,0,3.4,0,5.1,0c0.5,0.5,1,1,1.5,1.5c0.2,0,0.5,0,0.7,0c0,1,0,2,0,2.9C89.8,109.2,90.1,110.1,89.1,110.9z"/>
	<path class="st0" d="M124.8,109c-0.7,0.6-1.5,0.6-2.3,0.8c-0.1,0-0.1,0.8-0.2,1.2c1.2,0.1,1.4,0.9,1.3,2c-0.1,2.2,0,4.4,0,6.6
		c0,2.2,0,4.4,0,6.6c0,0.5,0.1,1,0,1.5c-0.3,1.2-2.6,1.7-2.8,0.8c-0.4-1.8-1.5-0.8-2.2-1c-0.2-0.1-0.7,0.2-0.8,0.4
		c-0.1,0.3,0.1,0.7,0.3,0.9c1.1,0.9,2.3,2,3.7,1.4c1.4-0.6,2.6-1.7,3.6-2.8c0.5-0.6,0.5-1.8,0.5-2.7c0.1-2.6,0-5.1,0-7.7
		c0-2.2,0-4.4,0-6.6C125.9,109.2,125.5,108.5,124.8,109z"/>
	<path class="st0" d="M304.9,120.8c-0.9,0.8-1.7,1.4-2.5-0.1c0-3.7,0-7.3,0-11c0.6,0,1.2,0,1.8,0c0.1,0,0.3-0.2,0.2-0.2
		c0-0.2-0.2-0.5-0.2-0.5c-0.6,0-1.2,0-1.8,0c0-0.9,0.1-1.9,0-2.8c0-0.3-0.5-0.6-0.7-0.9c-1.4,1.3-2,3.4-4.2,3.8
		c0.1,0.2,0.2,0.4,0.4,0.6c0.2,0.2,0.8,0.3,0.8,0.5c0.1,1.1,0,2.2,0,3.3c0.1,1.2,0.1,2.4,0.3,3.5c0.2,0.8,0.3,1.7,0.3,2.5
		c0.1,2.5-0.1,2.6,1.7,3.5c2.4,1.2,3.3-0.4,3.6-0.6c0.1-0.2,0.6-0.5,0.8-0.8c0.2-0.2,0.3-0.5,0.4-0.8
		C305.6,120.9,305.1,120.7,304.9,120.8z"/>
	<path class="st0" d="M259.5,121.5c-1,0.1-1.3-0.3-1.2-1.2c0.1-2.6,0.1-5.1,0-7.7c0-1.9-1.1-3.1-2.9-3.6c-1.2-1.1-2.5-1.1-3.7,0
		c-1.6,0-2.8,0.8-3.4,2.3c-0.3,0.7,0,1.7,0.7,2c0.9,0.4,1.5-0.3,1.7-0.9c0.3-0.6,0.1-1.4,0.2-2.1c0.1-0.9,0.9-0.5,1.5-0.6
		c0.5,0,1,0,1.5,0c1.2,0.3,1.6,1.2,1.5,2.3c0,0.7,0,1.4,0,2.1c-2.7,0.3-5.2,1.1-6.6,3.7c-1.3,0.3-1.6,1.3-1.5,2.4
		c0.1,0.7,0,1.6,0.4,1.9c0.9,0.7,2.3,1.7,2.9,1.4c1.3-0.6,3.5,0,4-2.1c-0.9-0.1-1.9,0-2.7-0.2c-1.3-0.4-2.1-1.2-1.7-2.7
		c0.7-0.8,1.4-1.6,2.1-2.4c0.9-1,2.1-0.3,3.1-0.5c0,1.1,0.1,2.2,0,3.3c-0.1,0.9-0.5,1.7-0.7,2.6c0.2,0.1,0.5,0.1,0.6,0.3
		c1.6,2.4,2.9,2.6,4.8,0.6C261,121.3,260,121.4,259.5,121.5z"/>
	<path class="st0" d="M268.2,108.3c-0.1-0.1-0.1-0.3-0.2-0.4c-0.2-0.5-0.6-1-1-1.4c0,0-0.1-0.1-0.1-0.1c-0.3-0.6-0.9-1.1-1.6-1.4
		c-0.5-0.5-1.2-1-1.8-1.3c-0.2-0.1-0.6-0.1-0.8,0.2c-0.1,0.3-0.1,0.6,0.2,0.8c0.4,0.3,0.9,0.6,1.2,0.9c0,0.4,0,0.7,0.1,0.8
		c1.9,1.2,1.3,3,1.6,4.7c0,0.1,0.4,0.2,0.6,0.2c0,2.7,0,5.4,0,8.1c-0.8,1-0.8,2-0.8,3.1c0,0.1-0.1,0.2-0.1,0.3
		c-0.2,0.4-0.5,0.9-0.7,1.3c-0.1,0.1-0.1,0.2-0.1,0.4c-0.1,0-0.1,0.1-0.2,0.1c-0.1,0.1-0.2,0.2-0.3,0.3c0,0,0,0.1,0,0.1
		c-0.1,0-0.1,0.1-0.2,0.2c-0.1,0.1-0.2,0.3-0.3,0.4c-0.8,0.7-1.7,1.5-2.5,2.2c-0.1,0.1,0,0.7,0.1,0.9c0.2,0.2,0.8,0.3,0.9,0.1
		c0.8-0.8,1.6-1.7,2.3-2.6c0.1-0.1,0.2-0.2,0.3-0.3c0.4,0,0.6-0.2,0.7-0.4c0.4-0.3,0.8-0.6,1-1c0,0,0.1,0,0.1-0.1
		c0.9-1.7,2.4-3.4,2.5-5.1c0.2-3.3,0.8-6.7-0.6-9.9C268.9,108.7,268.6,108.4,268.2,108.3z M267.2,107.3
		C267.3,107.3,267.3,107.3,267.2,107.3L267.2,107.3z"/>
	<path class="st0" d="M171.5,114.1c-2.4-1.1-2.6-2-1.4-4.4c3-0.6,4.8,0.7,5.6,3.8c0.2-1.3,0.3-2.5,0.2-3.7c0-0.3-0.5-0.7-0.8-0.8
		c-0.7-0.2-1.4-0.1-2-0.4c-1.8-0.9-3.2-0.2-4.5,1.1c-1.2,0.7-1.4,1.9-1.5,3.2c-0.1,1.2,0.9,1.7,1.5,2.3c1,0.9,2.1,2,3.3,2.5
		c1.8,0.7,2.7,1.8,2.5,3.7c0,0,0,0,0,0.1c-0.3,0.3-0.6,0.6-1,1c-0.3,0.1-0.6,0.2-0.9,0.2c-0.6,0.1-1.3,0.1-2,0
		c0-0.1-0.1-0.2-0.2-0.2c-0.1,0-0.1-0.1-0.2-0.1c0,0-0.1-0.1-0.1-0.1c-1.8-0.5-1.6-2.6-2.9-3.8c0,0.7-0.1,1.1-0.1,1.5
		c0,2.2,0,2.8,1.2,3c0,0,0,0,0,0c0.1,0.1,0.2,0.2,0.4,0.2c0,0,0.1,0,0.1,0c0.1,0,0.2,0,0.4,0.1c0,0.1,0.1,0.1,0.2,0.1
		c1,0.7,2.2,0.6,3.3,0.5c0.6-0.1,1.2-0.2,1.6-0.5c0.1-0.1,0.3-0.2,0.4-0.3c1.1,0,1.1-0.3,1.2-1.5c1.2-2.5,1.1-2.9-0.5-4.6
		C174.2,115.7,173,114.8,171.5,114.1z"/>
	<path class="st0" d="M243.6,120.6c0-3.2,0-6.4,0-9.5c0-0.5,0.3-1.3-0.7-1.3c-0.2-0.2-0.4-0.5-0.6-0.7c-0.3,0.2-0.6,0.5-0.9,0.7
		c-0.7,0-1.5-0.1-2.2,0c-0.3,0-0.7,0.3-0.7,0.6c0,0.3,0.3,0.9,0.4,0.8c1.9-0.3,1.8,0.8,1.8,2.2c-0.1,2.1-0.1,4.2,0,6.2
		c0,1.3-0.1,2.4-1.7,2.7c-0.2,0-0.4,0.2-0.5,0.4c0.2,0.1,0.4,0.3,0.6,0.3c1.8,0,3.7,0,5.5,0c0.1,0,0.1-0.4,0.2-0.7
		C243.3,122.4,243.6,121.4,243.6,120.6z"/>
	<path class="st0" d="M67.8,103.1c0-1.4,0-1.2-1.7-1c-1.1,0.2-2.3,0.1-3.4-0.2c-3.3-0.8-6.3-0.6-8.9,1.8c-0.4,0-0.9-0.1-1.1,0
		c-1,1.5-2.5,2.7-3.1,4.5c-0.4,1.3-1.2,2.7-0.9,3.9c0.2,0.9,0.7,1.7,0.6,2.6c-0.3,3,1.5,4.8,3.4,6.6c0.1,0.1,0.2,0.1,0.3,0.1
		c0,0,0,0,0,0c0.4,0.4,0.9,0.7,1.4,1c0.1,0.1,0.2,0.2,0.4,0.3c0.1,0,0.2,0.1,0.3,0.1c0.2,0.1,0.4,0.2,0.5,0.2c0.1,0,0.2,0,0.3,0
		c1.1,0.2,2.2,0.4,3.2,0.5c1.8,0.2,3.4-1.2,5.2-0.7c0.7-0.9,2.4-0.7,2.6-2.2c0.2-0.3,0.5-0.5,0.7-0.8c0.1-0.1-0.2-0.4-0.3-0.5
		c-0.2,0.2-0.3,0.4-0.5,0.6c-0.4,0-0.9-0.2-1.1,0c-1.6,1.6-3.6,1.5-5.6,1.4c-0.8,0-1.7,0.1-2.5,0c-0.9-0.1-1.7-0.5-2.6-0.7
		c0.1-1.1-0.3-1.9-1.5-2.2c-0.2-1.2-0.6-2.5-0.7-3.7c-0.1-1.4,0-2.9,0-4.4c0-0.5,0-1,0-1.5c0.2-0.1,0.6-0.2,0.6-0.2
		c-0.3-1.5,1.1-2.2,1.6-3.4c0,0,0.1,0,0.1-0.1c0,0,0,0,0,0c0.2-0.1,0.4-0.1,0.5-0.2c1.8-1.9,3.8-2.6,6.3-1.2c0.6,0.3,1.2,0.6,2,0.7
		c0,0,0,0,0,0c0,0.1,0.1,0.2,0.1,0.2c0,0,0.1,0.1,0.1,0.1c0.1,0,0.1,0,0.2,0.1c0.1,0.1,0.2,0.2,0.3,0.3c0,0,0.1,0.1,0.1,0.1
		c0,0,0,0,0,0c0,0,0,0,0,0.1c0,0.1,0.1,0.1,0.1,0.2c0.1,0.1,0.2,0.3,0.2,0.4c0,0.1,0.1,0.1,0.1,0.2c0,0,0,0,0,0c0,0,0,0,0,0
		c0,0.1,0,0.2,0.1,0.3c0.1,0.2,0.3,0.4,0.4,0.5c0.2,0.2,0.3,0.3,0.5,0.4c0.1,0,0.1,0.1,0.2,0.1c0,0,0,0,0,0c0.1,0.2,0.2,0.5,0.4,0.7
		c0.1,0.2,0.3,0.4,0.5,0.6c0.1-0.2,0.2-0.4,0.2-0.6c0-0.5,0-1,0-1.4C67.8,105.6,67.8,104.4,67.8,103.1z M65.4,105.2
		C65.4,105.2,65.4,105.2,65.4,105.2C65.4,105.2,65.4,105.2,65.4,105.2C65.4,105.2,65.4,105.2,65.4,105.2z"/>
	<path class="st0" d="M118.8,113.4c-0.3-0.7,0.6-2.5-1.3-2.3c-0.2-1-0.8-1.3-1.5-1.5c-0.1-0.2-0.2-0.3-0.4-0.4
		c-0.4-0.3-0.8-0.6-1.3-0.8c-0.1,0-0.2,0-0.3,0c-0.4-0.7-1.3-0.1-1.9-0.2c-0.9-0.1-1.7,0.1-2.4,0.6c-0.7,0.2-1.3,0.6-1.8,1.2
		c-1.6,0.7-2.5,2-2.6,3.7c-0.1,1.1,0.1,2.2,0,3.3c-0.2,2.3,1.5,3.5,2.6,5.1c0.4,0.7,1,0.8,1.6,0.8c0.1,0.2,0.3,0.3,0.5,0.2
		c0.2,0,0.4,0,0.6,0c0.1,0.1,0.3,0.2,0.4,0.2c0.2,0,0.4,0,0.6,0c0.5,0.4,1,0.4,1.5,0c0.2,0,0.4,0.1,0.6,0c0.3-0.1,0.5-0.3,0.7-0.4
		c1.7-0.1,2.8-1.1,3.5-2.9C119.9,118.1,119.7,115.7,118.8,113.4z M115.8,119.6c-0.4,1.1-0.9,1.7-1.6,2.2c0,0-0.1,0-0.1,0
		c-0.2,0.1-0.3,0.2-0.4,0.3c-0.1,0-0.2,0.1-0.3,0.1c-0.1,0-0.3,0-0.4,0c-0.1,0-0.1,0-0.2,0c-0.2,0-0.4,0-0.6,0c-0.1,0-0.2,0-0.3,0
		c-0.1,0-0.2,0-0.3,0c-0.1-0.1-0.2-0.2-0.4-0.2c0,0-0.1,0-0.1,0c-1.9-1.7-3-3.8-2.8-6.5c0.1-1,0-1.9,0-2.9c0-0.8,0-1.2,0.1-1.5
		c0.1,0,0.2-0.1,0.3-0.2c0,0,0-0.1,0.1-0.1c0,0,0,0,0,0c0,0,0,0,0,0c0-0.1,0.1-0.1,0.1-0.2c0.1-0.1,0.2-0.2,0.3-0.3
		c0,0,0.1,0,0.1-0.1c0.1,0,0.1-0.1,0.2-0.1c0.1-0.1,0.2-0.1,0.3-0.2c0.1-0.1,0.3-0.1,0.4-0.1c0.1,0,0.2-0.1,0.3-0.2
		c0.7,0,1.4,0,2.1,0c0.5,0.2,1.1,0.2,1.4,0.6c0.6,0.5,0.9,1.3,1.4,1.9c0.4,0.6-0.5,1.8,0.8,1.9C116.1,115.9,116.5,117.7,115.8,119.6
		z"/>
	<path class="st0" d="M139.1,114.1c0.7,0,1.4,0,2.2,0c0.2,0,0.4-0.3,0.7-0.5c-1.3-0.3,0.2-2.3-1.4-2.5c0-0.2,0.1-0.6,0-0.7
		c-1.5-1.4-3.4-2.7-5.4-2.1c-1.5,0.5-3.6,0.7-4.1,2.8c-1.2,1.8-1.6,3.8-1.5,5.9c0.1,2.8,1.6,4.5,3.8,5.8c2.1,1.2,2.8,1.1,5.8-0.7
		c0.2-0.1,0.5-0.1,0.6-0.3c0.7-1.1,2.6-1.4,2.2-3.2c-0.9,0.9-1.8,1.8-2.8,2.7c-0.2,0-0.5,0-0.7,0c-1.6,0.3-3-0.4-4.3-1.1
		c-1.2-0.6-1.1-2.5-1.8-3.5c-0.8-1.3-0.3-1.9,0.1-2.7C134.7,114.1,136.9,114.1,139.1,114.1z M137.7,111.6c0.1,0.1,0.2,0.2,0.3,0.3
		c0.6,1.2,0.5,1.5-0.7,1.5c-1.8,0-3.6,0-5.4,0c0,0,0,0,0-0.1c0,0,0-0.1,0-0.2c0,0.1,0,0.1,0,0c0,0,0-0.1,0-0.1c0-0.1,0-0.2,0.1-0.3
		c0-0.1,0-0.1,0.1-0.2c0,0,0,0,0,0c0,0,0,0,0-0.1c0.2-0.4,0.4-0.8,0.7-1.1c0.1-0.1,0.1-0.3,0.1-0.4c0.2-0.2,0.4-0.3,0.6-0.5
		C135.3,109,136.5,109.3,137.7,111.6z"/>
	<path class="st0" d="M219.3,121.5c0-3.1,0-6.3,0-9.4c0-0.9-0.3-1.6-1-2.2c-2.1-2-3.4-2.1-5.8-0.4c-0.5,0.3-0.9,0.7-1.4,1
		c-0.1-2.4-0.1-2.4-2.1-1.5c-0.2,0.1-0.4,0.1-0.7,0.2c-0.4,0.2-0.5,0.8-0.3,1.5c0.1,0.2,0.1,0.5,0.1,0.7c0,2.9,0,5.9,0,8.8
		c0,0.4-0.2,0.9-0.4,1.3c-0.8,1.4-0.8,1.4,0.5,1.5c1.2,0,2.4,0,3.7,0c0.2,0,0.4-0.2,0.6-0.3c-0.2-0.1-0.4-0.4-0.5-0.4
		c-1.3,0-0.9-0.9-0.9-1.5c0-2.9,0-5.9,0-8.8c0.4-0.3,0.9-0.4,1.1-0.8c0.9-1.1,2-0.8,3-0.5c1,0.3,1.1,1.4,1.1,2.4
		c-0.1,2.8,0,5.6,0,8.4c-0.5,0.4-1,0.7-1.5,1.1c0.7,0.1,1.3,0.3,2,0.4c0.7,0.1,1.8-0.2,2,0.1c0.9,1.2,1.3-0.5,2-0.2
		c0.1,0,0.4-0.2,0.5-0.3c-0.2-0.1-0.4-0.3-0.6-0.4C220.4,122,219.4,122.7,219.3,121.5z"/>
	<path class="st0" d="M102.1,108.3c-0.4,0.4-1.1,1-1.8,1.7c0,0,0,0,0,0c-0.4,0.3-0.9,0.7-1.3,1.1c-0.1,0-0.1-0.1-0.1-0.1
		c-0.2-0.6-0.4-1.3-0.5-1.9c-0.6,0.2-1.3,0.7-1.9,0.7c-2.1,0-1.1,0.6-0.4,1.4c0.3,0.4,0.5,1.1,0.5,1.6c0.1,2.2-0.1,4.4,0.1,6.6
		c0.2,1.8-0.6,2.8-2.3,3.5c1.6,0.2,3.2,0.2,4.7,0.2c0.6,0,1.2-0.1,1.8-0.2c-0.5-0.3-1-0.6-1.4-1.1c-0.3-0.4-0.6-1-0.6-1.5
		c-0.1-2.4,0-4.8,0-7.2c0,0,0,0,0,0c0,0,0,0,0,0c0,0,0,0,0,0c0,0,0,0,0,0c0,0,0-0.1,0.1-0.1c0-0.1,0.1-0.1,0.1-0.2c0,0,0,0,0,0
		c0,0,0,0,0,0c0,0,0,0,0,0c0,0,0,0,0,0c0,0,0,0,0,0c0.2-0.2,0.4-0.4,0.6-0.6c0,0,0,0,0.1-0.1c0.4-0.1,0.5-0.2,0.5-0.4
		c0.3-0.2,0.6-0.5,0.9-0.7c0.1-0.1,0.1-0.1,0.1-0.2c0.5,0.2,0.8,0.9,1.3,1.2c0.3,0.2,0.8,0.3,0.9,0.2c0.6-0.5,1.3-1,1.1-2
		C104.4,108.8,103.6,108.2,102.1,108.3z"/>
	<path class="st0" d="M325.9,120c-1-0.4-2,0.5-2.1,1.7c-0.1,0.5,1.3,2,1.7,1.7c0.7-0.4,1.3-1.1,2-1.7
		C326.9,121.1,326.5,120.3,325.9,120z"/>
	<path class="st0" d="M174.3,12.5c0.1-1.3,0.5-1.4,1.3-0.4c0.1,0.2,0.4,0.3,0.6,0.4c0,0,0.1,0.1,0.2,0.1c0,0,0,0,0,0c0,0,0,0,0,0
		c0.1,0,0.1,0,0.2,0c0.7,0,0.7-1.1,0-1.1c0-1.1,0-2.1,0-3.2c-0.4,0.2-0.9-0.1-1.2,0c-0.2,0-0.4,0-0.6,0c-0.4,0-0.8,0.2-1,0.6
		c-0.1,0.1-0.2,0.3-0.2,0.5c0,0.1,0,0.1,0,0.2c0,0,0,0,0,0.1c0,0,0,0,0,0c-0.1,0.2-0.1,0.6,0.1,0.7c0,0.8,0,1.6,0,2.4
		C173.9,12.7,174.3,12.6,174.3,12.5z M175.3,10.5c-0.4,0.1-0.7-0.1-0.8-0.3c0,0,0,0,0,0c0.1-0.2,0.1-0.5,0.2-0.7c0,0,0,0,0,0
		c0,0,0,0,0,0c0,0,0,0,0.1,0c0,0,0,0,0,0c0.1,0,0.3,0,0.4,0c0,0,0.1,0,0.1,0C175.7,10.2,175.5,10.5,175.3,10.5z M175.5,9.4
		C175.5,9.4,175.5,9.4,175.5,9.4C175.5,9.4,175.5,9.4,175.5,9.4C175.5,9.4,175.5,9.4,175.5,9.4z M174.8,9.4
		C174.8,9.4,174.8,9.4,174.8,9.4C174.8,9.4,174.8,9.4,174.8,9.4C174.8,9.4,174.8,9.4,174.8,9.4z"/>
	<path class="st0" d="M242,104.6c1.3,0,0.8-0.9,0.9-1.5c0-0.7,0.3-1.6-0.9-1.5c-1,0.1-2,0.8-2,1.5C239.9,103.8,241,104.5,242,104.6z
		"/>
	<path class="st0" d="M125.1,101.6c-0.9-0.1-2.1,0.6-2.2,1.3c-0.1,0.7,0.8,1.5,1.9,1.6c1.2,0.2,1.1-0.6,1.1-1.3
		C125.9,101.8,125.9,101.7,125.1,101.6z"/>
	<path class="st0" d="M296.5,118.7c0-0.2-0.1-0.4-0.1-0.7c-0.3,0.1-0.6,0.1-0.8,0.3c-0.5,0.5-0.9,1.1-1.3,1.6
		c-0.3,0.9-0.7,1.5-1.7,1.5c-1.1,0-2.2,0-3.3,0c-5.7,0-5.3,0.5-5.3-5.3c0-3.3,0-6.6,0-9.9c0-1.8,0.7-2.7,2.3-3.2
		c0.2-0.1,0.4-0.2,0.6-0.3c-0.1-0.1-0.3-0.4-0.4-0.4c-2.6,0-5.1,0-7.7,0c-0.2,0-0.4,0.2-0.6,0.3c0.2,0.1,0.3,0.3,0.5,0.4
		c1.3,0.3,1.7,1,1.7,2.3c0,4.9-0.1,9.8,0,14.7c0,1.2-0.4,1.8-1.5,2.2c-0.2,0.1-0.4,0.3-0.7,0.5c0.2,0.1,0.4,0.2,0.6,0.2
		c5.4,0,10.8,0,16.2,0c1.4-0.3,0.5-1.5,0.7-2.2c0-0.2,0-0.5,0-0.7C296.8,120,296.5,119.2,296.5,118.7z"/>
	<path class="st0" d="M164.5,121.5c-0.4,0-0.7,0-1.1,0c-1.2,0.2-1.7-0.3-1.5-1.5c0-2.4,0-4.9,0-7.3c0-0.7,0-1.5,0-2.2
		c1-0.3,2.8,0.6,2.8-0.6c0-1.7-1.8-0.6-2.8-0.9c0-1.2,0-2.4,0-4c-1.6,1.6-2.9,2.8-4.1,4.1c-0.6,0.6-0.7,1.2,0.5,1.5
		c0.3,0.1,0.6,0.4,0.6,0.6c0.1,0.7,0,1.4,0,2.2c0,2.3-0.1,4.6,0.1,6.9c0.1,1,0.7,1.9,1.1,2.8c0.1,0.1,0.7,0,1,0c0.7,1,1.5,1,2.2,0
		c0.2-0.2,0.5-0.5,0.7-0.7c0.1,0,0.2,0,0.4,0c0.7,0.1,1.3-0.1,1.1-0.9C165.1,120,164.9,121.5,164.5,121.5z"/>
	<path class="st0" d="M193.4,127.4c-0.3-0.3-0.5-0.5-0.8-0.8c-0.1-0.1-0.2-0.2-0.4-0.2c0-0.1,0-0.1,0-0.2c0,0,0,0,0-0.1c0,0,0,0,0,0
		c0.1-0.2,0.1-0.5-0.1-0.7c-0.1-0.2-0.2-0.3-0.4-0.3c-0.2-0.5-0.4-1-0.6-1.4c0-0.1-0.1-0.2-0.2-0.3c-0.2-0.4-0.3-0.7-0.5-1.1
		c0,0,0,0,0,0c-1.7-4.9-1.6-9.5-0.4-13.7c0.2-0.6,0.8-1.1,0.7-1.9c0.6-0.8,1.2-1.6,1.8-2.4c0.4-0.4,0.9-0.8,1.4-1.2
		c0.1-0.1,0.2-0.2,0.2-0.4c0.1-0.1,0.2-0.2,0.3-0.3c0.1-0.1-0.3-0.5-0.4-0.7c-0.4,0.7-1.9,0.5-1.9,1.6c-0.3,0.3-0.6,0.5-0.8,0.8
		c-1,0.4-1.5,1-1.8,2.1c-0.2,0.3-0.4,0.5-0.6,0.8c0,0.1-0.1,0.1-0.1,0.2c-1.6,1.3-2.2,3.1-2.4,5.1c-0.1,1.7,0.2,3.4-0.1,5.1
		c-0.3,2,1.8,3.2,1.7,5.2c0,0.4,0.6,0.8,1.2,1.2c0,0.1,0,0.1,0,0.1c0.4,0.8,1,1.5,1.7,2c0.1,0.6,0.4,0.9,0.9,1.1
		c0,0.1,0.1,0.2,0.2,0.3c0.3,0.3,0.6,0.5,0.9,0.8c0,0,0.1,0.1,0.2,0.1c0.1,0.3,0.3,0.5,0.8,0.5c0.3,0,0.5-0.3,1-0.7
		c-0.5-0.3-0.8-0.6-1.1-0.7C193.5,127.3,193.4,127.4,193.4,127.4z"/>
	<path class="st0" d="M155.4,118.6c-0.3,0.2-0.6,0.4-0.8,0.8c-0.1,0.2,0,0.4,0,0.7c-0.7,0.2-1.5,0.6-2.2,0.7c-1,0.1-1.9,0-2.9,0
		c-2.2-1.2-3.1-3.1-3-5.5c0.1-1.1,0-2.2,0-3.3c1.7-1.4,3.4-2.9,5.9-2.2c0,0.6-0.1,1.2,0,1.8c0.1,1.3,0.9,1.8,2.1,1.9
		c1.3,0.1,0.5-1.5,1.4-1.7c-0.2-0.6-0.3-1.3-0.7-1.7c-0.2-0.3-0.9-0.2-1.3-0.3c-0.6-0.5-1.1-1.3-1.7-1.4c-2.7-0.3-5,0.3-6.4,2.9
		c-1.7,1.5-2.7,4.2-2.2,6.6c0.5,2,1.3,4.3,3.3,5.1c2,0.8,4.3,1.3,6.2-0.6c0.7-0.7,1.5-1.5,2.2-2.2c0.2-0.3,0.5-0.6,0.7-0.9
		C156,119,155.5,118.5,155.4,118.6z"/>
	<path class="st0" d="M45.7,122.2c-0.7-0.9-0.7-1.9-0.7-3c0-5.4,0-10.7,0-16.1c0.6,0,1.2,0,1.8,0c0.1,0,0.3-0.2,0.2-0.2
		c0-0.2-0.1-0.5-0.2-0.5c-0.6,0-1.2,0-1.8,0c-0.8,0-1.7,0-2.5,0c-1.8,0-1.8,0-1.9,2.2c-0.5,0.3-1.4,0.9-1.3,1
		c0.7,1.8-1.5,2.3-1.7,3.7c-0.2,1.3-0.8,2.6-1.5,3.7c-0.7,1.1-1.3,2.1-1.4,3.5c0,0.9-0.9,0.5-1.4,0.6c-0.8-2.8-1.9-5.5-3.3-8
		c-0.9-1.7-1.1-3.7-2.6-5.1c0.4-1.7-0.8-1.6-1.9-1.6c-0.8,0-1.7,0-2.5,0c-0.4-0.1-0.9-0.1-1.3-0.2c-0.3-0.1-0.5-0.2-0.8-0.2
		c0,0.3-0.1,0.9,0,0.9c0.4,0.2,0.9,0.2,1.3,0.3c0.2,0.8,0.7,1.5,0.7,2.3c0.1,4.9,0,9.8,0.1,14.7c0,0.8-0.2,1.4-0.8,1.9
		c-0.4,0.3-0.9,0.5-1.3,0.8c0.6,0.1,1.2,0.2,1.7,0.2c0.6,0,1.2,0,1.8,0c0.7,0,1.5,0,2.2,0c0.3,0.2,0.2-0.7,0-0.7
		c-1.2,0.2-1.7-0.3-1.5-1.5c0-0.2,0-0.5,0-0.7c0-1.2,0.1-2.3,0-3.5c0-0.1-0.1-0.2-0.2-0.3c0-1.2-0.1-2.4-0.1-3.6
		c0.8-0.4,0.1-1.3,0.3-1.9c0.3-0.8-0.7-2,0.7-2.4c0.1,0.5,0.1,1,0.3,1.3c0.8,1.5,2.4,2.9,2.5,4.4c0,1.7,1.8,2.1,1.8,3.8
		c0,1.3,1.3,2.6,1.9,3.9c0.2,0.4,0.4,0.8,0.5,1.2c0.3-0.3,0.8-0.6,1-1.1c0.4-0.8,0.5-1.7,0.8-2.6c0.2-0.2,0.7-0.3,0.7-0.6
		c0.7-3.3,3.2-6,3.8-9.4c0.1-0.7,0.8-1.4,1.2-2c0.1-0.2,0.3-0.3,0.5-0.5c0.1,0.2,0.3,0.4,0.3,0.6c0,4.6,0,9.2,0,13.9
		c0,0.3-0.4,0.7-0.7,0.9c-0.4,0.3-0.9,0.4-1.4,0.5c0.5,0.1,0.9,0.2,1.4,0.2c0.5,0,1,0,1.5,0c0.7,0,1.5,0,2.2,0c0.7,0,1.5,0,2.2,0
		c0.2,0,0.4-0.3,0.6-0.5c-0.3-0.1-0.7-0.2-1-0.2C46,122.2,45.8,122.2,45.7,122.2z"/>
	<path class="st0" d="M18.8,102.4c-0.6,0-1.2,0-1.8,0c-1.5,0-2.9,0-4.4,0c-0.2-0.1-0.5-0.1-0.6-0.3c-0.4-0.5-0.7-0.5-1,0
		c-0.2,0.2-0.3,0.5-0.4,0.8c0.3,0.1,0.7,0.2,1,0.2c0.4,0,0.7,0,1.1,0c0,0.2,0,0.5,0,0.7c0,5.1,0,10.2,0,15.3c0,0.6,0,1.2,0,1.8
		c0,0.6,0.1,1.3-0.8,1.1c-0.3-0.1-0.5-0.6-0.6-1c-0.5-1.5-1.8-2-2.8-0.9c-0.4,0.4-1,1.3-0.9,1.4c0.7,0.8,1.4,1.8,2.3,2
		c1.6,0.4,3.3,0.1,4.7-0.8c0.1-0.1,0.2-0.2,0.2-0.4c0.3-0.2,0.5-0.4,0.7-0.6c0-0.1,0.1-0.1,0.1-0.2c0.2-0.2,0.4-0.4,0.5-0.6
		c0-0.1,0.1-0.1,0.1-0.2c0-0.1,0-0.1,0-0.2c0.2-0.4,0.2-0.9,0.2-1.5c0-4.3,0-8.7,0-13c0-1.1,0-2.1,0.7-2.9c0.6,0,1.2,0,1.8,0
		c0.1,0,0.3-0.2,0.2-0.2C19,102.7,18.9,102.4,18.8,102.4z"/>
	<path class="st0" d="M205.3,77.4c0.1-1.3-0.5-2.2-1.5-2.9c0.1-1.1-0.3-1.9-1.5-2.2c-0.2-0.5-0.3-1.1-0.5-1.6c-1.6-2.9-3-5.9-5-8.5
		c-1.3-1.7-1.6-4-3.4-5.3c0.1-1.1-0.3-1.9-1.5-2.2c0-0.4,0.1-0.8,0-1.1c-1.2-1.8-2.6-3.6-3.6-5.5c-1.6-2.9-3.3-5.7-5.1-8.5
		c-1.8-2.9-3.6-5.9-5.1-8.9c-3.3-6.3-7.4-12-10.5-18.3c-0.2-0.5-0.9-0.7-1.4-1.1c0-0.1,0-0.3,0-0.4c-0.3-0.8-0.7-1.7-1-2.5
		c-0.9,0.7-0.4,1.7-0.4,2.6c-0.1,2.2,0,4.4,0,6.6c0,9,0,18,0,27c0,0.7-0.7,1.8,0.7,2c0.1,1.2-0.1,2.5,0.3,3.5
		c1.6,4.6,4.9,8.1,9.4,11.2c3.3,2.3,7.1,3.7,10.5,5.8c1.7,1.1,3.4,2.2,5.3,3.1c3.2,1.6,6.1,3.7,9.2,5.3c1.4,0.7,2.6,2,4.4,1.9
		c0.1,1.1,0.9,0.6,1.5,0.7C205.8,77.9,205.6,77.6,205.3,77.4z"/>
	<path class="st0" d="M118.5,78.1c1.7,0.4,2.3-1.4,3.6-1.9c4.5-1.9,8.5-4.8,12.9-7.1c4.2-2.2,8.4-4.6,12.5-7.2
		c3.1-1.9,6.1-3.9,8-7.2c2-3.4,3.5-6.9,3.5-11c-0.1-11,0-22,0-33c0-0.8,0-1.6,0-2.4c-0.8,0.9-1.1,2-1.7,2.7
		c-1.6,1.9-2.5,4.1-3.8,6.2c-1.3,2-2.8,3.9-3.4,6.3c-0.7,2.4-3.2,3.5-4.1,6c-0.9,2.6-3,4.8-4.3,7.4c-2.1,4.1-4.7,8.1-7,12.1
		c-2.4,4.1-4.7,8.3-7.3,12.4c-0.9,1.4-1.2,3-2.3,4.2c-1.1,1.1-1.4,2.9-2.6,4.1c-0.6,0.6-0.6,1.7-0.8,2.6c-1.2,0.3-1.6,1.1-1.5,2.2
		c-0.3,0.5-0.7,0.9-1,1.4c-0.2,0.5-0.3,1-0.5,1.6c-0.2,0.3-0.5,0.5-0.7,0.8c-0.1,0.1,0.2,0.4,0.3,0.5
		C118.2,78.5,118.4,78.3,118.5,78.1z"/>
	<path class="st0" d="M206.1,78.4c0.1,0.1,0.3,0.2,0.4,0.3c0,0,0.1-0.1,0.2-0.2c-0.1-0.1-0.2-0.3-0.3-0.4
		C206.3,78.2,206.2,78.3,206.1,78.4z"/>
	<path class="st0" d="M98.9,112.5C98.9,112.5,98.9,112.5,98.9,112.5C98.9,112.5,98.9,112.5,98.9,112.5
		C98.9,112.5,98.9,112.5,98.9,112.5z"/>
	<path class="st0" d="M171.5,9.9C171.5,9.9,171.5,9.9,171.5,9.9c-0.1,0.7,0,1.4,0,2.1c0.5,0.6,0.9,1.4,1.5,1.8
		c2,1.6,2.5,1.5,5.1-0.4c-1.2,0-2.4,0.1-3.5,0c-0.3,0-0.6-0.5-0.9-0.7c-0.5-0.2-1-0.5-1.5-0.7c0-0.7,0-1.4,0-2.1
		c0.1-0.1,0.2-0.3,0.2-0.4c0,0,0-0.1,0-0.1c0,0,0,0,0-0.1c0-0.1,0-0.2,0.1-0.2c0,0,0,0,0,0c0,0,0,0,0,0c0,0,0,0,0,0
		c0.2-0.2,0.4-0.4,0.5-0.6c0,0,0,0,0,0c0,0,0,0,0,0c0,0,0,0,0,0c0.1,0,0.1-0.1,0.2-0.1c0.1-0.1,0.3-0.2,0.4-0.2c0,0,0,0,0.1,0
		c0,0,0,0,0.1,0c0.1,0,0.1,0,0.2-0.1c0.2,0,0.3-0.1,0.5-0.1c0,0,0,0,0,0c0,0,0.1,0,0.1,0c0.1,0,0.2,0,0.3,0c0.2,0,0.3-0.1,0.4-0.2
		c0.2,0,0.4,0,0.7,0c0,0,0,0,0,0c0.1,0.1,0.2,0.1,0.4,0.2c-0.1,0-0.1,0,0,0c0,0,0,0,0.1,0c0.1,0,0.1,0,0.2,0c0,0,0,0,0,0
		c0,0.2,0,0.3,0,0.5c0.4,0,0.7,0,1.1,0c0.1,0.1,0.1,0.1,0.2,0.2c0,0,0,0,0,0c0,0,0.1,0.1,0.1,0.1c0,0,0,0,0,0c0,0.1,0,0.1,0,0.2
		c0,0,0,0.1,0,0.1c0,1.5,0,3,0,4.5c1.2-0.7,1.5-1.8,1.5-3.1c0-0.6-0.1-1.1-0.5-1.4c0-0.1,0-0.2,0-0.3c-0.1-0.6-0.6-1-1.1-1.4
		c-0.5-0.3-1.1-0.5-1.7-0.6c-0.1,0-0.3,0.1-0.4,0.2c0,0,0,0,0,0c-0.2,0-0.5,0-0.7,0c-0.1-0.1-0.2-0.2-0.4-0.2
		c-0.8,0-1.6,0.3-2.2,0.7c-0.7,0.5-1.4,1.2-1.3,2.1C171.4,9.6,171.4,9.8,171.5,9.9z"/>
	<path class="st0" d="M64.9,105.4C64.9,105.3,64.9,105.3,64.9,105.4L64.9,105.4z"/>
	<path class="st0" d="M108.8,110.8C108.7,110.8,108.7,110.9,108.8,110.8L108.8,110.8z"/>
</g>
</svg>
