<?xml version="1.0" encoding="utf-8"?>
<!-- Generator: Adobe Illustrator 24.0.1, SVG Export Plug-In . SVG Version: 6.00 Build 0)  -->
<svg version="1.1" id="Layer_1" xmlns="http://www.w3.org/2000/svg" xmlns:xlink="http://www.w3.org/1999/xlink" x="0px" y="0px"
	 width="270px" height="55px" viewBox="0 0 270 55" enable-background="new 0 0 270 55" xml:space="preserve">
<g>
	<path id="Fill_1" fill="#A8AFBC" d="M27.4,54.7c-15,0-27.2-12.2-27.2-27.2c0-10.9,6.5-20.8,16.6-25.1c13.9-5.9,29.8,0.6,35.7,14.5
		S51.9,46.7,38,52.6C34.7,54,31.1,54.7,27.4,54.7z M38.8,31.5l-11,19.8c13.1-0.2,23.6-11,23.4-24.1C51,17.7,45.4,9.3,36.7,5.6
		c-2.9-1.2-6.1-1.9-9.2-1.9c-0.7,0-1.4,0-2.1,0.1L14.1,24.2h14.5l-4,7.3H5.8l4-7.3L20.6,4.8C8,8.6,0.9,21.8,4.7,34.4
		c2.6,8.7,10,15.1,18.9,16.6l10.8-19.5h-7l4-7.3h18.8l-4,7.3L38.8,31.5L38.8,31.5z"/>
	<path id="Fill_2" fill="#A8AFBC" d="M214.2,34.8c-1.5,0.1-2.9-0.3-4.1-1.2c-1-0.9-1.6-2.2-1.5-3.5c0-0.7,0.1-1.4,0.3-2.1l1.8-8.2
		h3.7l-1.9,8.5c-0.1,0.6-0.2,1.2-0.2,1.8c0,0.6,0.2,1.1,0.6,1.5c0.5,0.4,1.2,0.6,1.9,0.6c2,0,3.2-1.2,3.8-3.8l1.9-8.5h3.7l-1.9,8.4
		c-0.5,2.3-1.4,3.9-2.6,5C218.4,34.3,216.6,34.8,214.2,34.8L214.2,34.8z M260.3,34.8c-1.9,0.1-3.7-0.6-5.2-1.8
		c-1.2-1.1-1.8-2.7-1.8-4.4c0-2.7,1.1-5.2,3.2-7c1.8-1.4,4-2.1,6.3-2.1c1.9-0.1,3.7,0.5,5.2,1.8c1.2,1.2,1.8,2.8,1.8,4.4
		c0,1.3-0.3,2.7-0.8,3.9c-0.5,1.2-1.3,2.3-2.3,3.1C264.9,34.1,262.6,34.9,260.3,34.8L260.3,34.8z M262.4,22.2c-1.1,0-2.1,0.4-3,1.1
		c-0.7,0.7-1.3,1.5-1.6,2.4c-0.4,0.9-0.5,1.9-0.6,2.8c0,2.3,1.3,3.6,3.6,3.6c1.1,0,2.1-0.4,2.9-1.1c1.4-1.2,2.1-3.6,2.1-5.3
		c0-0.9-0.2-1.8-0.7-2.5C264.4,22.5,263.4,22.1,262.4,22.2L262.4,22.2z M197.6,34.8c-1.9,0.1-3.7-0.6-5.2-1.8
		c-1.2-1.1-1.8-2.7-1.8-4.4c0-2.7,1.1-5.2,3.2-7c1.8-1.4,4-2.1,6.3-2.1c1.9-0.1,3.7,0.5,5.2,1.8c1.2,1.2,1.8,2.8,1.8,4.4
		c0,1.3-0.3,2.7-0.8,3.9c-0.5,1.2-1.3,2.3-2.3,3.1C202.2,34.1,199.9,34.9,197.6,34.8z M199.7,22.2c-1.1,0-2.1,0.4-3,1.1
		c-0.7,0.7-1.3,1.5-1.6,2.4c-0.4,0.9-0.5,1.9-0.6,2.8c0,2.3,1.3,3.6,3.6,3.6c1.1,0,2.1-0.4,2.9-1.1c1.4-1.2,2.1-3.6,2.1-5.3
		c0-0.9-0.2-1.8-0.7-2.5C201.7,22.5,200.7,22.1,199.7,22.2L199.7,22.2z M161.2,34.8c-3.2,0-5.3-1.5-5.3-3.9c0-1.1,0.5-2.1,1.2-2.8
		c0.8-0.8,1.8-1.4,2.9-1.8l0-0.1c-0.6-0.7-0.9-1.6-0.9-2.5c0-1.2,0.6-2.3,1.5-3c1.1-0.8,2.5-1.3,3.9-1.2c1.1,0,2.2,0.3,3.2,0.9
		c0.8,0.5,1.2,1.4,1.2,2.4c0,1.6-1.4,2.9-4.3,4.1V27c0.6,0.8,1.4,1.8,2.1,2.6l0.2,0.2c1-1.1,1.9-2.3,2.4-3.8h3.4
		c-0.8,2.2-2.2,4.2-4.1,5.7c0.8,1,1.6,1.9,2.5,2.8h-4.3c-0.2-0.2-0.4-0.4-0.6-0.6c-0.1-0.1-0.2-0.2-0.3-0.4
		C164.5,34.4,162.9,34.9,161.2,34.8z M161.3,28c-0.7,0.5-1.7,1.2-1.7,2.3c0,0.6,0.2,1.1,0.7,1.5c0.6,0.4,1.2,0.6,1.9,0.6h0
		c0.8,0,1.5-0.2,2.1-0.7C163.2,30.4,162.1,29.1,161.3,28L161.3,28z M164.2,21.6c-1,0-1.8,0.9-1.8,1.9c0,0,0,0,0,0
		c0,0.7,0.3,1.3,0.8,1.8c0.6-0.2,1.2-0.6,1.7-1c0.4-0.4,0.7-0.9,0.7-1.4c0-0.7-0.5-1.3-1.2-1.3C164.4,21.6,164.3,21.6,164.2,21.6
		L164.2,21.6z M113.9,34.8c-2.5,0-4.2-0.6-4.9-1.1l1.2-2.6c1.3,0.6,2.7,0.9,4.1,0.9c1.4,0,2.7-0.5,2.7-1.7c0-0.9-0.9-1.4-2.3-2.1
		c-1.7-0.8-3.6-1.9-3.6-3.9c0-1.4,0.8-2.8,2-3.5c1.4-0.9,3.1-1.3,4.8-1.3c1.4-0.1,2.8,0.2,4.1,0.8l-1.1,2.6c-1-0.4-2-0.7-3.1-0.7
		h-0.1c-0.7,0-1.4,0.1-1.9,0.5c-0.4,0.2-0.6,0.6-0.7,1.1c0,0.8,1,1.3,2.5,2.1c0.9,0.4,1.8,0.9,2.5,1.6c0.6,0.6,0.9,1.4,0.9,2.3
		c0,1.5-0.8,2.9-2.1,3.7C117.3,34.4,115.6,34.9,113.9,34.8z M228.1,34.7c-1.5,0-2.9-0.1-4.3-0.3l3.2-14.4c1.5-0.2,3-0.3,4.5-0.3
		c1.5-0.1,2.9,0.2,4.3,0.8c1.2,0.4,1.9,1.5,2,2.7c0,0.9-0.4,1.7-1,2.3c-0.7,0.6-1.5,1-2.4,1.2v0.1c0.8,0.2,1.5,0.6,2,1.2
		c0.5,0.6,0.7,1.3,0.7,2.1c-0.1,1.5-1,2.9-2.4,3.5C233.2,34.3,231.1,34.7,228.1,34.7L228.1,34.7z M228.8,28l-0.9,4.2
		c0.5,0,0.9,0.1,1.4,0.1c0.9,0,1.8-0.2,2.6-0.5c0.7-0.3,1.2-1,1.2-1.8c0-1.3-1.1-1.9-3.1-1.9L228.8,28L228.8,28z M231.5,22.1
		c-0.5,0-1,0-1.4,0.1l-0.8,3.4h1.2c0.9,0,1.7-0.1,2.5-0.5c0.6-0.3,0.9-0.8,0.9-1.5c0-0.5-0.3-0.9-0.7-1.2
		C232.7,22.2,232.1,22.1,231.5,22.1z M241.8,34.6h-3.7l3.2-14.5c1.5-0.3,3.1-0.4,4.6-0.4c1.6-0.1,3.1,0.2,4.5,0.9
		c1.2,0.5,1.9,1.6,1.9,2.9c0,1-0.4,2-1.1,2.7c-0.8,0.7-1.7,1.2-2.8,1.5v0.1c0.9,0.3,1.4,1.2,1.6,2.7c0,0.4,0.1,0.7,0.1,1.1
		c0.1,1.1,0.2,2.1,0.5,3.1h-3.8c-0.3-1.1-0.4-2.3-0.5-3.5c0-0.7-0.2-1.3-0.7-1.8c-0.5-0.4-1.1-0.6-1.7-0.5h-1.1L241.8,34.6
		L241.8,34.6z M246,22.2c-0.5,0-1,0-1.4,0.1l-0.9,4.1h1.5c2,0,3.5-1,3.5-2.5C248.6,22.8,247.6,22.2,246,22.2L246,22.2z M138.2,34.6
		h-3.4l3.3-14.8h4.3l2.3,5.6c0.6,1.7,1.1,3.3,1.6,5h0.1c0.1-1.8,0.4-3.6,0.8-5.3l1.2-5.4h3.4l-3.2,14.8h-3.8l-2.4-5.9
		c-0.7-1.7-1.2-3.4-1.7-5.2l-0.1,0c-0.2,1.4-0.6,3.4-1.1,5.9L138.2,34.6L138.2,34.6z M98.6,34.6H95l3.2-14.5
		c1.5-0.3,3.1-0.4,4.6-0.4c1.6-0.1,3.1,0.2,4.5,0.9c1.2,0.5,1.9,1.6,1.9,2.9c0,1-0.4,2-1.1,2.7c-0.8,0.7-1.7,1.2-2.8,1.5v0.1
		c0.9,0.3,1.4,1.2,1.6,2.7c0,0.4,0.1,0.7,0.1,1.1v0c0.1,1.1,0.2,2.1,0.5,3.1h-3.8c-0.3-1.1-0.4-2.3-0.5-3.5c0-0.7-0.2-1.3-0.7-1.8
		c-0.5-0.4-1.1-0.6-1.7-0.5h-1.1L98.6,34.6L98.6,34.6z M102.8,22.2c-0.5,0-1,0-1.4,0.1l-0.9,4.1h1.5c2,0,3.5-1,3.5-2.5
		C105.4,22.8,104.5,22.2,102.8,22.2z M82.4,34.6h-3.9l8.4-14.8h4.7l2,14.8h-3.9l-0.4-3.8h-5L82.4,34.6L82.4,34.6z M88.6,22.2
		c-0.2,0.3-0.3,0.7-0.5,1c-0.3,0.6-0.6,1.3-0.9,1.9l-1.7,3.2h3.7l-0.3-3.2C88.8,24.2,88.7,22.9,88.6,22.2L88.6,22.2L88.6,22.2z
		 M184.1,34.6h-3.7l2.6-12h-4.6l0.6-2.8H192l-0.6,2.8h-4.6L184.1,34.6L184.1,34.6z M132.6,34.6H122l3.3-14.8h10.2l-0.6,2.7h-6.5
		l-0.7,3.2h6.1l-0.6,2.7h-6.1l-0.8,3.6h6.9L132.6,34.6L132.6,34.6z M77.6,34.6H67.3l3.3-14.8h3.7l-2.7,12h6.6L77.6,34.6L77.6,34.6z"
		/>
</g>
</svg>
