<?xml version="1.0" encoding="utf-8"?>
<!-- Generator: Adobe Illustrator 24.1.0, SVG Export Plug-In . SVG Version: 6.00 Build 0)  -->
<svg version="1.1" id="Layer_1" xmlns="http://www.w3.org/2000/svg" xmlns:xlink="http://www.w3.org/1999/xlink" x="0px" y="0px"
	 width="362px" height="92px" viewBox="0 0 362 92" style="enable-background:new 0 0 362 92;" xml:space="preserve">
<style type="text/css">
	.st0{fill:#A8AFBC;}
</style>
<g>
	<path class="st0" d="M111.9,12.1c-3.9,10.2-7.7,20-11.5,30.2c4.2,0,8,0,11.9,0c2.3-5.7,4-11.5,6.4-17.4c2.1,6,4.2,11.7,6.1,17.3
		c3.3,0.4,10.4,0.2,12-0.2c-3.8-10-7.6-19.9-11.5-30C120.7,12.1,116.3,11.8,111.9,12.1z"/>
	<path class="st0" d="M50.3,12.1c-3.9,10.1-7.7,20.1-11.5,30.2c4.2,0,8.1,0,12,0c2.1-5.8,4.1-11.5,6.3-17.5
		c2.2,6.1,4.2,11.9,6.2,17.5c4.1,0,8,0,12,0c-3.9-10.2-7.7-20.2-11.5-30.2C59.2,12.1,54.8,12.1,50.3,12.1z"/>
	<path class="st0" d="M41.5,20.8c0-3,0-5.8,0-8.6c-2-0.3-28.6-0.3-30.5,0c0,2.8,0,5.6,0,8.7c3.1,0,6.1,0,9.2,0c0,7.2,0,14.3,0,21.5
		c4.3,0,8.4,0,12.5,0c0-2,0-3.8,0-5.5c0-1.8,0-3.5,0-5.3c0-1.8,0-3.6,0-5.5c0-1.7-0.2-3.5,0.2-5.3C35.9,20.8,38.7,20.8,41.5,20.8z"
		/>
	<path class="st0" d="M103.1,20.8c0-3,0.1-5.9-0.1-8.7c-4.6-0.4-29-0.2-30.5,0.2c0,2.8,0,5.7,0,8.7c3.1,0,6.1,0,9.4,0
		c0,7.2,0,14.2,0,21.3c4.2,0,8.2,0,12.4,0c0-2,0-3.7,0-5.4c0-1.8,0-3.5,0-5.3c0-1.8,0-3.6,0-5.5c0.1-1.7-0.2-3.4,0.2-5.3
		C97.5,20.8,100.3,20.8,103.1,20.8z"/>
	<path class="st0" d="M228.5,36.6c2.2-3.1,3-6.5,2.9-10.5c0.2-2.3-0.3-4.7-1.3-7c-1.3-3-3.3-5.3-6.2-6.9c-2.6-1.4-5.3-1.7-8.1-1.6
		c-4.8,0.2-8.5,2.2-11.1,6.1c-3.7,5.6-3.9,11.5-1.3,17.6c1.7,4,4.7,6.5,8.9,7.6c1.9,0.5,3.9,0.4,5.8,0.3
		C222.6,42,226,40.2,228.5,36.6z M222.4,33.3c-2.4,4.4-8.2,4.7-11.1,0.6c-0.9-1.3-1.6-2.7-1.7-4.2c-0.3-2.8-0.4-5.6,0.6-8.3
		c0.6-1.6,1.5-2.8,2.8-3.9c2.4-2,6.1-1.6,8.3,0.7c1.6,1.7,2.4,3.8,2.6,6.1c0.1,0.8,0,1.5,0,2C224,29,223.6,31.3,222.4,33.3z"/>
	<path class="st0" d="M192.6,41.8c2.4,0,4.7,0,7,0c-0.7-2.6-1.4-5.2-2.1-7.7c-0.7-2.6-1.6-5.1-4.1-6.6c0.5-0.3,0.9-0.6,1.3-0.9
		c3.3-2,4.6-5.9,3.4-9.7c-1.2-3.8-4.4-5-7.9-5.7c-4-0.7-7.9-0.1-11.9,0c-0.6,0-1.2,0.2-1.7,0.6c0,10,0,19.9,0,29.8
		c2.5,0.4,5.2,0.3,6.7-0.1c0-1.9,0-3.9,0-5.9c0-1.9-0.1-3.9,0.1-5.9c1-0.1,1.8,0,2.5,0.1c2.4,0.2,3.5,1.7,4.1,3.9
		c0.2,0.7,0.3,1.4,0.5,2C191.2,37.8,191.6,40,192.6,41.8z M189,24.2c-1.7,0.7-3.5,0.4-5.6,0.4c0-1.5,0-2.8,0-4.2c0-1.3,0-2.6,0-4.1
		c1.9-0.1,3.6-0.3,5.3,0.2c1.8,0.6,2.9,2,3,3.6C191.8,21.9,190.7,23.6,189,24.2z"/>
	<path class="st0" d="M274.1,41.6c0-1.8,0-3.6,0-5.5c-4.2-0.1-8.3,0-12.4-0.1c0-2.4,0-4.6,0-6.8c3.8-0.3,7.4,0.1,11.1-0.2
		c0.1-2.1,0.2-3.8-0.1-5.7c-1.9-0.4-3.7-0.1-5.5-0.2c-1.9-0.1-3.7,0.2-5.5-0.2c0-2,0-3.9,0-5.9c4,0,7.8,0,11.8,0
		c0.3-2,0.3-3.8,0-5.7c-6.4,0-12.6,0-18.9,0c0,10.3,0,20.4,0,30.4C257.7,42.1,272.7,42,274.1,41.6z"/>
	<path class="st0" d="M163.5,11.2c-3.9-0.7-7.8,0-11.7,0.1c-0.6,0-1.1,0.2-1.5,0.6c-0.4,4.7-0.2,28.4,0.2,30c2.2,0,4.3,0,6.8,0
		c0-2,0-3.7,0-5.4c0-1.7,0-3.5,0-5.4c1.2,0,2.2,0,3.3,0c1.9,0,3.8-0.3,5.5-1c5.9-2.3,7.2-8.2,5.4-13.2
		C170.2,13.2,167.1,11.9,163.5,11.2z M163.4,24.6c-1.9,1.3-4,1.4-6.2,0.9c0-3.1,0-6,0-9c2.2-0.5,4.3-0.6,6.3,0.6
		C166,18.8,166,22.8,163.4,24.6z"/>
	<path class="st0" d="M342.1,36c-0.6,0.3-1.2,0.5-1.8,0.5c-1.7,0.1-3.3,0.1-5-0.3c-1.4-0.3-2.6-1.1-4-1.3c-0.5,1.9-0.9,3.7-1.4,5.6
		c3.6,2.5,12.4,2.5,15.4,1c2.3-1.1,4.3-2.5,5.1-5c1.4-4.2,0.7-8.3-3.5-10.8c-1.1-0.7-2.3-1.3-3.6-1.8c-1.5-0.6-3-1.2-4.4-2
		c-1-0.6-1.8-1.5-1.5-2.8c0.3-1.3,1.3-2,2.5-2.3c0.5-0.1,1-0.1,1.5-0.1c2.3-0.2,4.5,0.5,6.8,1.3c0.7-1.9,1.3-3.6,1.5-5.4
		c-0.3-0.5-0.8-0.6-1.1-0.8c-3.2-1.2-6.5-1.3-9.7-0.8c-2.5,0.4-4.8,1.5-6.5,3.5c-2.6,3-2.8,8.2,0.2,11.1c1.9,1.8,4.1,2.8,6.5,3.8
		c1.3,0.5,2.6,0.9,3.7,1.8C344.3,32.5,344,35.1,342.1,36z"/>
	<path class="st0" d="M287.7,11.7c-4.8,1.7-8.2,5-9.6,10.1c-0.7,2.6-0.9,5.3-0.5,8.1c0.9,6.1,4.9,10.6,10.7,12
		c3.1,0.8,6.3,0.6,9.4,0.3c1.2-0.1,2.6-0.3,3.8-1.3c-0.5-1.7-0.5-3.5-1.2-5.3c-2.3,0.9-4.6,1-6.9,0.9c-2.9-0.2-5.4-1.3-6.9-3.8
		c-2.2-3.7-2.3-7.6-0.4-11.4c0.7-1.5,1.9-2.7,3.5-3.5c3.1-1.6,6.3-1.4,9.6-0.5c0.5,0.1,0.9,0.4,1.5,0c0.2-1.7,1.1-3.3,1-5.4
		C296.9,10.3,292.3,10.2,287.7,11.7z"/>
	<path class="st0" d="M327.8,11.2c-7.9,0-15.7-0.1-23.5,0.1c0,2.1,0,3.9,0,5.8c2.7,0,5.2,0,8,0c0,8.3,0,16.5,0,24.7
		c2.5,0,4.8,0,7.4,0c0-8.3,0-16.5,0-24.8c2.9,0,5.6,0,8.4,0C327.9,15,328.2,13.2,327.8,11.2z"/>
	<path class="st0" d="M249,12.7c0-0.5,0.2-1-0.3-1.4c-2.2,0-4.4,0-6.8,0c0,6.3,0,12.3,0,18.3c0,1.2-0.1,2.4-0.3,3.5
		c-0.5,2.2-1.7,3.3-3.9,3.4c-1.3,0.1-2.6-0.1-4-0.5c-0.4,1.9-0.8,3.7-0.6,5.6c0.6,0.4,1.2,0.6,1.8,0.6c2,0.1,4.1,0.3,6.1,0
		c3.1-0.5,5.5-2,6.8-4.9c0.8-1.9,1.2-3.8,1.2-5.9C249,25.2,249,19,249,12.7z"/>
	<path class="st0" d="M216.5,64.2c-0.9-2.4-3.7-3.5-6.1-2.5c-1,0.4-1.8,1.1-2.4,2.1c-2.6-3.3-5.3-3.1-8.1-0.6c-0.3-0.4,0-1-0.5-1.4
		c-0.6-0.2-1.2-0.1-2,0c0,4.6,0,9,0,13.6c0.9,0,1.7,0.3,2.3-0.1c0.4-0.5,0.3-1,0.3-1.4c0-2.3,0-4.6,0-6.9c0-1.9,1.4-3.3,3.1-3.3
		c1.6,0,2.5,1.1,2.6,3.2c0,1.5,0,3.1,0,4.6c0,1.3,0,2.6,0,4c1.1,0,1.9,0.2,2.8-0.2c0-1,0-2,0-3c0-1.8,0-3.6,0-5.5
		c0.1-1.9,1.3-3.1,3-3.1c1.6,0,2.5,1.1,2.6,3.1c0,0.9,0,1.8,0,2.7c0,1.9,0,3.9,0,6c1-0.1,1.8,0.1,2.7-0.2c0-3,0-5.9,0-8.8
		C216.9,65.7,216.8,64.9,216.5,64.2z"/>
	<path class="st0" d="M225.7,61.7c-0.9,0.3-1.5,1.1-2.4,1.6c-0.6-0.4-0.1-1.1-0.7-1.5c-0.6-0.1-1.2-0.2-1.9,0.1
		c-0.4,3.3-0.2,17.7,0.3,19c0.7,0.2,1.4,0.1,2.4,0c0-2.2,0-4.4,0-6.7c0.5,0.3,0.8,0.4,1.1,0.6c2.9,1.8,7.5,0.7,8.7-3.5
		c0.5-1.8,0.7-3.5,0.2-5.3C232.4,62.3,229,60.5,225.7,61.7z M230.8,70.5c-0.7,2.2-2.3,3.2-4.4,2.9c-1.9-0.3-2.9-1.7-3-3.9
		c0-0.4,0-0.7,0-1.2c-0.2-1.4,0.2-2.8,1.3-3.9c2.1-2,5.4-0.9,6.2,2.1C231.2,67.9,231.2,69.2,230.8,70.5z"/>
	<path class="st0" d="M184.8,65.4c-0.9-0.4-1.8-0.8-2.7-1.2c-0.7-0.3-1.4-0.6-1.9-1.2c-1.7-1.8-0.7-3.7,0.7-4.3
		c1.1-0.5,2.3-0.4,3.5-0.2c0.6,0.2,1.2,0.7,1.8,0.5c0.4-0.3,0.5-0.7,0.5-1c0-0.3,0.1-0.7-0.1-1c-2-1-4.6-1.2-6.4-0.5
		c-4.2,1.5-4.7,6.4-1.6,8.7c0.9,0.7,1.9,1.2,2.9,1.6c0.9,0.3,1.7,0.7,2.4,1.2c1.9,1.6,1.4,4.4-0.9,5.2c-1,0.4-2,0.5-3.1,0.2
		c-1-0.3-2.1-0.6-3.1-0.9c-0.2,0.7-0.4,1.2-0.6,2c2.3,1.2,5.3,1.7,7.4,1c2.7-0.8,3.9-2.2,4.2-4.9C188.1,68.2,186.9,66.4,184.8,65.4z
		"/>
	<path class="st0" d="M289.5,58.6c0.6,0.2,1.2,0.2,1.8,0.4c0.2-0.7,0.4-1.2,0.6-1.9c-1.1-0.7-2.3-0.7-3.4-0.9
		c-3.3-0.4-6.1,0.4-8.4,2.8c-2.5,2.6-3.2,5.7-2.6,9.3c0.7,3.9,2.9,6.3,6.7,7.2c2,0.5,4,0.4,6-0.1c0.5-0.1,1.1-0.1,1.5-0.8
		c-0.1-0.6-0.2-1.1-0.6-1.7c-0.7,0.2-1.4,0.3-2,0.5c-4.5,1-8.1-1.2-8.9-5.6C279.2,61,284,57.1,289.5,58.6z"/>
	<path class="st0" d="M343.7,61.5c-3.5,1-5.7,5-4.8,8.8c0.6,2.6,1.9,4.6,4.6,5.1c2.1,0.4,4.3,0.4,6.3-0.5c0.2-0.7,0.2-1.3-0.2-1.8
		c-0.6-0.1-1.1,0-1.7,0.2c-1,0.3-1.9,0.3-2.9,0.1c-2.3-0.3-3.5-1.8-3.4-4.3c3,0,5.9,0,9.1,0c0-1.1,0-1.9,0-2.6
		C350.6,62.8,347.3,60.5,343.7,61.5z M341.7,67c-0.2-2.3,2-3.9,3.8-3.7c1.8,0.2,2.8,1.4,2.8,3.7C346.1,67,343.9,67,341.7,67z"/>
	<path class="st0" d="M310.9,61.7c-2.4-0.9-4.8-0.3-6.6,1.7c-2.2,2.4-2.3,5.3-1.3,8.2c0.6,2,2.1,3.4,4.2,3.7
		c2.2,0.4,4.4,0.4,6.5-0.6c0.2-0.7,0.1-1.3-0.5-1.7c-6.1,0.7-7.7,0-8-4c3,0,6.1,0,8.9,0c0.7-0.8,0.5-1.4,0.4-2
		C314.3,64.6,313.4,62.6,310.9,61.7z M306.3,67.1c-0.4,0-0.8,0.1-1.2-0.2c0.7-2.6,1.7-3.6,3.6-3.6c2,0,2.6,0.7,3.4,3.8
		C310.1,67.1,308.2,67.1,306.3,67.1z"/>
	<path class="st0" d="M266.2,61.8c-1.4,3.2-2.2,6.6-3.5,10c-1.3-3.5-2.5-6.8-3.8-10.2c-1,0.2-1.8-0.2-2.6,0.3
		c-0.1,0.3,0,0.6,0.1,0.8c1.4,3.6,2.8,7.1,4.3,10.6c0.5,1.2,0.3,2.1-0.3,3.1c-0.8,1.4-2.2,2.1-3.4,2.9c0,0.8,0,1.5,0.7,2
		c0.8,0.1,1.3-0.3,1.9-0.7c2-1.2,3.1-3.2,4-5.2c1.2-2.7,2.3-5.5,3.3-8.4c0.6-1.7,1.6-3.4,1.8-5.4C267.9,61.7,267.1,61.6,266.2,61.8z
		"/>
	<path class="st0" d="M324.6,61.9c-1.6-0.9-5.8-0.8-7.3,0.9c0.2,0.5,0.2,1.1,0.8,1.3c4.3-1.5,5.7-1,6.2,2c-1,0.4-1.9,0.5-2.8,0.6
		c-1.7,0.2-3.2,0.8-4.4,2.2c-1.1,1.3-1.2,2.9-0.5,4.3c0.6,1.4,1.8,2.2,3.5,2.2c1.7,0,3.2-0.4,4.3-1.6c0.5,0.4,0.1,1.1,0.7,1.5
		c0.5-0.1,1.2,0.2,1.9-0.2c0-3,0.1-6,0-9C327.1,64.4,326.3,62.9,324.6,61.9z M324.4,71.3c-0.2,1.5-2.1,2.8-3.6,2.4
		c-1-0.2-1.7-1.1-1.8-2.1c-0.1-1.1,0.3-2,1.3-2.4c1.3-0.6,2.6-1,4.1-0.7C324.4,69.5,324.5,70.4,324.4,71.3z"/>
	<path class="st0" d="M252.8,61.4c-0.4-3.9,0.9-4.5,3.7-4.1c0.1,0,0.2-0.1,0.4-0.2c0-0.2,0.1-0.5,0.1-0.8c0-0.4,0-0.7-0.3-1
		c-4.1-1.2-6.4,0.8-6.9,6c-0.4,0.6-1.1,0-1.5,0.5c-0.2,0.5-0.2,1,0,1.6c0.4,0.4,1.1,0,1.7,0.8c0,3.5,0,7.2,0,11.1
		c0.9,0.1,1.6,0.2,2.8-0.2c0-3.8,0-7.5,0-11.1c1.1-0.5,2,0,2.9-0.5c0.2-0.6,0.3-1.2-0.1-1.7C254.6,61.5,253.7,62,252.8,61.4z"/>
	<path class="st0" d="M337.2,63.6c0.3-0.6,0.2-1.1,0.1-1.8c-1.1-0.3-2.2,0.1-3.1-0.3c-0.4-1,0.1-2-0.4-3.1c-0.8,0.4-1.7,0.3-2.5,1.1
		c-0.2,0.6,0.1,1.4-0.2,2c-0.5,0.4-1.3,0-1.8,0.4c-0.2,0.5-0.2,0.9,0,1.4c0.4,0.8,1.4,0.1,1.9,0.9c0,2,0,4.2,0,6.4
		c0,4.2,1.4,5.4,5.5,4.9c0.2,0,0.4-0.2,0.6-0.3c0-0.3,0-0.7,0-1c0-0.2-0.1-0.4-0.2-0.5c-0.4-0.3-0.9-0.1-1.3-0.2
		c-1.3-0.1-1.8-0.6-1.8-1.8c-0.1-2.6,0-5.1,0-7.7C335.1,63.5,336.2,64,337.2,63.6z"/>
	<path class="st0" d="M236.6,55.6c-0.4,5.8-0.2,18.2,0.3,19.8c0.7,0.1,1.4,0.2,2.2-0.1c0-6.7,0-13.2,0-19.9
		C238.2,55.4,237.4,55.2,236.6,55.6z"/>
	<path class="st0" d="M297.2,63.3c-0.4-0.5-0.1-1.1-0.5-1.5c-0.6-0.2-1.3-0.2-1.9,0c0,4.6,0,9.1,0,13.7c0.9-0.2,1.7,0.2,2.4-0.3
		c0.5-0.6,0.3-1.3,0.3-1.9c0-1.9,0-3.8,0-5.7c0.1-2.3,1-3.4,3.3-3.8c0.3-0.1,0.6,0,0.8-0.4c0.1-0.6,0.3-1.3-0.3-2
		C299.3,60.9,298.3,62.4,297.2,63.3z"/>
	<path class="st0" d="M245.6,61.7c-0.4,0-0.7,0-1.1,0c-0.4,0-0.8-0.1-1.2,0.3c-0.3,3.9-0.2,12,0.2,13.5c0.7,0,1.4,0.2,2.3-0.2
		c0.3-1.6,0.1-3.1,0.2-4.6c0-1.5,0.1-2.9,0-4.4C245.9,64.7,246.3,63.2,245.6,61.7z"/>
	<path class="st0" d="M191.2,61.8c-0.4,2.9-0.3,12.1,0.2,13.6c0.7-0.1,1.5,0.3,2.1-0.5c0-4.3,0-8.6,0-13.1
		C192.6,61.7,191.9,61.6,191.2,61.8z"/>
	<path class="st0" d="M271.8,70.5c-1.4,0-2.5,1.2-2.5,2.5c0,1.2,1.2,2.4,2.4,2.4c1.4,0,2.5-1.1,2.6-2.5
		C274.3,71.5,273.4,70.5,271.8,70.5z"/>
	<path class="st0" d="M244.5,56.3c-0.8,0-1.6,0.7-1.7,1.5c-0.1,0.9,0.7,1.7,1.6,1.7c1,0,1.6-0.5,1.6-1.4
		C246.1,57.2,245.4,56.3,244.5,56.3z"/>
	<path class="st0" d="M192.3,56.3c-0.9,0-1.7,0.7-1.7,1.7c0,1,0.5,1.6,1.5,1.6c1,0,1.8-0.7,1.8-1.6
		C193.9,57.1,193.1,56.3,192.3,56.3z"/>
</g>
</svg>
