<?xml version="1.0" encoding="utf-8"?>
<!-- Generator: Adobe Illustrator 24.1.0, SVG Export Plug-In . SVG Version: 6.00 Build 0)  -->
<svg version="1.1" id="Layer_1" xmlns="http://www.w3.org/2000/svg" xmlns:xlink="http://www.w3.org/1999/xlink" x="0px" y="0px"
	 width="86px" height="75px" viewBox="0 0 86 75" enable-background="new 0 0 86 75" xml:space="preserve">
<g>
	<polygon fill-rule="evenodd" clip-rule="evenodd" fill="#FCDEC2" points="21.15,0 14.13,12.57 28.41,12.57 35.67,0 	"/>
	<polygon fill-rule="evenodd" clip-rule="evenodd" fill="#E9CCA2" points="35.67,0 28.41,12.57 35.67,25.29 42.72,12.57 	"/>
	<polygon fill-rule="evenodd" clip-rule="evenodd" fill="#F8D59E" points="28.41,12.57 14.13,12.57 21.15,25.28 35.67,25.29 	"/>
	<polygon fill-rule="evenodd" clip-rule="evenodd" fill="#4EC7F0" points="64.66,0 50.21,0 42.72,12.57 57.38,12.57 	"/>
	<polygon fill-rule="evenodd" clip-rule="evenodd" fill="#4AC3DA" points="72.21,12.57 64.66,0 57.38,12.57 64.66,25.29 	"/>
	<polygon fill-rule="evenodd" clip-rule="evenodd" fill="#1EA4D9" points="57.38,12.57 42.72,12.57 50.21,25.29 	"/>
	<polygon fill-rule="evenodd" clip-rule="evenodd" fill="#DE8C41" points="42.72,12.57 35.67,25.29 42.72,37.49 50.21,25.29 	"/>
	<polygon fill-rule="evenodd" clip-rule="evenodd" fill="#F89C43" points="35.67,25.29 20.92,25.28 28.41,37.8 42.72,37.49 	"/>
	<polygon fill-rule="evenodd" clip-rule="evenodd" fill="#4767AE" points="50.21,25.29 64.66,25.29 57.38,12.57 	"/>
	<polygon fill-rule="evenodd" clip-rule="evenodd" fill="#92658A" points="50.21,25.28 42.72,37.49 57.53,37.49 64.66,25.29 	"/>
	<polygon fill-rule="evenodd" clip-rule="evenodd" fill="#B46EAC" points="64.66,25.29 57.38,37.49 72.21,37.49 79.14,25.29 	"/>
	<polygon fill-rule="evenodd" clip-rule="evenodd" fill="#2F2A3E" points="72.21,37.49 79.14,49.72 86,37.49 79.14,25.29 	"/>
	<polygon fill-rule="evenodd" clip-rule="evenodd" fill="#26272F" points="42.72,37.49 50.21,49.72 79.14,49.72 72.21,37.49 	"/>
	<polygon fill-rule="evenodd" clip-rule="evenodd" fill="#806576" points="42.72,37.49 35.67,49.72 42.72,62.37 50.21,49.72 	"/>
	<polygon fill-rule="evenodd" clip-rule="evenodd" fill="#D9CAD1" points="42.72,37.49 28.47,37.49 21.15,49.72 35.67,49.72 	"/>
	<polygon fill-rule="evenodd" clip-rule="evenodd" fill="#582631" points="57.38,62.37 64.66,49.72 50.21,49.72 	"/>
	<polygon fill-rule="evenodd" clip-rule="evenodd" fill="#BE3C45" points="57.38,62.37 42.72,62.37 50.21,49.72 	"/>
	<polygon fill-rule="evenodd" clip-rule="evenodd" fill="#F48343" points="64.66,49.72 57.38,62.37 64.66,75 72.21,62.37 	"/>
	<polygon fill-rule="evenodd" clip-rule="evenodd" fill="#F06A43" points="57.38,62.37 42.72,62.37 50.21,75 64.66,75 	"/>
	<polygon fill-rule="evenodd" clip-rule="evenodd" fill="#11965F" points="14.13,37.49 28.47,37.49 21.15,25.28 	"/>
	<polygon fill-rule="evenodd" clip-rule="evenodd" fill="#183C32" points="14.13,37.49 28.47,37.49 21.15,49.72 	"/>
	<polygon fill-rule="evenodd" clip-rule="evenodd" fill="#CCD64D" points="21.15,25.28 6.49,25.28 0,37.49 14.13,37.49 	"/>
	<polygon fill-rule="evenodd" clip-rule="evenodd" fill="#89A053" points="14.13,37.49 0,37.49 6.49,49.72 21.15,49.72 	"/>
	<polygon fill-rule="evenodd" clip-rule="evenodd" fill="#E58FBC" points="35.67,49.72 28.64,62.37 35.7,75 42.72,62.37 	"/>
	<polygon fill-rule="evenodd" clip-rule="evenodd" fill="#F0B1C6" points="35.67,49.72 21.15,49.72 14.13,62.37 28.64,62.37 	"/>
	<polygon fill-rule="evenodd" clip-rule="evenodd" fill="#F8C0CB" points="28.64,62.37 14.13,62.37 21.15,75 35.7,75 	"/>
</g>
</svg>
