<?xml version="1.0" encoding="utf-8"?>
<!-- Generator: Adobe Illustrator 24.2.0, SVG Export Plug-In . SVG Version: 6.00 Build 0)  -->
<svg version="1.1" id="Layer_1" xmlns="http://www.w3.org/2000/svg" xmlns:xlink="http://www.w3.org/1999/xlink" x="0px" y="0px"
	 viewBox="0 0 360 182" enable-background="new 0 0 360 182" xml:space="preserve">
<g>
	<g>
		<g>
			<g>
				<g>
					<path fill="#772633" d="M0,48.66h18.29v16.09H0V48.66z M0,144.89V76.15h18.29v68.74H0z"/>
					<path fill="#772633" d="M89.4,85.08c2.26,2.8,3.88,6.31,4.87,10.55c0.99,4.24,1.49,9.47,1.49,15.7v33.56h-18.4v-33.65
						c0-2.53-0.07-4.94-0.2-7.26c-0.13-2.3-0.61-4.33-1.42-6.09c-0.81-1.78-2.12-3.16-3.92-4.15c-1.8-0.99-4.38-1.49-7.71-1.49
						c-3.16,0-6.09,0.68-8.8,2.03v0.14l-0.14-0.14L48.53,82.6l0.14-0.14c4.69-4.22,10.55-6.32,17.59-6.32
						C77.08,76.15,84.8,79.13,89.4,85.08 M26.53,76.15h18.7v68.74h-18.7C26.53,144.89,26.53,76.15,26.53,76.15z"/>
					<path fill="#772633" d="M175.76,48.65v96.25h-17.87l0.13-34.6c0-2.49-0.51-4.84-1.53-7.07c-1.02-2.22-2.36-4.15-4-5.8
						c-1.64-1.64-3.6-2.93-5.87-3.87c-2.27-0.93-4.69-1.4-7.27-1.4s-4.98,0.47-7.2,1.4s-4.16,2.24-5.8,3.93s-2.96,3.64-3.93,5.87
						c-0.98,2.22-1.47,4.62-1.47,7.2c0,2.58,0.49,4.98,1.47,7.2c0.98,2.22,2.29,4.16,3.93,5.8c1.64,1.64,3.58,2.96,5.8,3.93
						c2.22,0.98,4.62,1.47,7.2,1.47c1.24,0,2.49-0.09,3.73-0.27c1.24-0.18,2.4-0.53,3.47-1.07h0.13h0.13l6.53,12l-0.13,0.13
						c-4.35,3.38-9.69,5.07-16,5.07c-4.8,0-9.29-0.89-13.47-2.67s-7.82-4.22-10.93-7.33s-5.58-6.76-7.4-10.93
						c-1.82-4.18-2.73-8.62-2.73-13.33s0.91-9.16,2.73-13.33c1.82-4.18,4.29-7.82,7.4-10.93s6.76-5.55,10.93-7.33
						c4.18-1.78,8.67-2.67,13.47-2.67c9.07,0,16,3.38,20.8,10.13V48.65H175.76z"/>
					<path fill="#772633" d="M186.15,48.66h18.29v16.09h-18.29V48.66z M186.15,144.89V76.15h18.29v68.74H186.15z"/>
					<path fill="#772633" d="M246.28,104.26c2.93,0.98,5.62,1.98,8.06,3s4.57,2.24,6.39,3.66c1.82,1.42,3.24,3.13,4.26,5.13
						c1.02,2,1.53,4.37,1.53,7.13v0.13c0,6.75-2.24,12.03-6.73,15.85c-4.49,3.82-10.77,5.73-18.85,5.73
						c-5.06,0-10.04-0.87-14.92-2.62s-9.46-4.24-13.72-7.46l-0.13-0.13l0.13-0.13l9.06-14.3l0.13,0.13c2.66,2.84,5.68,5,9.06,6.46
						c3.37,1.47,6.97,2.2,10.79,2.2c5.24,0,7.86-1.69,7.86-5.04c0-1.6-0.84-2.8-2.53-3.6c-1.69-0.8-3.69-1.55-5.99-2.26
						c-0.44-0.18-0.87-0.29-1.27-0.33c-0.4-0.04-0.82-0.16-1.27-0.33c-2.66-0.71-5.33-1.49-7.99-2.31c-2.66-0.84-5.06-2-7.19-3.46
						c-2.13-1.47-3.89-3.33-5.26-5.57c-1.38-2.26-2.06-5.17-2.06-8.7v-0.27c0-3.11,0.58-5.95,1.73-8.5c1.15-2.58,2.8-4.8,4.93-6.66
						c2.13-1.84,4.71-3.29,7.73-4.31c3.02-1.02,6.35-1.53,9.99-1.53c4.26,0,8.57,0.64,12.92,1.93s8.39,3.18,12.12,5.66v0.27
						l-8.13,14.79l-0.13-0.13c-2.04-2.04-4.57-3.66-7.59-4.86c-3.02-1.2-6.22-1.8-9.59-1.8c-0.62,0-1.33,0.04-2.13,0.13
						s-1.53,0.31-2.2,0.67s-1.22,0.82-1.67,1.4c-0.44,0.58-0.67,1.4-0.67,2.46c0,0.8,0.36,1.53,1.07,2.2s1.62,1.29,2.73,1.86
						c1.11,0.58,2.35,1.13,3.73,1.67c1.38,0.53,2.73,1.02,4.06,1.47c0.27,0,0.56,0.04,0.87,0.13
						C245.73,104.08,246.02,104.17,246.28,104.26"/>
				</g>
			</g>
		</g>
		<g>
			<polygon fill-rule="evenodd" clip-rule="evenodd" fill="#FCDEC2" points="295.17,0 288.16,12.55 302.41,12.55 309.65,0 			"/>
			<polygon fill-rule="evenodd" clip-rule="evenodd" fill="#E9CCA2" points="309.65,0 302.41,12.55 309.65,25.25 316.68,12.55 			
				"/>
			<polygon fill-rule="evenodd" clip-rule="evenodd" fill="#F8D59E" points="302.41,12.55 288.16,12.55 295.17,25.24 309.65,25.25 
							"/>
			<polygon fill-rule="evenodd" clip-rule="evenodd" fill="#4EC7F0" points="338.56,0 324.15,0 316.68,12.55 331.3,12.55 			"/>
			<polygon fill-rule="evenodd" clip-rule="evenodd" fill="#4AC3DA" points="346.1,12.55 338.56,0 331.3,12.55 338.56,25.25 			"/>
			<polygon fill-rule="evenodd" clip-rule="evenodd" fill="#1EA4D9" points="331.3,12.55 316.68,12.55 324.15,25.25 			"/>
			<polygon fill-rule="evenodd" clip-rule="evenodd" fill="#DE8C41" points="316.68,12.55 309.65,25.25 316.68,37.44 324.15,25.25 
							"/>
			<polygon fill-rule="evenodd" clip-rule="evenodd" fill="#F89C43" points="309.65,25.25 294.94,25.24 302.41,37.74 316.68,37.44 
							"/>
			<polygon fill-rule="evenodd" clip-rule="evenodd" fill="#4767AE" points="324.15,25.25 338.56,25.25 331.3,12.55 			"/>
			<polygon fill-rule="evenodd" clip-rule="evenodd" fill="#92658A" points="324.15,25.24 316.68,37.44 331.45,37.44 338.56,25.25 
							"/>
			<polygon fill-rule="evenodd" clip-rule="evenodd" fill="#B46EAC" points="338.56,25.25 331.3,37.44 346.1,37.44 353.01,25.25 			
				"/>
			<polygon fill-rule="evenodd" clip-rule="evenodd" fill="#2F2A3E" points="346.1,37.44 353.01,49.65 359.85,37.44 353.01,25.25 
							"/>
			<polygon fill-rule="evenodd" clip-rule="evenodd" fill="#26272F" points="316.68,37.44 324.15,49.65 353.01,49.65 346.1,37.44 
							"/>
			<polygon fill-rule="evenodd" clip-rule="evenodd" fill="#806576" points="316.68,37.44 309.65,49.65 316.68,62.28 324.15,49.65 
							"/>
			<polygon fill-rule="evenodd" clip-rule="evenodd" fill="#D9CAD1" points="316.68,37.44 302.47,37.44 295.17,49.65 309.65,49.65 
							"/>
			<polygon fill-rule="evenodd" clip-rule="evenodd" fill="#582631" points="331.3,62.28 338.56,49.65 324.15,49.65 			"/>
			<polygon fill-rule="evenodd" clip-rule="evenodd" fill="#BE3C45" points="331.3,62.28 316.68,62.28 324.15,49.65 			"/>
			<polygon fill-rule="evenodd" clip-rule="evenodd" fill="#F48343" points="338.56,49.65 331.3,62.28 338.56,74.89 346.1,62.28 			
				"/>
			<polygon fill-rule="evenodd" clip-rule="evenodd" fill="#F06A43" points="331.3,62.28 316.68,62.28 324.15,74.89 338.56,74.89 
							"/>
			<polygon fill-rule="evenodd" clip-rule="evenodd" fill="#11965F" points="288.16,37.44 302.47,37.44 295.17,25.24 			"/>
			<polygon fill-rule="evenodd" clip-rule="evenodd" fill="#183C32" points="288.16,37.44 302.47,37.44 295.17,49.65 			"/>
			<polygon fill-rule="evenodd" clip-rule="evenodd" fill="#CCD64D" points="295.17,25.24 280.54,25.24 274.07,37.44 288.16,37.44 
							"/>
			<polygon fill-rule="evenodd" clip-rule="evenodd" fill="#89A053" points="288.16,37.44 274.07,37.44 280.54,49.65 295.17,49.65 
							"/>
			<polygon fill-rule="evenodd" clip-rule="evenodd" fill="#E58FBC" points="309.65,49.65 302.64,62.28 309.68,74.89 316.68,62.28 
							"/>
			<polygon fill-rule="evenodd" clip-rule="evenodd" fill="#F0B1C6" points="309.65,49.65 295.17,49.65 288.16,62.28 302.64,62.28 
							"/>
			<polygon fill-rule="evenodd" clip-rule="evenodd" fill="#F8C0CB" points="302.64,62.28 288.16,62.28 295.17,74.89 309.68,74.89 
							"/>
		</g>
	</g>
</g>
<g>
	<path fill="#772633" d="M9.68,171.97c1.84,0.78,2.76,2.23,2.76,4.34c0,1.59-0.53,2.83-1.59,3.69c-1.06,0.87-2.44,1.3-4.13,1.3H0.24
		c-0.17,0-0.26-0.09-0.26-0.26v-17.68c0-0.17,0.09-0.26,0.26-0.26h6.27c1.8,0,3.2,0.41,4.2,1.24c1,0.82,1.5,2.02,1.5,3.6
		c0,1.87-0.84,3.16-2.52,3.87C9.59,171.86,9.59,171.92,9.68,171.97z M2.48,165.36v5.49c0,0.07,0.03,0.1,0.1,0.1h3.93
		c1,0,1.8-0.25,2.38-0.75c0.58-0.5,0.87-1.19,0.87-2.05c0-0.88-0.29-1.59-0.87-2.11c-0.58-0.52-1.37-0.78-2.38-0.78H2.58
		C2.51,165.26,2.48,165.3,2.48,165.36z M9.07,178.3c0.58-0.55,0.87-1.29,0.87-2.22c0-0.94-0.29-1.68-0.88-2.22
		c-0.59-0.55-1.4-0.82-2.42-0.82H2.58c-0.07,0-0.1,0.03-0.1,0.1v5.88c0,0.07,0.03,0.1,0.1,0.1h4.13
		C7.7,179.12,8.49,178.85,9.07,178.3z"/>
	<path fill="#772633" d="M19.86,180.77c-0.96-0.49-1.71-1.2-2.25-2.11s-0.81-1.95-0.81-3.13v-12.17c0-0.17,0.09-0.26,0.26-0.26h1.98
		c0.17,0,0.26,0.09,0.26,0.26v12.22c0,1.13,0.36,2.04,1.08,2.73c0.72,0.69,1.66,1.04,2.82,1.04c1.16,0,2.1-0.35,2.81-1.04
		c0.71-0.69,1.07-1.6,1.07-2.73v-12.22c0-0.17,0.09-0.26,0.26-0.26h1.98c0.17,0,0.26,0.09,0.26,0.26v12.17
		c0,1.18-0.26,2.22-0.79,3.13s-1.27,1.61-2.24,2.11s-2.08,0.74-3.34,0.74C21.93,181.51,20.82,181.26,19.86,180.77z"/>
	<path fill="#772633" d="M34.43,181.04v-17.68c0-0.17,0.09-0.26,0.26-0.26h1.98c0.17,0,0.26,0.09,0.26,0.26v17.68
		c0,0.17-0.09,0.26-0.26,0.26h-1.98C34.52,181.3,34.43,181.22,34.43,181.04z"/>
	<path fill="#772633" d="M41.97,181.04v-17.68c0-0.17,0.09-0.26,0.26-0.26h1.98c0.17,0,0.26,0.09,0.26,0.26v15.68
		c0,0.07,0.03,0.1,0.1,0.1h8.97c0.17,0,0.26,0.09,0.26,0.26v1.64c0,0.17-0.09,0.26-0.26,0.26H42.23
		C42.06,181.3,41.97,181.22,41.97,181.04z"/>
	<path fill="#772633" d="M57.57,181.04v-17.68c0-0.17,0.09-0.26,0.26-0.26h6.29c1.8,0,3.24,0.47,4.32,1.42
		c1.07,0.95,1.61,2.21,1.61,3.78v7.8c0,1.58-0.54,2.84-1.61,3.78c-1.07,0.95-2.51,1.42-4.32,1.42h-6.29
		C57.66,181.3,57.57,181.22,57.57,181.04z M60.17,179.14h4.06c1,0,1.81-0.31,2.4-0.92c0.6-0.62,0.91-1.44,0.92-2.48v-7.07
		c0-1.04-0.3-1.87-0.9-2.48c-0.6-0.62-1.41-0.92-2.43-0.92h-4.06c-0.07,0-0.1,0.04-0.1,0.1v13.68
		C60.07,179.11,60.1,179.14,60.17,179.14z"/>
	<path fill="#772633" d="M74.42,181.04v-17.68c0-0.17,0.09-0.26,0.26-0.26h1.98c0.17,0,0.26,0.09,0.26,0.26v17.68
		c0,0.17-0.09,0.26-0.26,0.26h-1.98C74.51,181.3,74.42,181.22,74.42,181.04z"/>
	<path fill="#772633" d="M92.93,163.1h1.98c0.17,0,0.26,0.09,0.26,0.26v17.68c0,0.17-0.09,0.26-0.26,0.26h-1.9
		c-0.12,0-0.23-0.06-0.31-0.18l-8.14-13.29c-0.02-0.05-0.04-0.07-0.08-0.07s-0.05,0.04-0.05,0.09l0.03,13.18
		c0,0.17-0.09,0.26-0.26,0.26h-1.98c-0.17,0-0.26-0.09-0.26-0.26v-17.68c0-0.17,0.09-0.26,0.26-0.26h1.92
		c0.12,0,0.23,0.06,0.31,0.18l8.11,13.29c0.02,0.05,0.04,0.07,0.08,0.07s0.05-0.04,0.05-0.09l-0.03-13.18
		C92.67,163.19,92.76,163.1,92.93,163.1z"/>
	<path fill="#772633" d="M102.77,180.77c-0.96-0.49-1.71-1.2-2.24-2.11c-0.53-0.91-0.79-1.95-0.79-3.13v-6.66
		c0-1.2,0.26-2.25,0.79-3.15c0.53-0.9,1.27-1.6,2.24-2.09s2.07-0.74,3.31-0.74s2.35,0.24,3.3,0.73c0.95,0.49,1.69,1.16,2.22,2.01
		s0.79,1.82,0.79,2.9v0.29c0,0.17-0.09,0.26-0.26,0.26h-1.98c-0.17,0-0.26-0.09-0.26-0.26v-0.23c0-1.04-0.35-1.88-1.05-2.54
		s-1.62-0.97-2.77-0.97c-1.16,0-2.09,0.34-2.79,1.01s-1.05,1.58-1.05,2.7v6.81c0,1.13,0.36,2.03,1.09,2.7s1.68,1.01,2.86,1.01
		c1.14,0,2.05-0.3,2.72-0.9c0.67-0.6,1-1.42,1-2.46v-2c0-0.07-0.04-0.1-0.1-0.1h-3.51c-0.17,0-0.26-0.09-0.26-0.26V172
		c0-0.17,0.09-0.26,0.26-0.26h5.85c0.17,0,0.26,0.09,0.26,0.26v3.3c0,1.99-0.57,3.53-1.7,4.6c-1.14,1.08-2.67,1.61-4.62,1.61
		C104.84,181.51,103.73,181.26,102.77,180.77z"/>
	<path fill="#772633" d="M122.93,181.04v-17.68c0-0.17,0.09-0.26,0.26-0.26h1.98c0.17,0,0.26,0.09,0.26,0.26v15.68
		c0,0.07,0.03,0.1,0.1,0.1h8.97c0.17,0,0.26,0.09,0.26,0.26v1.64c0,0.17-0.09,0.26-0.26,0.26h-11.31
		C123.02,181.3,122.93,181.22,122.93,181.04z"/>
	<path fill="#772633" d="M138.53,181.04v-17.68c0-0.17,0.09-0.26,0.26-0.26h1.98c0.17,0,0.26,0.09,0.26,0.26v17.68
		c0,0.17-0.09,0.26-0.26,0.26h-1.98C138.62,181.3,138.53,181.22,138.53,181.04z"/>
	<path fill="#772633" d="M157.88,165.26h-9.2c-0.07,0-0.1,0.04-0.1,0.1v5.59c0,0.07,0.03,0.1,0.1,0.1h6.32
		c0.17,0,0.26,0.09,0.26,0.26v1.64c0,0.17-0.09,0.26-0.26,0.26h-6.32c-0.07,0-0.1,0.04-0.1,0.1v7.72c0,0.17-0.09,0.26-0.26,0.26
		h-1.98c-0.17,0-0.26-0.09-0.26-0.26v-17.68c0-0.17,0.09-0.26,0.26-0.26h11.54c0.17,0,0.26,0.09,0.26,0.26V165
		C158.14,165.17,158.05,165.26,157.88,165.26z"/>
	<path fill="#772633" d="M173.37,165.26h-9.23c-0.07,0-0.1,0.04-0.1,0.1v5.59c0,0.07,0.03,0.1,0.1,0.1h6.34
		c0.17,0,0.26,0.09,0.26,0.26v1.64c0,0.17-0.09,0.26-0.26,0.26h-6.34c-0.07,0-0.1,0.04-0.1,0.1v5.72c0,0.07,0.03,0.1,0.1,0.1h9.23
		c0.17,0,0.26,0.09,0.26,0.26v1.64c0,0.17-0.09,0.26-0.26,0.26H161.8c-0.17,0-0.26-0.09-0.26-0.26v-17.68
		c0-0.17,0.09-0.26,0.26-0.26h11.57c0.17,0,0.26,0.09,0.26,0.26V165C173.63,165.17,173.55,165.26,173.37,165.26z"/>
	<path fill="#772633" d="M189.96,163.1h1.98c0.17,0,0.26,0.09,0.26,0.26v17.68c0,0.17-0.09,0.26-0.26,0.26h-1.98
		c-0.17,0-0.26-0.09-0.26-0.26v-13.31c0-0.05-0.02-0.09-0.05-0.1c-0.04-0.02-0.06,0-0.08,0.05l-3.72,5.67
		c-0.07,0.1-0.17,0.16-0.31,0.16h-0.99c-0.12,0-0.23-0.05-0.31-0.16l-3.74-5.62c-0.02-0.05-0.04-0.07-0.08-0.05
		c-0.03,0.02-0.05,0.05-0.05,0.1v13.26c0,0.17-0.09,0.26-0.26,0.26h-1.98c-0.17,0-0.26-0.09-0.26-0.26v-17.68
		c0-0.17,0.09-0.26,0.26-0.26h1.98c0.14,0,0.24,0.05,0.31,0.16l4.55,6.81c0.02,0.02,0.04,0.03,0.08,0.03c0.04,0,0.06-0.01,0.08-0.03
		l4.52-6.81C189.74,163.15,189.84,163.1,189.96,163.1z"/>
	<path fill="#772633" d="M207.98,181.09l-0.94-3.04c-0.02-0.05-0.05-0.08-0.1-0.08h-7.31c-0.05,0-0.09,0.03-0.1,0.08l-0.94,3.04
		c-0.05,0.14-0.16,0.21-0.31,0.21h-2.11c-0.19,0-0.26-0.09-0.21-0.29l5.69-17.71c0.05-0.14,0.16-0.21,0.31-0.21h2.6
		c0.16,0,0.26,0.07,0.31,0.21l5.75,17.71l0.03,0.1c0,0.12-0.08,0.18-0.23,0.18h-2.13C208.14,181.3,208.03,181.23,207.98,181.09z
		 M200.19,175.96c0.03,0.03,0.06,0.04,0.09,0.04h5.98c0.03,0,0.06-0.01,0.09-0.04c0.03-0.03,0.03-0.06,0.01-0.09l-3.02-9.65
		c-0.02-0.03-0.04-0.05-0.08-0.05c-0.04,0-0.06,0.02-0.08,0.05l-3.02,9.65C200.16,175.9,200.17,175.93,200.19,175.96z"/>
	<path fill="#772633" d="M224.49,181.12l-3.64-7.77c-0.02-0.05-0.05-0.08-0.1-0.08H217c-0.07,0-0.1,0.04-0.1,0.1v7.67
		c0,0.17-0.09,0.26-0.26,0.26h-1.98c-0.17,0-0.26-0.09-0.26-0.26v-17.68c0-0.17,0.09-0.26,0.26-0.26h6.99
		c1.04,0,1.95,0.22,2.74,0.65s1.4,1.04,1.83,1.82c0.43,0.78,0.65,1.68,0.65,2.7c0,1.21-0.32,2.24-0.95,3.08
		c-0.63,0.84-1.51,1.41-2.64,1.7c-0.07,0.04-0.09,0.08-0.05,0.13l3.77,7.8c0.02,0.03,0.03,0.08,0.03,0.13
		c0,0.12-0.07,0.18-0.21,0.18h-2.05C224.64,181.3,224.54,181.24,224.49,181.12z M216.9,165.36v5.82c0,0.07,0.03,0.1,0.1,0.1h4.34
		c0.92,0,1.66-0.27,2.21-0.82s0.83-1.27,0.83-2.17c0-0.92-0.28-1.66-0.83-2.21s-1.29-0.83-2.21-0.83H217
		C216.93,165.26,216.9,165.3,216.9,165.36z"/>
	<path fill="#772633" d="M231.12,181.04v-17.68c0-0.17,0.09-0.26,0.26-0.26h1.98c0.17,0,0.26,0.09,0.26,0.26v8.29
		c0,0.04,0.02,0.06,0.05,0.07c0.04,0.01,0.06,0,0.08-0.04l7.44-8.42c0.07-0.1,0.17-0.16,0.31-0.16h2.26c0.1,0,0.17,0.03,0.21,0.09
		c0.04,0.06,0.02,0.13-0.05,0.22l-6.19,7.31c-0.02,0.05-0.02,0.1,0,0.16l6.63,10.11c0.03,0.07,0.05,0.12,0.05,0.16
		c0,0.1-0.07,0.16-0.21,0.16h-2.26c-0.12,0-0.23-0.05-0.31-0.16l-5.62-8.5c-0.02-0.03-0.04-0.05-0.08-0.05
		c-0.04,0-0.06,0.01-0.08,0.03l-2.18,2.44c-0.03,0.07-0.05,0.11-0.05,0.13v5.85c0,0.17-0.09,0.26-0.26,0.26h-1.98
		C231.21,181.3,231.12,181.22,231.12,181.04z"/>
	<path fill="#772633" d="M249.72,180.89c-0.98-0.42-1.73-1-2.26-1.77c-0.53-0.76-0.79-1.66-0.79-2.68v-0.75
		c0-0.17,0.09-0.26,0.26-0.26h1.9c0.17,0,0.26,0.09,0.26,0.26v0.62c0,0.88,0.38,1.61,1.14,2.18c0.76,0.57,1.81,0.86,3.15,0.86
		c1.2,0,2.1-0.25,2.7-0.75c0.61-0.5,0.91-1.16,0.91-1.98c0-0.54-0.16-1-0.47-1.38c-0.31-0.38-0.77-0.73-1.37-1.05
		c-0.6-0.32-1.47-0.71-2.61-1.16c-1.26-0.49-2.27-0.93-3-1.33s-1.35-0.92-1.83-1.57s-0.73-1.47-0.73-2.46c0-1.49,0.53-2.66,1.6-3.51
		c1.07-0.85,2.51-1.27,4.33-1.27c1.28,0,2.41,0.22,3.38,0.65s1.72,1.04,2.25,1.82c0.53,0.78,0.79,1.68,0.79,2.7v0.52
		c0,0.17-0.09,0.26-0.26,0.26h-1.95c-0.17,0-0.26-0.09-0.26-0.26v-0.39c0-0.9-0.36-1.65-1.08-2.25c-0.72-0.6-1.71-0.9-2.98-0.9
		c-1.08,0-1.91,0.22-2.5,0.66c-0.59,0.44-0.88,1.08-0.88,1.91c0,0.57,0.15,1.04,0.44,1.4c0.29,0.36,0.73,0.69,1.31,0.98
		c0.58,0.29,1.47,0.65,2.67,1.1c1.23,0.49,2.23,0.93,2.99,1.34s1.4,0.94,1.9,1.61c0.5,0.67,0.75,1.5,0.75,2.48
		c0,1.53-0.56,2.73-1.68,3.63s-2.66,1.34-4.62,1.34C251.86,181.51,250.7,181.3,249.72,180.89z"/>
</g>
</svg>
