<?xml version="1.0" encoding="utf-8"?>
<!-- Generator: Adobe Illustrator 24.0.1, SVG Export Plug-In . SVG Version: 6.00 Build 0)  -->
<svg version="1.1" id="Layer_1" xmlns="http://www.w3.org/2000/svg" xmlns:xlink="http://www.w3.org/1999/xlink" x="0px" y="0px"
	 width="200px" height="80px" viewBox="0 0 200 80" enable-background="new 0 0 200 80" xml:space="preserve">
<g>
	<g>
		<g>
			<g>
				<path fill="#FFFFFF" d="M0,27.09h10.05v8.84H0V27.09z M0,80V42.21h10.05V80H0z"/>
				<path fill="#FFFFFF" d="M49.15,47.12c1.24,1.54,2.13,3.47,2.68,5.8c0.55,2.33,0.82,5.21,0.82,8.63V80H42.53V61.5
					c0-1.39-0.04-2.72-0.11-3.99c-0.07-1.26-0.33-2.38-0.78-3.35c-0.45-0.98-1.17-1.74-2.16-2.28c-0.99-0.55-2.41-0.82-4.24-0.82
					c-1.74,0-3.35,0.37-4.84,1.12v0.07l-0.07-0.07l-3.65-6.42l0.07-0.07c2.58-2.32,5.8-3.47,9.67-3.47
					C42.38,42.21,46.62,43.84,49.15,47.12 M14.59,42.21h10.28V80H14.59V42.21z"/>
				<path fill="#FFFFFF" d="M96.63,27.08V80h-9.82l0.07-19.03c0-1.37-0.28-2.66-0.84-3.89c-0.56-1.22-1.3-2.28-2.2-3.19
					c-0.9-0.9-1.98-1.61-3.23-2.13c-1.25-0.51-2.58-0.77-3.99-0.77c-1.42,0-2.74,0.26-3.96,0.77c-1.22,0.51-2.28,1.23-3.19,2.16
					c-0.9,0.93-1.62,2-2.16,3.23c-0.54,1.22-0.81,2.54-0.81,3.96c0,1.42,0.27,2.74,0.81,3.96c0.54,1.22,1.26,2.28,2.16,3.19
					c0.9,0.9,1.97,1.62,3.19,2.16c1.22,0.54,2.54,0.81,3.96,0.81c0.68,0,1.37-0.05,2.05-0.15c0.68-0.1,1.32-0.29,1.91-0.59h0.07
					h0.07l3.59,6.6l-0.07,0.07c-2.39,1.86-5.33,2.79-8.8,2.79c-2.64,0-5.11-0.49-7.4-1.47c-2.3-0.98-4.3-2.32-6.01-4.03
					c-1.71-1.71-3.07-3.71-4.07-6.01c-1-2.3-1.5-4.74-1.5-7.33c0-2.59,0.5-5.03,1.5-7.33c1-2.3,2.36-4.3,4.07-6.01
					c1.71-1.71,3.71-3.05,6.01-4.03c2.3-0.98,4.76-1.47,7.4-1.47c4.98,0,8.8,1.86,11.44,5.57V27.08H96.63z"/>
				<path fill="#FFFFFF" d="M102.35,27.09h10.05v8.84h-10.05V27.09z M102.35,80V42.21h10.05V80H102.35z"/>
				<path fill="#FFFFFF" d="M135.41,57.66c1.61,0.54,3.09,1.09,4.43,1.65c1.34,0.56,2.51,1.23,3.52,2.01c1,0.78,1.78,1.72,2.34,2.82
					c0.56,1.1,0.84,2.4,0.84,3.92v0.07c0,3.71-1.23,6.62-3.7,8.72c-2.47,2.1-5.92,3.15-10.36,3.15c-2.78,0-5.52-0.48-8.2-1.44
					c-2.69-0.96-5.2-2.33-7.54-4.1l-0.07-0.07l0.07-0.07l4.98-7.86l0.07,0.07c1.46,1.56,3.13,2.75,4.98,3.55
					c1.86,0.81,3.83,1.21,5.93,1.21c2.88,0,4.32-0.93,4.32-2.77c0-0.88-0.46-1.54-1.39-1.98c-0.93-0.44-2.03-0.85-3.3-1.25
					c-0.24-0.1-0.48-0.16-0.7-0.18c-0.22-0.02-0.45-0.09-0.7-0.18c-1.46-0.39-2.93-0.82-4.39-1.27c-1.46-0.46-2.78-1.1-3.96-1.9
					c-1.17-0.81-2.14-1.83-2.89-3.06c-0.76-1.25-1.14-2.84-1.14-4.79v-0.15c0-1.71,0.32-3.27,0.95-4.68
					c0.63-1.42,1.54-2.64,2.71-3.66c1.17-1.01,2.59-1.81,4.25-2.37c1.66-0.56,3.49-0.84,5.49-0.84c2.34,0,4.71,0.35,7.1,1.06
					c2.39,0.71,4.61,1.75,6.67,3.11v0.15l-4.47,8.13l-0.07-0.07c-1.12-1.12-2.51-2.01-4.17-2.67c-1.66-0.66-3.42-0.99-5.27-0.99
					c-0.34,0-0.73,0.02-1.17,0.07c-0.44,0.05-0.84,0.17-1.21,0.37c-0.37,0.2-0.67,0.45-0.92,0.77c-0.24,0.32-0.37,0.77-0.37,1.35
					c0,0.44,0.2,0.84,0.59,1.21c0.39,0.37,0.89,0.71,1.5,1.03c0.61,0.32,1.29,0.62,2.05,0.92c0.76,0.29,1.5,0.56,2.23,0.81
					c0.15,0,0.31,0.02,0.48,0.07C135.1,57.56,135.26,57.61,135.41,57.66"/>
			</g>
		</g>
	</g>
	<g>
		<polygon fill-rule="evenodd" clip-rule="evenodd" fill="#FCDEC2" points="162.12,0 158.21,7 166.16,7 170.19,0 		"/>
		<polygon fill-rule="evenodd" clip-rule="evenodd" fill="#E9CCA2" points="170.19,0 166.16,7 170.19,14.08 174.11,7 		"/>
		<polygon fill-rule="evenodd" clip-rule="evenodd" fill="#F8D59E" points="166.16,7 158.21,7 162.12,14.08 170.19,14.08 		"/>
		<polygon fill-rule="evenodd" clip-rule="evenodd" fill="#4EC7F0" points="186.31,0 178.28,0 174.11,7 182.26,7 		"/>
		<polygon fill-rule="evenodd" clip-rule="evenodd" fill="#4AC3DA" points="190.52,7 186.31,0 182.26,7 186.31,14.08 		"/>
		<polygon fill-rule="evenodd" clip-rule="evenodd" fill="#1EA4D9" points="182.26,7 174.11,7 178.28,14.08 		"/>
		<polygon fill-rule="evenodd" clip-rule="evenodd" fill="#DE8C41" points="174.11,7 170.19,14.08 174.11,20.88 178.28,14.08 		"/>
		<polygon fill-rule="evenodd" clip-rule="evenodd" fill="#F89C43" points="170.19,14.08 161.99,14.07 166.16,21.05 174.11,20.88 		
			"/>
		<polygon fill-rule="evenodd" clip-rule="evenodd" fill="#4767AE" points="178.28,14.08 186.31,14.08 182.26,7 		"/>
		<polygon fill-rule="evenodd" clip-rule="evenodd" fill="#92658A" points="178.28,14.07 174.11,20.88 182.35,20.88 186.31,14.08 		
			"/>
		<polyline fill="none" points="182.35,20.88 186.22,14.07 178.28,14.07 		"/>
		<polygon fill-rule="evenodd" clip-rule="evenodd" fill="#B46EAC" points="186.31,14.08 182.26,20.88 190.52,20.88 194.37,14.08 		
			"/>
		<polyline fill="none" points="194.29,14.07 186.22,14.07 182.35,20.88 		"/>
		<polygon fill-rule="evenodd" clip-rule="evenodd" fill="#2F2A3E" points="190.52,20.88 194.37,27.69 198.18,20.88 194.37,14.08 		
			"/>
		<polygon fill-rule="evenodd" clip-rule="evenodd" fill="#26272F" points="174.11,20.88 178.28,27.69 194.37,27.69 190.52,20.88 		
			"/>
		<polygon fill-rule="evenodd" clip-rule="evenodd" fill="#806576" points="174.11,20.88 170.19,27.69 174.11,34.73 178.28,27.69 		
			"/>
		<polygon fill-rule="evenodd" clip-rule="evenodd" fill="#D9CAD1" points="174.11,20.88 166.19,20.88 162.12,27.69 170.19,27.69 		
			"/>
		<polygon fill-rule="evenodd" clip-rule="evenodd" fill="#582631" points="182.26,34.73 186.31,27.69 178.28,27.69 		"/>
		<polygon fill-rule="evenodd" clip-rule="evenodd" fill="#BE3C45" points="182.26,34.73 174.11,34.73 178.28,27.69 		"/>
		<polygon fill-rule="evenodd" clip-rule="evenodd" fill="#F48343" points="186.31,27.69 182.26,34.73 186.31,41.76 190.52,34.73 		
			"/>
		<polygon fill-rule="evenodd" clip-rule="evenodd" fill="#F06A43" points="182.26,34.73 174.11,34.73 178.28,41.76 186.31,41.76 		
			"/>
		<polygon fill-rule="evenodd" clip-rule="evenodd" fill="#11965F" points="158.21,20.88 166.19,20.88 162.12,14.08 		"/>
		<polygon fill-rule="evenodd" clip-rule="evenodd" fill="#183C32" points="158.21,20.88 166.19,20.88 162.12,27.69 		"/>
		<polygon fill-rule="evenodd" clip-rule="evenodd" fill="#CCD64D" points="162.12,14.08 153.96,14.08 150.35,20.88 158.21,20.88 		
			"/>
		<polygon fill-rule="evenodd" clip-rule="evenodd" fill="#89A053" points="158.21,20.88 150.35,20.88 153.96,27.69 162.12,27.69 		
			"/>
		<polygon fill-rule="evenodd" clip-rule="evenodd" fill="#E58FBC" points="170.19,27.69 166.29,34.73 170.21,41.76 174.11,34.73 		
			"/>
		<polygon fill-rule="evenodd" clip-rule="evenodd" fill="#F0B1C6" points="170.19,27.69 162.12,27.69 158.21,34.73 166.29,34.73 		
			"/>
		<polygon fill-rule="evenodd" clip-rule="evenodd" fill="#F8C0CB" points="166.29,34.73 158.21,34.73 162.12,41.76 170.21,41.76 		
			"/>
	</g>
</g>
</svg>
