<?xml version="1.0" encoding="utf-8"?>
<!-- Generator: Adobe Illustrator 24.0.1, SVG Export Plug-In . SVG Version: 6.00 Build 0)  -->
<svg version="1.1" id="Layer_1" xmlns="http://www.w3.org/2000/svg" xmlns:xlink="http://www.w3.org/1999/xlink" x="0px" y="0px"
	 width="360px" height="192px" viewBox="0 0 360 192" enable-background="new 0 0 360 192" xml:space="preserve">
<g>
	<g>
		<g>
			<path fill="#C0343C" d="M11.11,191.65c-6.78,0-10.98-4.93-10.98-11.13c0-5.95,4.35-11.19,10.82-11.19c3.64,0,5.89,1.05,8.05,2.87
				l-1.57,1.85c-1.67-1.45-3.52-2.47-6.57-2.47c-4.78,0-8.2,4.04-8.2,8.88c0,5.18,3.3,9,8.54,9c2.47,0,4.75-0.96,6.23-2.16v-5.37
				h-6.57v-2.19h8.91v8.6C17.77,190.14,14.75,191.65,11.11,191.65z"/>
			<path fill="#C0343C" d="M43.22,191.28l-6.26-8.39H30.8v8.39h-2.44v-21.59h9.28c4.75,0,7.8,2.56,7.8,6.44
				c0,3.61-2.47,5.7-5.86,6.32l6.63,8.82H43.22z M37.46,171.94H30.8v8.76h6.63c3.24,0,5.55-1.67,5.55-4.47
				C42.98,173.54,40.94,171.94,37.46,171.94z"/>
			<path fill="#C0343C" d="M63.77,191.65c-6.57,0-10.98-5.15-10.98-11.13c0-5.98,4.47-11.19,11.04-11.19s10.98,5.15,10.98,11.13
				S70.34,191.65,63.77,191.65z M63.77,171.57c-4.93,0-8.45,3.95-8.45,8.88c0,4.93,3.58,8.94,8.51,8.94s8.45-3.95,8.45-8.88
				C72.28,175.58,68.71,171.57,63.77,171.57z"/>
			<path fill="#C0343C" d="M100.69,182.06c0,6.29-3.61,9.56-9,9.56c-5.33,0-8.97-3.27-8.97-9.37v-12.55h2.44v12.4
				c0,4.66,2.47,7.28,6.6,7.28c3.98,0,6.51-2.41,6.51-7.12v-12.55h2.44V182.06z"/>
			<path fill="#C0343C" d="M117.23,183.66h-5.24v7.62h-2.44v-21.59h8.08c4.87,0,8.08,2.59,8.08,6.88
				C125.71,181.25,121.83,183.66,117.23,183.66z M117.45,171.94h-5.46v9.5h5.33c3.58,0,5.92-1.91,5.92-4.78
				C123.25,173.54,120.93,171.94,117.45,171.94z"/>
			<path fill="#C0343C" d="M148.24,169.69v21.59h-2.44v-21.59H148.24z"/>
			<path fill="#C0343C" d="M173.53,169.69h2.37v21.59h-1.94l-13.94-17.7v17.7h-2.37v-21.59h2.28l13.6,17.3V169.69z"/>
			<path fill="#C0343C" d="M194.97,191.65c-6.23,0-10.82-4.9-10.82-11.13c0-6.17,4.56-11.19,10.92-11.19c3.92,0,6.26,1.39,8.42,3.42
				l-1.67,1.79c-1.82-1.73-3.85-2.96-6.78-2.96c-4.78,0-8.36,3.85-8.36,8.88c0,5.03,3.61,8.94,8.36,8.94c2.96,0,4.9-1.14,6.97-3.11
				l1.6,1.57C201.35,190.14,198.88,191.65,194.97,191.65z"/>
			<path fill="#C0343C" d="M220.36,191.65c-6.57,0-10.98-5.15-10.98-11.13c0-5.98,4.47-11.19,11.04-11.19s10.98,5.15,10.98,11.13
				S226.92,191.65,220.36,191.65z M220.36,171.57c-4.93,0-8.45,3.95-8.45,8.88c0,4.93,3.58,8.94,8.51,8.94
				c4.93,0,8.45-3.95,8.45-8.88C228.87,175.58,225.29,171.57,220.36,171.57z"/>
			<path fill="#C0343C" d="M254.5,191.28l-6.26-8.39h-6.17v8.39h-2.44v-21.59h9.28c4.75,0,7.8,2.56,7.8,6.44
				c0,3.61-2.47,5.7-5.86,6.32l6.63,8.82H254.5z M248.74,171.94h-6.66v8.76h6.63c3.24,0,5.55-1.67,5.55-4.47
				C254.26,173.54,252.22,171.94,248.74,171.94z"/>
		</g>
		<g>
			<g>
				<g>
					<path fill="#C0343C" d="M0,48.66h18.29v16.09H0V48.66z M0,144.89V76.15h18.29v68.74H0z"/>
					<path fill="#C0343C" d="M89.4,85.08c2.26,2.8,3.88,6.31,4.87,10.55c0.99,4.24,1.49,9.47,1.49,15.7v33.56h-18.4v-33.65
						c0-2.53-0.07-4.94-0.2-7.26c-0.13-2.3-0.61-4.33-1.42-6.09c-0.81-1.78-2.12-3.16-3.92-4.15c-1.8-0.99-4.38-1.49-7.71-1.49
						c-3.16,0-6.09,0.68-8.8,2.03v0.14l-0.14-0.14L48.53,82.6l0.14-0.14c4.69-4.22,10.55-6.32,17.59-6.32
						C77.08,76.15,84.8,79.13,89.4,85.08 M26.53,76.15h18.7v68.74h-18.7V76.15z"/>
					<path fill="#C0343C" d="M175.76,48.65v96.25h-17.87l0.13-34.6c0-2.49-0.51-4.84-1.53-7.07c-1.02-2.22-2.36-4.15-4-5.8
						c-1.64-1.64-3.6-2.93-5.87-3.87c-2.27-0.93-4.69-1.4-7.27-1.4c-2.58,0-4.98,0.47-7.2,1.4c-2.22,0.93-4.16,2.24-5.8,3.93
						c-1.64,1.69-2.96,3.64-3.93,5.87c-0.98,2.22-1.47,4.62-1.47,7.2c0,2.58,0.49,4.98,1.47,7.2c0.98,2.22,2.29,4.16,3.93,5.8
						c1.64,1.64,3.58,2.96,5.8,3.93c2.22,0.98,4.62,1.47,7.2,1.47c1.24,0,2.49-0.09,3.73-0.27c1.24-0.18,2.4-0.53,3.47-1.07h0.13
						h0.13l6.53,12l-0.13,0.13c-4.35,3.38-9.69,5.07-16,5.07c-4.8,0-9.29-0.89-13.47-2.67c-4.18-1.78-7.82-4.22-10.93-7.33
						c-3.11-3.11-5.58-6.76-7.4-10.93c-1.82-4.18-2.73-8.62-2.73-13.33c0-4.71,0.91-9.16,2.73-13.33c1.82-4.18,4.29-7.82,7.4-10.93
						c3.11-3.11,6.76-5.55,10.93-7.33c4.18-1.78,8.67-2.67,13.47-2.67c9.07,0,16,3.38,20.8,10.13V48.65H175.76z"/>
					<path fill="#C0343C" d="M186.15,48.66h18.29v16.09h-18.29V48.66z M186.15,144.89V76.15h18.29v68.74H186.15z"/>
					<path fill="#C0343C" d="M246.28,104.26c2.93,0.98,5.62,1.98,8.06,3c2.44,1.02,4.57,2.24,6.39,3.66
						c1.82,1.42,3.24,3.13,4.26,5.13c1.02,2,1.53,4.37,1.53,7.13v0.13c0,6.75-2.24,12.03-6.73,15.85
						c-4.49,3.82-10.77,5.73-18.85,5.73c-5.06,0-10.04-0.87-14.92-2.62c-4.88-1.75-9.46-4.24-13.72-7.46l-0.13-0.13l0.13-0.13
						l9.06-14.3l0.13,0.13c2.66,2.84,5.68,5,9.06,6.46c3.37,1.47,6.97,2.2,10.79,2.2c5.24,0,7.86-1.69,7.86-5.04
						c0-1.6-0.84-2.8-2.53-3.6c-1.69-0.8-3.69-1.55-5.99-2.26c-0.44-0.18-0.87-0.29-1.27-0.33c-0.4-0.04-0.82-0.16-1.27-0.33
						c-2.66-0.71-5.33-1.49-7.99-2.31c-2.66-0.84-5.06-2-7.19-3.46c-2.13-1.47-3.89-3.33-5.26-5.57c-1.38-2.26-2.06-5.17-2.06-8.7
						v-0.27c0-3.11,0.58-5.95,1.73-8.5c1.15-2.58,2.8-4.8,4.93-6.66c2.13-1.84,4.71-3.29,7.73-4.31c3.02-1.02,6.35-1.53,9.99-1.53
						c4.26,0,8.57,0.64,12.92,1.93c4.35,1.29,8.39,3.18,12.12,5.66v0.27l-8.13,14.79l-0.13-0.13c-2.04-2.04-4.57-3.66-7.59-4.86
						c-3.02-1.2-6.22-1.8-9.59-1.8c-0.62,0-1.33,0.04-2.13,0.13c-0.8,0.09-1.53,0.31-2.2,0.67c-0.67,0.36-1.22,0.82-1.67,1.4
						c-0.44,0.58-0.67,1.4-0.67,2.46c0,0.8,0.36,1.53,1.07,2.2c0.71,0.67,1.62,1.29,2.73,1.86c1.11,0.58,2.35,1.13,3.73,1.67
						c1.38,0.53,2.73,1.02,4.06,1.47c0.27,0,0.56,0.04,0.87,0.13C245.73,104.08,246.02,104.17,246.28,104.26"/>
				</g>
			</g>
		</g>
		<g>
			<polygon fill-rule="evenodd" clip-rule="evenodd" fill="#FCDEC2" points="295.17,0 288.16,12.55 302.41,12.55 309.65,0 			"/>
			<polygon fill-rule="evenodd" clip-rule="evenodd" fill="#E9CCA2" points="309.65,0 302.41,12.55 309.65,25.25 316.68,12.55 			
				"/>
			<polygon fill-rule="evenodd" clip-rule="evenodd" fill="#F8D59E" points="302.41,12.55 288.16,12.55 295.17,25.24 309.65,25.25 
							"/>
			<polygon fill-rule="evenodd" clip-rule="evenodd" fill="#4EC7F0" points="338.56,0 324.15,0 316.68,12.55 331.3,12.55 			"/>
			<polygon fill-rule="evenodd" clip-rule="evenodd" fill="#4AC3DA" points="346.1,12.55 338.56,0 331.3,12.55 338.56,25.25 			"/>
			<polygon fill-rule="evenodd" clip-rule="evenodd" fill="#1EA4D9" points="331.3,12.55 316.68,12.55 324.15,25.25 			"/>
			<polygon fill-rule="evenodd" clip-rule="evenodd" fill="#DE8C41" points="316.68,12.55 309.65,25.25 316.68,37.44 324.15,25.25 
							"/>
			<polygon fill-rule="evenodd" clip-rule="evenodd" fill="#F89C43" points="309.65,25.25 294.94,25.24 302.41,37.74 316.68,37.44 
							"/>
			<polygon fill-rule="evenodd" clip-rule="evenodd" fill="#4767AE" points="324.15,25.25 338.56,25.25 331.3,12.55 			"/>
			<polygon fill-rule="evenodd" clip-rule="evenodd" fill="#92658A" points="324.15,25.24 316.68,37.44 331.45,37.44 338.56,25.25 
							"/>
			<polygon fill-rule="evenodd" clip-rule="evenodd" fill="#B46EAC" points="338.56,25.25 331.3,37.44 346.1,37.44 353.01,25.25 			
				"/>
			<polygon fill-rule="evenodd" clip-rule="evenodd" fill="#2F2A3E" points="346.1,37.44 353.01,49.65 359.85,37.44 353.01,25.25 
							"/>
			<polygon fill-rule="evenodd" clip-rule="evenodd" fill="#26272F" points="316.68,37.44 324.15,49.65 353.01,49.65 346.1,37.44 
							"/>
			<polygon fill-rule="evenodd" clip-rule="evenodd" fill="#806576" points="316.68,37.44 309.65,49.65 316.68,62.28 324.15,49.65 
							"/>
			<polygon fill-rule="evenodd" clip-rule="evenodd" fill="#D9CAD1" points="316.68,37.44 302.47,37.44 295.17,49.65 309.65,49.65 
							"/>
			<polygon fill-rule="evenodd" clip-rule="evenodd" fill="#582631" points="331.3,62.28 338.56,49.65 324.15,49.65 			"/>
			<polygon fill-rule="evenodd" clip-rule="evenodd" fill="#BE3C45" points="331.3,62.28 316.68,62.28 324.15,49.65 			"/>
			<polygon fill-rule="evenodd" clip-rule="evenodd" fill="#F48343" points="338.56,49.65 331.3,62.28 338.56,74.89 346.1,62.28 			
				"/>
			<polygon fill-rule="evenodd" clip-rule="evenodd" fill="#F06A43" points="331.3,62.28 316.68,62.28 324.15,74.89 338.56,74.89 
							"/>
			<polygon fill-rule="evenodd" clip-rule="evenodd" fill="#11965F" points="288.16,37.44 302.47,37.44 295.17,25.24 			"/>
			<polygon fill-rule="evenodd" clip-rule="evenodd" fill="#183C32" points="288.16,37.44 302.47,37.44 295.17,49.65 			"/>
			<polygon fill-rule="evenodd" clip-rule="evenodd" fill="#CCD64D" points="295.17,25.24 280.54,25.24 274.07,37.44 288.16,37.44 
							"/>
			<polygon fill-rule="evenodd" clip-rule="evenodd" fill="#89A053" points="288.16,37.44 274.07,37.44 280.54,49.65 295.17,49.65 
							"/>
			<polygon fill-rule="evenodd" clip-rule="evenodd" fill="#E58FBC" points="309.65,49.65 302.64,62.28 309.68,74.89 316.68,62.28 
							"/>
			<polygon fill-rule="evenodd" clip-rule="evenodd" fill="#F0B1C6" points="309.65,49.65 295.17,49.65 288.16,62.28 302.64,62.28 
							"/>
			<polygon fill-rule="evenodd" clip-rule="evenodd" fill="#F8C0CB" points="302.64,62.28 288.16,62.28 295.17,74.89 309.68,74.89 
							"/>
		</g>
	</g>
</g>
</svg>
