<svg xmlns="http://www.w3.org/2000/svg" viewBox="0 0 300 327.25"><polygon points="287.58 0 12.42 0 12.42 0 0 0 0 0 0 0 0 12.42 0 12.42 0 128.87 12.42 140.96 12.42 12.42 287.58 12.42 287.58 314.83 12.42 314.83 12.42 198.02 72 198.02 84.08 185.59 12.42 185.59 12.42 185.59 0 185.59 0 314.83 0 327.25 12.42 327.25 287.58 327.25 300 327.25 300 314.83 300 12.42 300 0 287.58 0" style="fill:#c0343c"/><path d="M41.41,33.15V73.92c0,3.78,1.66,5.13,4.3,5.13S50,77.7,50,73.92V33.15h7.86V73.39c0,8.46-4.23,13.29-12.39,13.29S33.1,81.85,33.1,73.39V33.15Z" style="fill:#c0343c"/><path d="M88.14,46.21v6.87c0,8.46-4.08,13.06-12.38,13.06H71.83V86h-8.3V33.15H75.76C84.06,33.15,88.14,37.75,88.14,46.21ZM71.83,40.7V58.59h3.93c2.64,0,4.08-1.2,4.08-5V45.68c0-3.77-1.44-5-4.08-5Z" style="fill:#c0343c"/><path d="M104.45,56.55h11.63V73.32c0,8.45-4.23,13.28-12.39,13.28S91.31,81.77,91.31,73.32V45.83c0-8.45,4.23-13.28,12.38-13.28s12.39,4.83,12.39,13.28V51h-7.86V45.31c0-3.78-1.66-5.21-4.3-5.21s-4.3,1.43-4.3,5.21V73.84c0,3.78,1.66,5.14,4.3,5.14s4.3-1.36,4.3-5.14V64.1h-3.77Z" style="fill:#c0343c"/><path d="M138.8,86c-.45-1.36-.75-2.19-.75-6.49V71.2c0-4.91-1.66-6.72-5.44-6.72h-2.87V86h-8.3V33.15H134c8.61,0,12.31,4,12.31,12.16v4.15c0,5.43-1.74,8.91-5.44,10.64v.15c4.15,1.74,5.51,5.67,5.51,11.18v8.15a15.57,15.57,0,0,0,.91,6.42Zm-9.06-45.3V56.93H133c3.09,0,5-1.36,5-5.58V46.14c0-3.78-1.28-5.44-4.23-5.44Z" style="fill:#c0343c"/><path d="M178.67,86h-8.38l-1.44-9.59H158.66L157.22,86H149.6l8.45-52.85h12.16Zm-19-16.76h8l-3.93-26.73h-.15Z" style="fill:#c0343c"/><path d="M182.52,33.15h13.13c8.31,0,12.39,4.6,12.39,13.06V72.94C208,81.39,204,86,195.65,86H182.52Zm8.3,7.55V78.45h4.68c2.64,0,4.23-1.36,4.23-5.13V45.83c0-3.77-1.59-5.13-4.23-5.13Z" style="fill:#c0343c"/><path d="M221.62,55.42H233V63h-11.4V78.45H236V86H213.32V33.15H236V40.7H221.62Z" style="fill:#c0343c"/><path d="M241.1,33.15h13.14c8.3,0,12.38,4.6,12.38,13.06V72.94c0,8.45-4.08,13.06-12.38,13.06H241.1Zm8.31,7.55V78.45h4.68c2.64,0,4.23-1.36,4.23-5.13V45.83c0-3.77-1.59-5.13-4.23-5.13Z" style="fill:#c0343c"/><g style="opacity:0.5;isolation:isolate"><path d="M43.21,259.5H56v9H43.21v26h-9.9v-63H59.5v9H43.21Z" style="fill:#c0343c"/><path d="M94.24,294.51h-10l-1.71-11.43H70.39l-1.71,11.43H59.59l10.08-63H84.16Zm-22.59-20h9.54l-4.68-31.86h-.18Z" style="fill:#c0343c"/><path d="M118.81,276.24H119l6.66-44.73h13.77v63h-9.36V249.33h-.18l-6.66,45.18h-9.36L106.66,250h-.18v44.55H97.84v-63h13.77Z" style="fill:#c0343c"/><path d="M145.72,231.51h9.9v63h-9.9Z" style="fill:#c0343c"/><path d="M161.92,231.51h9.9v54h16.29v9H161.92Z" style="fill:#c0343c"/><path d="M191.53,231.51h9.89v63h-9.89Z" style="fill:#c0343c"/><path d="M217.62,258.06h13.59v9H217.62v18.45h17.1v9h-27v-63h27v9h-17.1Z" style="fill:#c0343c"/><path d="M253.26,230.79c9.63,0,14.58,5.76,14.58,15.84v2h-9.36V246c0-4.5-1.8-6.21-5-6.21s-4.95,1.71-4.95,6.21,2,8,8.46,13.68c8.28,7.29,10.89,12.51,10.89,19.71,0,10.08-5,15.84-14.76,15.84s-14.75-5.76-14.75-15.84v-3.87h9.35V280c0,4.5,2,6.12,5.13,6.12S258,284.52,258,280s-2-8-8.46-13.68c-8.28-7.29-10.89-12.51-10.89-19.71C238.68,236.55,243.63,230.79,253.26,230.79Z" style="fill:#c0343c"/></g><g style="opacity:0.5;isolation:isolate"><path d="M33.22,91.82h7.59v41.4H53.3v6.9H33.22Z" style="fill:#c0343c"/><path d="M56.61,91.82H64.2v48.3H56.61Z" style="fill:#c0343c"/><path d="M77.31,113.28h9.8v6.89h-9.8v20H69.72V91.82H89.8v6.9H77.31Z" style="fill:#c0343c"/><path d="M101,112.17h10.42v6.9H101v14.15h13.12v6.9H93.46V91.82h20.7v6.9H101Z" style="fill:#c0343c"/><path d="M129.06,91.26c7.38,0,11.18,4.42,11.18,12.15v1.52h-7.18v-2c0-3.45-1.38-4.76-3.79-4.76s-3.8,1.31-3.8,4.76,1.52,6.15,6.49,10.49c6.34,5.59,8.35,9.59,8.35,15.11,0,7.73-3.87,12.15-11.32,12.15s-11.32-4.42-11.32-12.15v-3h7.18V129c0,3.45,1.52,4.69,3.93,4.69s3.94-1.24,3.94-4.69-1.52-6.14-6.49-10.49c-6.35-5.59-8.35-9.59-8.35-15.11C117.88,95.68,121.68,91.26,129.06,91.26Z" style="fill:#c0343c"/><path d="M142.44,91.82H165.9v6.9H158v41.4h-7.59V98.72h-7.94Z" style="fill:#c0343c"/><path d="M176.32,124.11l-9.59-32.29h7.94l5.72,22h.14l5.73-22h7.24l-9.59,32.29v16h-7.59Z" style="fill:#c0343c"/><path d="M196.54,91.82h7.59v41.4h12.49v6.9H196.54Z" style="fill:#c0343c"/><path d="M227.52,112.17h10.42v6.9H227.52v14.15h13.11v6.9h-20.7V91.82h20.7v6.9H227.52Z" style="fill:#c0343c"/><path d="M255.53,91.26c7.39,0,11.18,4.42,11.18,12.15v1.52h-7.17v-2c0-3.45-1.38-4.76-3.8-4.76S252,99.47,252,102.92s1.51,6.15,6.48,10.49c6.35,5.59,8.35,9.59,8.35,15.11,0,7.73-3.86,12.15-11.32,12.15s-11.31-4.42-11.31-12.15v-3h7.17V129c0,3.45,1.52,4.69,3.94,4.69s3.93-1.24,3.93-4.69-1.52-6.14-6.49-10.49c-6.34-5.59-8.34-9.59-8.34-15.11C244.36,95.68,248.15,91.26,255.53,91.26Z" style="fill:#c0343c"/></g><path d="M14.29,157.7c0-3.41,1.8-5.37,5.1-5.37s5.09,2,5.09,5.37v11.11c0,3.41-1.8,5.36-5.09,5.36s-5.1-1.95-5.1-5.36ZM17.65,169c0,1.52.67,2.1,1.74,2.1s1.74-.58,1.74-2.1V157.49c0-1.53-.67-2.11-1.74-2.11s-1.74.58-1.74,2.11Z" style="fill:#c0343c"/><path d="M29.39,162.06h4.33v3.05H29.39v8.82H26V152.58h8.87v3H29.39Z" style="fill:#c0343c"/><path d="M39.76,157.7c0-3.41,1.8-5.37,5.09-5.37s5.1,2,5.1,5.37v11.11c0,3.41-1.8,5.36-5.1,5.36s-5.09-1.95-5.09-5.36ZM43.12,169c0,1.52.67,2.1,1.73,2.1s1.74-.58,1.74-2.1V157.49c0-1.53-.67-2.11-1.74-2.11s-1.73.58-1.73,2.11Z" style="fill:#c0343c"/><path d="M56.51,170h.06l2.53-17.42h3.08l-3.29,21.35h-5l-3.29-21.35H54Z" style="fill:#c0343c"/><path d="M66.48,161.58h4.61v3H66.48v6.25h5.8v3.05H63.12V152.58h9.16v3h-5.8Z" style="fill:#c0343c"/><path d="M80.75,173.93a6.68,6.68,0,0,1-.3-2.62V168c0-2-.67-2.71-2.2-2.71H77.09v8.69H73.74V152.58H78.8c3.48,0,5,1.61,5,4.91v1.68c0,2.19-.7,3.6-2.19,4.3v.06c1.68.7,2.22,2.29,2.22,4.51v3.3a6.21,6.21,0,0,0,.37,2.59Zm-3.66-18.3v6.56h1.32c1.25,0,2-.55,2-2.26v-2.11c0-1.52-.52-2.19-1.71-2.19Z" style="fill:#c0343c"/><text transform="translate(90.69 218.09)" style="font-size:101px;fill:#c0343c;font-family:BebasNeue, Bebas Neue">4,200</text></svg>