<?xml version="1.0" encoding="utf-8"?>
<!-- Generator: Adobe Illustrator 24.0.1, SVG Export Plug-In . SVG Version: 6.00 Build 0)  -->
<svg version="1.1" id="Layer_1" xmlns="http://www.w3.org/2000/svg" xmlns:xlink="http://www.w3.org/1999/xlink" x="0px" y="0px"
	 width="300px" height="327.25px" viewBox="0 0 300 327.25" enable-background="new 0 0 300 327.25" xml:space="preserve">
<g>
	<path opacity="0.5" fill="#C0343C" d="M237.03,244.44c0,7.38,2.68,12.73,11.16,20.2c6.64,5.81,8.67,9.32,8.67,14.02
		c0,4.61-2.03,6.27-5.26,6.27c-3.23,0-5.26-1.66-5.26-6.27v-4.61h-9.59v3.97c0,10.33,5.17,16.23,15.13,16.23
		c9.96,0,15.13-5.9,15.13-16.23c0-7.38-2.68-12.73-11.16-20.2c-6.64-5.81-8.67-9.31-8.67-14.02c0-4.61,1.84-6.36,5.07-6.36
		c3.23,0,5.08,1.75,5.08,6.36v2.68h9.59v-2.03c0-10.33-5.08-16.23-14.95-16.23C242.11,228.21,237.03,234.12,237.03,244.44
		 M216.37,238.17h17.53v-9.23h-27.67v64.57h27.67v-9.23h-17.53v-18.91h13.93v-9.23h-13.93V238.17z M190.54,293.52h10.15v-64.57
		h-10.15V293.52z M161.12,293.52h26.84v-9.23h-16.7v-55.35h-10.15V293.52z M145.44,293.52h10.15v-64.57h-10.15V293.52z
		 M111.4,228.95H97.29v64.57h8.86v-45.66h0.18l7.38,45.66h9.59l6.83-46.31h0.18v46.31h9.59v-64.57h-14.11l-6.82,45.85h-0.18
		L111.4,228.95z M76.16,240.39h0.18l4.8,32.66h-9.78L76.16,240.39z M84.19,228.95H69.34L59,293.52h9.32l1.75-11.72h12.45l1.75,11.72
		h10.24L84.19,228.95z M43.14,238.17h16.7v-9.23H32.99v64.57h10.15v-26.66h13.1v-9.23h-13.1V238.17z"/>
	<path opacity="0.5" fill="#C0343C" d="M244.54,103.63c0,5.53,2.01,9.54,8.37,15.14c4.98,4.36,6.5,6.98,6.5,10.51
		c0,3.46-1.52,4.7-3.94,4.7s-3.94-1.25-3.94-4.7v-3.46h-7.19v2.97c0,7.74,3.87,12.17,11.34,12.17c7.47,0,11.34-4.43,11.34-12.17
		c0-5.53-2-9.54-8.37-15.14c-4.98-4.36-6.5-6.98-6.5-10.51c0-3.46,1.38-4.77,3.8-4.77c2.42,0,3.8,1.32,3.8,4.77v2h7.19v-1.52
		c0-7.74-3.8-12.17-11.2-12.17C248.35,91.46,244.54,95.88,244.54,103.63 M227.68,98.92h13.13v-6.91h-20.74v48.4h20.74v-6.91h-13.13
		v-14.17h10.44v-6.91h-10.44V98.92z M196.63,140.41h20.12v-6.91h-12.51V92.01h-7.61V140.41z M176.38,140.41h7.61v-16.04l9.61-32.35
		h-7.26l-5.74,22.05h-0.14l-5.74-22.05h-7.95l9.61,32.35V140.41z M142.43,98.92h7.95v41.48h7.61V98.92h7.95v-6.91h-23.51V98.92z
		 M117.82,103.63c0,5.53,2,9.54,8.37,15.14c4.98,4.36,6.5,6.98,6.5,10.51c0,3.46-1.52,4.7-3.94,4.7c-2.42,0-3.94-1.25-3.94-4.7
		v-3.46h-7.19v2.97c0,7.74,3.87,12.17,11.34,12.17c7.47,0,11.34-4.43,11.34-12.17c0-5.53-2.01-9.54-8.37-15.14
		c-4.98-4.36-6.5-6.98-6.5-10.51c0-3.46,1.38-4.77,3.8-4.77c2.42,0,3.8,1.32,3.8,4.77v2h7.19v-1.52c0-7.74-3.8-12.17-11.2-12.17
		C121.62,91.46,117.82,95.88,117.82,103.63 M100.95,98.92h13.14v-6.91H93.34v48.4h20.74v-6.91h-13.14v-14.17h10.44v-6.91h-10.44
		V98.92z M77.17,98.92h12.51v-6.91H69.56v48.4h7.61v-19.98h9.82v-6.92h-9.82V98.92z M56.43,140.41h7.61v-48.4h-7.61V140.41z
		 M32.99,140.41h20.12v-6.91H40.6V92.01h-7.61V140.41z"/>
	<path fill="#C0343C" d="M138.72,212.27l-3.1,10.68h4.8l5.13-11.86v-10.15h-11.32v11.32H138.72z"/>
	<path fill="#C0343C" d="M78.63,155.66c1.19,0,1.7,0.67,1.7,2.19v2.1c0,1.7-0.76,2.25-2.01,2.25h-1.31v-6.55H78.63z M84.08,173.94
		c-0.33-0.79-0.36-1.55-0.36-2.59v-3.29c0-2.22-0.55-3.81-2.22-4.51v-0.06c1.49-0.7,2.19-2.1,2.19-4.29v-1.68
		c0-3.29-1.49-4.9-4.96-4.9h-5.06v21.32h3.35v-8.68h1.16c1.52,0,2.19,0.73,2.19,2.71v3.35c0,1.73,0.12,2.07,0.31,2.62H84.08z
		 M66.42,155.66h5.79v-3.05h-9.14v21.32h9.14v-3.05h-5.79v-6.24h4.6v-3.04h-4.6V155.66z M53.93,152.61h-3.38l3.29,21.32h5
		l3.29-21.32h-3.08l-2.53,17.39h-0.06L53.93,152.61z M39.73,168.82c0,3.41,1.8,5.36,5.09,5.36c3.29,0,5.09-1.95,5.09-5.36v-11.09
		c0-3.41-1.8-5.36-5.09-5.36c-3.29,0-5.09,1.95-5.09,5.36V168.82z M43.08,157.52c0-1.52,0.67-2.1,1.73-2.1
		c1.07,0,1.74,0.58,1.74,2.1v11.51c0,1.52-0.67,2.1-1.74,2.1c-1.06,0-1.73-0.58-1.73-2.1V157.52z"/>
	<path fill="#C0343C" d="M29.38,155.66h5.51v-3.05h-8.86v21.32h3.35v-8.8h4.33v-3.04h-4.33V155.66z M14.3,168.82
		c0,3.41,1.8,5.36,5.09,5.36c3.29,0,5.09-1.95,5.09-5.36v-11.09c0-3.41-1.8-5.36-5.09-5.36c-3.29,0-5.09,1.95-5.09,5.36V168.82z
		 M17.65,157.52c0-1.52,0.67-2.1,1.73-2.1c1.07,0,1.74,0.58,1.74,2.1v11.51c0,1.52-0.67,2.1-1.74,2.1c-1.06,0-1.73-0.58-1.73-2.1
		V157.52z"/>
	<g>
		<path fill="#C0343C" d="M151.05,176.53c0-23.76,5.64-30.12,17.72-30.12c8.98,0,15.44,4.97,15.11,16.8h-10.62
			c-0.08-2.49-0.25-6.26-4.9-5.87c-6.45,0.6-5.88,9.44-6.04,13.92v4.77c1.88-2.39,3.68-4.97,8.98-4.97c9.72,0,13.8,8.05,13.8,23.36
			c0,18.69-3.68,28.33-16.91,28.33c-13.64,0-17.31-10.84-17.15-28.33V176.53z M168.36,211.82c5.96-0.1,5.31-6.86,5.31-16.4
			c0-5.37,0.57-13.42-5.55-13.42c-5.64,0-5.64,7.26-5.64,13.42C162.4,204.66,162.24,212.52,168.36,211.82z"/>
		<path fill="#C0343C" d="M192.38,167.78c0-15.81,6.21-21.37,16.58-21.37c10.29,0,16.5,5.57,16.5,21.37v33.5
			c0,15.81-6.21,21.47-16.58,21.47c-10.29,0-16.5-5.67-16.5-21.47V167.78z M203.81,201.28c-0.33,8.35,2.04,10.54,4.98,10.54
			c3.02,0,5.55-2.19,5.23-10.54v-33.5c0.33-8.25-2.21-10.44-5.23-10.44c-2.94,0-5.31,2.19-4.98,10.44V201.28z"/>
		<path fill="#C0343C" d="M233.21,167.78c0-15.81,6.21-21.37,16.58-21.37c10.29,0,16.5,5.57,16.5,21.37v33.5
			c0,15.81-6.21,21.47-16.58,21.47c-10.29,0-16.5-5.67-16.5-21.47V167.78z M244.65,201.28c-0.33,8.35,2.04,10.54,4.98,10.54
			c3.02,0,5.55-2.19,5.23-10.54v-33.5c0.33-8.25-2.21-10.44-5.23-10.44c-2.94,0-5.31,2.19-4.98,10.44V201.28z"/>
	</g>
	<g>
		<path fill="#C0343C" d="M106.08,175.93c2.37-0.2,4.98,0.1,7.19-1.09c3.1-1.79,3.51-5.47,3.51-9.15c0-5.67-1.72-8.35-5.47-8.35
			c-2.37,0-5.31,1.09-5.47,5.87v5.27h-10.7c-0.65-13.82,4.41-22.07,16.09-22.07c11.52,0,16.66,7.36,16.66,19.19
			c0,6.46-2.04,14.32-8,15.41v0.2c5.39,0.8,9.39,6.66,9.23,18.09c0,14.61-5.23,23.46-17.81,23.46c-15.84,0-17.07-14.12-16.91-21.87
			v-4.37h10.7c0.24,6.16-0.82,15.31,6.45,15.31c6.29,0,6.13-7.16,6.13-14.12c0-2.29-0.08-6.06-1.31-7.85
			c-2.12-3.08-7.11-2.98-10.29-2.98V175.93z"/>
	</g>
	<polygon fill="#C0343C" points="287.58,0 12.42,0 12.42,0 0,0 0,0 0,0 0,12.42 0,12.42 0,128.87 12.42,140.96 12.42,12.42 
		287.58,12.42 287.58,314.83 12.42,314.83 12.42,198.02 72,198.02 84.08,185.59 12.42,185.59 12.42,185.59 0,185.59 0,314.83 
		0,327.25 12.42,327.25 287.58,327.25 300,327.25 300,314.83 300,12.42 300,0 	"/>
	<path fill="#C0343C" d="M254.45,40.6c2.65,0,4.24,1.36,4.24,5.15v27.54c0,3.78-1.59,5.14-4.24,5.14h-4.69V40.6H254.45z M241.44,86
		h13.17c8.32,0,12.41-4.62,12.41-13.09V46.13c0-8.48-4.08-13.09-12.41-13.09h-13.17V86z M221.92,40.6h14.38v-7.57h-22.7V86h22.7
		v-7.57h-14.38V62.93h11.43v-7.57h-11.43V40.6z M195.74,40.6c2.65,0,4.24,1.36,4.24,5.15v27.54c0,3.78-1.59,5.14-4.24,5.14h-4.69
		V40.6H195.74z M182.73,86h13.16c8.32,0,12.41-4.62,12.41-13.09V46.13c0-8.48-4.09-13.09-12.41-13.09h-13.16V86z M163.81,42.42h0.15
		l3.93,26.78h-8.02L163.81,42.42z M170.39,33.04h-12.18L149.74,86h7.65l1.44-9.61h10.21l1.44,9.61h8.4L170.39,33.04z M133.85,40.6
		c2.95,0,4.24,1.66,4.24,5.45v5.22c0,4.23-1.89,5.6-4.99,5.6h-3.25V40.6H133.85z M147.39,86c-0.83-1.97-0.9-3.86-0.9-6.43V71.4
		c0-5.52-1.37-9.46-5.52-11.2v-0.15c3.71-1.74,5.45-5.22,5.45-10.67v-4.16c0-8.17-3.71-12.18-12.33-12.18h-12.56V86h8.32V64.44h2.88
		c3.78,0,5.45,1.81,5.45,6.73v8.32c0,4.32,0.3,5.15,0.76,6.51H147.39z M104.49,64.06h3.78v9.76c0,3.79-1.66,5.15-4.31,5.15
		c-2.65,0-4.31-1.36-4.31-5.15v-28.6c0-3.78,1.66-5.22,4.31-5.22c2.65,0,4.31,1.44,4.31,5.22v5.67h7.87v-5.14
		c0-8.48-4.24-13.32-12.41-13.32c-8.17,0-12.41,4.84-12.41,13.32v27.54c0,8.47,4.23,13.31,12.41,13.31
		c8.17,0,12.41-4.84,12.41-13.31v-16.8h-11.65V64.06z M75.74,40.6c2.65,0,4.09,1.21,4.09,4.99v7.94c0,3.79-1.44,5-4.09,5H71.8V40.6
		H75.74z M75.74,33.04H63.48V86h8.32V66.1h3.93c8.32,0,12.41-4.62,12.41-13.09v-6.89C88.15,37.65,84.06,33.04,75.74,33.04
		 M32.99,33.04v40.33c0,8.48,4.24,13.31,12.41,13.31s12.41-4.84,12.41-13.31V33.04h-7.87v40.86c0,3.79-1.66,5.15-4.32,5.15
		c-2.65,0-4.31-1.36-4.31-5.15V33.04H32.99z"/>
</g>
</svg>
