<svg id="Layer_1" data-name="Layer 1" xmlns="http://www.w3.org/2000/svg" xmlns:xlink="http://www.w3.org/1999/xlink" viewBox="0 0 60 60"><defs><linearGradient id="linear-gradient-youtube" x1="30" x2="30" y2="60" gradientUnits="userSpaceOnUse"><stop offset="0" stop-color="#df3735"/><stop offset="1" stop-color="#8b1b13"/></linearGradient></defs><rect id="bg-dark" width="60" height="60" fill="#606879"/><rect class="bg-color" width="60" height="60" fill="url(#linear-gradient-youtube)"/><path id="i-social" d="M50.17,21.77s-.41-2.83-1.64-4.08a5.91,5.91,0,0,0-4.12-1.75c-5.76-.41-14.4-.41-14.4-.41h0s-8.64,0-14.4.41a5.92,5.92,0,0,0-4.12,1.75c-1.23,1.25-1.64,4.08-1.64,4.08a62.46,62.46,0,0,0-.41,6.66v3.12a62.77,62.77,0,0,0,.41,6.67s.41,2.83,1.64,4.08C13,43.94,15.09,43.89,16,44.06c3.29.31,14,.41,14,.41s8.65,0,14.41-.43a5.84,5.84,0,0,0,4.12-1.74c1.23-1.25,1.64-4.08,1.64-4.08a62.77,62.77,0,0,0,.41-6.67V28.43A62.46,62.46,0,0,0,50.17,21.77ZM25.75,35.34V23.77l11.12,5.81Z" fill="#fff"/></svg>