<svg id="Layer_1" data-name="Layer 1" xmlns="http://www.w3.org/2000/svg" xmlns:xlink="http://www.w3.org/1999/xlink" viewBox="0 0 60 60"><defs><linearGradient id="linear-gradient-linkedin" x1="30" x2="30" y2="60" gradientUnits="userSpaceOnUse"><stop offset="0" stop-color="#4593f5"/><stop offset="1" stop-color="#2151f1"/></linearGradient></defs><rect id="bg-dark" width="60" height="60" fill="#606879"/><rect class="bg-color" width="60" height="60" fill="url(#linear-gradient-linkedin)"/><path id="i-social" d="M13.11,24h7.13V46.9H13.11Zm3.57-11.38a4.13,4.13,0,1,1-4.13,4.13,4.12,4.12,0,0,1,4.13-4.13" fill="#fff"/><path id="i-social-2" data-name="i-social" d="M24.71,24h6.82v3.14h.1a7.48,7.48,0,0,1,6.73-3.7c7.21,0,8.54,4.74,8.54,10.91V46.9H39.78V35.76c0-2.65,0-6.07-3.69-6.07s-4.27,2.89-4.27,5.88V46.9H24.71Z" fill="#fff"/></svg>