<svg id="Layer_1" data-name="Layer 1" xmlns="http://www.w3.org/2000/svg" xmlns:xlink="http://www.w3.org/1999/xlink" viewBox="0 0 60 60"><defs><linearGradient id="linear-gradient-whatsapp" x1="30" x2="30" y2="60" gradientUnits="userSpaceOnUse"><stop offset="0" stop-color="#6bce78"/><stop offset="1" stop-color="#39772f"/></linearGradient></defs><rect id="bg-dark" width="60" height="60" fill="#606879"/><rect class="bg-color" width="60" height="60" fill="url(#linear-gradient-whatsapp)"/><path id="i-social" d="M43.67,16.25A19.22,19.22,0,0,0,13.43,39.43l-2.72,10,10.18-2.67a19.21,19.21,0,0,0,9.18,2.34h0a19.22,19.22,0,0,0,13.59-32.8ZM39.48,36.69c-.4,1.12-2.32,2.14-3.24,2.28a6.42,6.42,0,0,1-3-.19,25.3,25.3,0,0,1-2.74-1c-4.82-2.08-8-6.93-8.2-7.25a9.32,9.32,0,0,1-2-5,5.37,5.37,0,0,1,1.68-4,1.76,1.76,0,0,1,1.28-.6h.92c.29,0,.69-.11,1.08.83s1.36,3.32,1.48,3.56a.88.88,0,0,1,0,.84,3.27,3.27,0,0,1-.48.8c-.24.28-.51.63-.72.84s-.49.5-.21,1a14.54,14.54,0,0,0,2.67,3.33,13.16,13.16,0,0,0,3.86,2.38c.48.24.76.2,1-.12s1.2-1.4,1.52-1.88.64-.4,1.08-.24,2.8,1.32,3.28,1.56.8.36.92.56A4,4,0,0,1,39.48,36.69Z" fill="#fff"/></svg>