<svg id="Layer_1" data-name="Layer 1" xmlns="http://www.w3.org/2000/svg" xmlns:xlink="http://www.w3.org/1999/xlink" viewBox="0 0 60 60"><defs><linearGradient id="linear-gradient-twiiter" x1="30" x2="30" y2="60" gradientUnits="userSpaceOnUse"><stop offset="0" stop-color="#5fc4f8"/><stop offset="1" stop-color="#387df2"/></linearGradient></defs><rect id="bg-dark" width="60" height="60" fill="#606879"/><rect class="bg-color" width="60" height="60" fill="url(#linear-gradient-twiiter)"/><path id="i-social" d="M49.2,18.09a15.6,15.6,0,0,1-4.52,1.24A7.92,7.92,0,0,0,48.14,15a15.53,15.53,0,0,1-5,1.91,7.89,7.89,0,0,0-13.63,5.39,8.21,8.21,0,0,0,.2,1.8,22.36,22.36,0,0,1-16.24-8.23,7.91,7.91,0,0,0,2.44,10.52,7.88,7.88,0,0,1-3.57-1v.1a7.9,7.9,0,0,0,6.32,7.73,7.89,7.89,0,0,1-2.07.27,8.18,8.18,0,0,1-1.49-.14,7.9,7.9,0,0,0,7.36,5.47,15.8,15.8,0,0,1-9.78,3.37,14.6,14.6,0,0,1-1.88-.11A22.28,22.28,0,0,0,22.88,45.6c14.49,0,22.41-12,22.41-22.41,0-.34,0-.68,0-1A16,16,0,0,0,49.2,18.09Z" fill="#fff"/></svg>