<svg id="Layer_1" data-name="Layer 1" xmlns="http://www.w3.org/2000/svg" xmlns:xlink="http://www.w3.org/1999/xlink" viewBox="0 0 60 60"><defs><linearGradient id="linear-gradient-instagram" x1="30" x2="30" y2="60" gradientUnits="userSpaceOnUse"><stop offset="0" stop-color="#dc5a7a"/><stop offset="1" stop-color="#491cbd"/></linearGradient></defs><rect id="bg-dark" width="60" height="60" fill="#606879"/><rect class="bg-color" width="60" height="60" fill="url(#linear-gradient-instagram)"/><path id="i-social" d="M30,15.57c4.7,0,5.26,0,7.11.1A7.54,7.54,0,0,1,42.4,17.6a7.54,7.54,0,0,1,1.93,5.29c.08,1.85.1,2.41.1,7.11s0,5.26-.1,7.11A7.54,7.54,0,0,1,42.4,42.4a7.54,7.54,0,0,1-5.29,1.93c-1.85.08-2.41.1-7.11.1s-5.26,0-7.11-.1A7.54,7.54,0,0,1,17.6,42.4a7.54,7.54,0,0,1-1.93-5.29c-.08-1.85-.1-2.41-.1-7.11s0-5.26.1-7.11A7.54,7.54,0,0,1,17.6,17.6a7.54,7.54,0,0,1,5.29-1.93c1.85-.08,2.41-.1,7.11-.1m0-3.17c-4.78,0-5.38,0-7.26.11a10.55,10.55,0,0,0-7.39,2.84,10.55,10.55,0,0,0-2.84,7.39c-.09,1.88-.11,2.48-.11,7.26s0,5.38.11,7.26a10.55,10.55,0,0,0,2.84,7.39,10.55,10.55,0,0,0,7.39,2.84c1.88.09,2.48.11,7.26.11s5.38,0,7.26-.11a10.55,10.55,0,0,0,7.39-2.84,10.55,10.55,0,0,0,2.84-7.39c.09-1.88.11-2.48.11-7.26s0-5.38-.11-7.26a10.55,10.55,0,0,0-2.84-7.39,10.55,10.55,0,0,0-7.39-2.84c-1.88-.09-2.48-.11-7.26-.11ZM30,21a9,9,0,1,0,9,9A9,9,0,0,0,30,21Zm0,14.91A5.87,5.87,0,1,1,35.87,30,5.87,5.87,0,0,1,30,35.87Zm9.4-17.38a2.12,2.12,0,1,1-2.12,2.11A2.12,2.12,0,0,1,39.4,18.49Z" fill="#fff"/></svg>