<?xml version="1.0" encoding="utf-8"?>
<!-- Generator: Adobe Illustrator 24.1.0, SVG Export Plug-In . SVG Version: 6.00 Build 0)  -->
<svg version="1.1" id="Layer_1" xmlns="http://www.w3.org/2000/svg" xmlns:xlink="http://www.w3.org/1999/xlink" x="0px" y="0px"
	 width="24px" height="24px" viewBox="0 0 24 24" enable-background="new 0 0 24 24" xml:space="preserve">
<g>
	<rect x="11" y="15" fill="#FFFFFF" width="2" height="2"/>
	<path fill="#FFFFFF" d="M18,2H6v6l0,0l0,0l4,4l-4,4l0,0l0,0v6h12v-6l0,0l0,0l-4-4l4-4l0,0l0,0V2z M16,16.4V20h-3v-1h-2v1H8v-3.6
		l4-4L16,16.4z M16,7.6L15.6,8h-7L8,7.6V4h8V7.6z"/>
</g>
</svg>
