<svg xmlns="http://www.w3.org/2000/svg" width="120" height="120" viewBox="0 0 120 120"><path d="M91.36,58.22l-19.44-4,7.83-12.41a1,1,0,0,0-.13-1.24,1,1,0,0,0-1.24-.15L65.85,48.08l-4-19.44H65L60,20l-5,8.64h3.35L54.2,48.1,41.89,40.38a1,1,0,0,0-1.38,1.37l7.58,12.42-19.45,4V55L20,60l8.64,5V61.78l19.44,4L40.25,78.24a1,1,0,0,0,.84,1.53,1,1,0,0,0,.53-.14l12.53-7.71,4,19.44H55L60,100l5-8.64H61.64L65.8,71.9l12.31,7.72a1,1,0,0,0,.53.15,1,1,0,0,0,.7-.28,1,1,0,0,0,.15-1.24L71.91,65.83l19.45-4V65L100,60l-8.64-5ZM61,34.35l4,19.29-4,4ZM59,57.59l-3.94-4L59,35.21Zm-5.36-2.54,4,4H34.7Zm4,6-4,4L34.7,61ZM59,62.41V85.65l-4-19.29Zm2,0,3.94,4L61,84.79ZM66.36,65l-4-4H85.3Zm-4-6,4-4L85.3,59ZM75.76,44.33l-5.93,9.4-3-.61-.6-3Zm-31.33,0,9.32,5.85-.63,2.94-2.95.61Zm-.19,31.34,5.93-9.4,2.95.61.6,3Zm31.33,0-9.32-5.85.63-2.94,3-.62Z" fill="#434957"/><g opacity="0.5"><path d="M60,20l5,8.64H61.87l4,19.44,12.53-7.71a1,1,0,0,1,.53-.14,1,1,0,0,1,.84,1.53L71.92,54.17l19.44,4V55L100,60l-8.64,5V61.78l-19.45,4,7.58,12.42a1,1,0,0,1-.15,1.24,1,1,0,0,1-.7.28,1,1,0,0,1-.53-.15L65.8,71.9,61.64,91.36H65L60,100l-5-8.64h3.12l-4-19.44L41.62,79.63a1,1,0,0,1-.53.14,1,1,0,0,1-.84-1.53l7.83-12.41-19.44-4V65L20,60l8.64-5v3.21l19.45-4L40.51,41.75a1,1,0,0,1,.85-1.52,1,1,0,0,1,.53.15L54.2,48.1l4.16-19.46H55L60,20m1,37.59,4-4L61,34.35V57.59m-2,0V35.21L55.06,53.64l3.94,4m10.83-3.86,5.93-9.4-9.48,5.83.6,3,3,.61m-19.66,0,2.95-.61.63-2.94-9.32-5.85,5.74,9.4M62.41,59H85.3l-18.94-4-4,4M34.7,59H57.59l-4-4L34.7,59m31.66,6L85.3,61H62.41l4,4M53.64,65l4-4H34.7l18.94,4M61,84.79l3.94-18.43-3.94-4V84.79m-2,.86V62.41l-4,4,4,19.29m16.57-10-5.74-9.41-3,.62-.63,2.94,9.32,5.85m-31.33,0,9.48-5.83-.6-3-2.95-.61-5.93,9.4M60,18l-.87,1.5-5,8.64-.87,1.5h3.85L53.52,46.5l-11.1-7A2,2,0,0,0,40,39.8a2,2,0,0,0-.31,2.47L46.5,53.48,29.64,57V53.28l-1.5.87-8.64,5L18,60l1.5.87,8.64,5,1.5.87V63l16.83,3.51L39.4,77.71a2,2,0,0,0,1.69,3.06,2.05,2.05,0,0,0,1-.29l11.32-7L56.9,90.36H53.28l.87,1.5,5,8.64L60,102l.87-1.5,5-8.64.87-1.5H62.87L66.48,73.5l11.1,7a2,2,0,0,0,1.06.3,2,2,0,0,0,1.71-3L73.5,66.52,90.36,63v3.71l1.5-.87,8.64-5L102,60l-1.5-.87-8.64-5-1.5-.87V57L73.53,53.48,80.6,42.29a2,2,0,0,0-1.69-3.06,2.05,2.05,0,0,0-1,.29l-11.32,7L63.1,29.64h3.62l-.87-1.5-5-8.64L60,18Zm2,37.17V44.23l1.86,9.08L62,55.17Zm-5.85-1.85L58,44.67v10.5l-1.85-1.85Zm-5.49-.71L47.5,47.44l5.13,3.22-.35,1.61-1.62.34Zm16.74-2,5.22-3.21-3.27,5.17-1.62-.33-.33-1.63ZM64.83,58l1.85-1.86L75.59,58ZM44.41,58l8.91-1.86L55.17,58Zm20.42,4H75.59l-8.91,1.86L64.83,62ZM44.41,62H55.17l-1.85,1.86L44.41,62ZM62,75.33V64.83l1.85,1.85L62,75.33Zm-5.86-8.64L58,64.83V75.77l-1.86-9.08Zm-8.76,5.87,3.27-5.17,1.62.33.33,1.63-5.22,3.21Zm20.34-4.83,1.62-.34,3.16,5.17-5.13-3.22.35-1.61Z" fill="#fff"/></g><path d="M56,17.56h2a.25.25,0,0,0,.18-.08.24.24,0,0,0,.07-.18l0-9.09a.07.07,0,0,1,.06-.08s.06,0,.07.06l3.22,9.15a.27.27,0,0,0,.28.22h2.27a.27.27,0,0,0,.26-.26V2.7a.27.27,0,0,0-.26-.26h-2a.25.25,0,0,0-.18.08.24.24,0,0,0-.07.18v9s0,.07-.06.07-.06,0-.07-.05L58.46,2.66a.28.28,0,0,0-.29-.22H56a.27.27,0,0,0-.26.26V17.3a.27.27,0,0,0,.26.26Z" fill="#c03440"/><g opacity="0.7"><path d="M64.05,2.44a.27.27,0,0,1,.26.26V17.3a.27.27,0,0,1-.26.26H61.78a.27.27,0,0,1-.28-.22L58.28,8.19s0-.06-.06-.06h0a.07.07,0,0,0-.06.08l0,9.09a.24.24,0,0,1-.07.18.25.25,0,0,1-.18.08H56a.27.27,0,0,1-.26-.26V2.7A.27.27,0,0,1,56,2.44h2.22a.28.28,0,0,1,.29.22l3.24,9.09s0,.06.06.06h0s.06,0,.06-.07v-9a.24.24,0,0,1,.07-.18.25.25,0,0,1,.18-.08h2m0-1h-2a1.19,1.19,0,0,0-.89.38,1.21,1.21,0,0,0-.36.88V6.33l-1.43-4a1.26,1.26,0,0,0-1.23-.9H56a1.24,1.24,0,0,0-.89.37,1.26,1.26,0,0,0-.37.89V17.3A1.26,1.26,0,0,0,56,18.56h2a1.26,1.26,0,0,0,.89-.37,1.27,1.27,0,0,0,.36-.89V13.72l1.38,3.94a1.27,1.27,0,0,0,1.23.9h2.27a1.26,1.26,0,0,0,1.26-1.26V2.7a1.26,1.26,0,0,0-.37-.89,1.24,1.24,0,0,0-.89-.37Z" fill="#fff"/></g><path d="M62.61,111c-.44-.41-1.11-.94-2-1.59a9.78,9.78,0,0,1-1.74-1.49,2,2,0,0,1-.45-1.32,1.87,1.87,0,0,1,.41-1.28,1.37,1.37,0,0,1,1.06-.47,1.4,1.4,0,0,1,1.12.51,2.06,2.06,0,0,1,.42,1.35v.56a.24.24,0,0,0,.07.18.26.26,0,0,0,.19.08h1.94a.27.27,0,0,0,.26-.26v-.52a4,4,0,0,0-1.1-3,4.35,4.35,0,0,0-5.75,0A3.82,3.82,0,0,0,56,106.62a4.19,4.19,0,0,0,.45,2,5.19,5.19,0,0,0,1.1,1.46,21.7,21.7,0,0,0,1.73,1.38c.64.46,1.1.81,1.39,1.06a3,3,0,0,1,.67.77,1.92,1.92,0,0,1,.23,1,1.84,1.84,0,0,1-.43,1.28A1.42,1.42,0,0,1,60,116a1.36,1.36,0,0,1-1.09-.52,2.1,2.1,0,0,1-.42-1.36v-.43a.26.26,0,0,0-.08-.19.24.24,0,0,0-.18-.07h-2a.24.24,0,0,0-.18.07.25.25,0,0,0-.07.19v.56a3.77,3.77,0,0,0,1.1,2.83A4,4,0,0,0,60,118.18a3.88,3.88,0,0,0,2.9-1.12,4,4,0,0,0,1.1-2.94,3.93,3.93,0,0,0-.37-1.75A4.71,4.71,0,0,0,62.61,111Z" fill="#434957"/><g opacity="0.5"><path d="M59.91,102.71a3.91,3.91,0,0,1,2.9,1.11,4,4,0,0,1,1.1,3v.52a.27.27,0,0,1-.26.26H61.71a.26.26,0,0,1-.19-.08.24.24,0,0,1-.07-.18v-.56a2.06,2.06,0,0,0-.42-1.35,1.4,1.4,0,0,0-1.12-.51,1.37,1.37,0,0,0-1.06.47,1.87,1.87,0,0,0-.41,1.28,2,2,0,0,0,.45,1.32,9.78,9.78,0,0,0,1.74,1.49c.87.65,1.54,1.18,2,1.59a4.71,4.71,0,0,1,1,1.35,3.93,3.93,0,0,1,.37,1.75,4,4,0,0,1-1.1,2.94,3.88,3.88,0,0,1-2.9,1.12,4,4,0,0,1-2.89-1.08,3.77,3.77,0,0,1-1.1-2.83v-.56a.25.25,0,0,1,.07-.19.24.24,0,0,1,.18-.07h2a.24.24,0,0,1,.18.07.26.26,0,0,1,.08.19v.43a2.1,2.1,0,0,0,.42,1.36A1.36,1.36,0,0,0,60,116a1.42,1.42,0,0,0,1.1-.49,1.84,1.84,0,0,0,.43-1.28,1.92,1.92,0,0,0-.23-1,3,3,0,0,0-.67-.77c-.29-.25-.75-.6-1.39-1.06a21.7,21.7,0,0,1-1.73-1.38,5.19,5.19,0,0,1-1.1-1.46,4.19,4.19,0,0,1-.45-2,3.82,3.82,0,0,1,1.08-2.85,3.88,3.88,0,0,1,2.85-1.06m0-1a4.86,4.86,0,0,0-3.55,1.35A4.78,4.78,0,0,0,55,106.62a5.22,5.22,0,0,0,.56,2.44,6,6,0,0,0,1.31,1.73,19.1,19.1,0,0,0,1.83,1.46c.61.44,1,.78,1.32,1a1.93,1.93,0,0,1,.45.52.89.89,0,0,1,.1.47.83.83,0,0,1-.18.62A.41.41,0,0,1,60,115a.35.35,0,0,1-.31-.15,1.1,1.1,0,0,1-.2-.73v-.43a1.22,1.22,0,0,0-.37-.89,1.24,1.24,0,0,0-.89-.37h-2A1.23,1.23,0,0,0,55,113.71v.56a4.75,4.75,0,0,0,1.4,3.54,5.36,5.36,0,0,0,7.2,0A5,5,0,0,0,65,114.12a4.82,4.82,0,0,0-.48-2.2,5.55,5.55,0,0,0-1.25-1.64,26.16,26.16,0,0,0-2.07-1.66,9,9,0,0,1-1.56-1.32,1,1,0,0,1-.22-.68,1,1,0,0,1,.16-.62.36.36,0,0,1,.31-.13.4.4,0,0,1,.35.15,1.14,1.14,0,0,1,.19.71v.56a1.25,1.25,0,0,0,1.26,1.26h1.94a1.26,1.26,0,0,0,1.26-1.26v-.52a5,5,0,0,0-1.39-3.65,4.91,4.91,0,0,0-3.61-1.41Z" fill="#fff"/></g><path d="M106,54.6h4.66a.25.25,0,0,0,.19-.08.29.29,0,0,0,.07-.18V52.7a.29.29,0,0,0-.07-.18.29.29,0,0,0-.19-.08h-7a.27.27,0,0,0-.26.26V67.3a.27.27,0,0,0,.26.26h7a.29.29,0,0,0,.19-.08.29.29,0,0,0,.07-.18V65.66a.29.29,0,0,0-.07-.18.29.29,0,0,0-.19-.08H106a.1.1,0,0,1-.11-.11v-4.1a.1.1,0,0,1,.11-.11h2.76a.27.27,0,0,0,.26-.26V59.16a.27.27,0,0,0-.08-.19.24.24,0,0,0-.18-.07H106a.1.1,0,0,1-.11-.11V54.71A.1.1,0,0,1,106,54.6Z" fill="#434957"/><g opacity="0.5"><path d="M110.65,52.44a.29.29,0,0,1,.19.08.29.29,0,0,1,.07.18v1.64a.29.29,0,0,1-.07.18.25.25,0,0,1-.19.08H106a.1.1,0,0,0-.11.11v4.08a.1.1,0,0,0,.11.11h2.76a.24.24,0,0,1,.18.07.27.27,0,0,1,.08.19v1.66a.27.27,0,0,1-.26.26H106a.1.1,0,0,0-.11.11v4.1a.1.1,0,0,0,.11.11h4.66a.29.29,0,0,1,.19.08.29.29,0,0,1,.07.18V67.3a.29.29,0,0,1-.07.18.29.29,0,0,1-.19.08h-7a.27.27,0,0,1-.26-.26V52.7a.27.27,0,0,1,.26-.26h7m0-1h-7a1.26,1.26,0,0,0-1.26,1.26V67.3a1.26,1.26,0,0,0,1.26,1.26h7a1.25,1.25,0,0,0,.88-.36,1.27,1.27,0,0,0,.38-.9V65.66a1.25,1.25,0,0,0-.36-.88,1.27,1.27,0,0,0-.9-.38h-3.77V62.08h1.87a1.25,1.25,0,0,0,.88-.36,1.27,1.27,0,0,0,.38-.9V59.16a1.25,1.25,0,0,0-.36-.88,1.27,1.27,0,0,0-.9-.38h-1.87V55.6h3.77a1.25,1.25,0,0,0,.88-.36,1.27,1.27,0,0,0,.38-.9V52.7a1.26,1.26,0,0,0-1.26-1.26Z" fill="#fff"/></g><path d="M17.87,52.44h-2a.25.25,0,0,0-.28.24l-1.36,9s0,.07-.06.07-.05,0-.07-.07l-1.47-9a.24.24,0,0,0-.28-.24H10.61a.25.25,0,0,0-.28.24L9,61.68s0,.07-.06.07-.05,0-.07-.07l-1.51-9a.24.24,0,0,0-.28-.24H5c-.16,0-.24.06-.24.19l0,.09,2.87,14.6a.25.25,0,0,0,.28.24H9.77a.24.24,0,0,0,.28-.24l1.34-9.18c0-.06,0-.08.07-.08s0,0,.06.08L13,67.32a.24.24,0,0,0,.28.24h1.84a.25.25,0,0,0,.28-.24l2.74-14.6C18.14,52.53,18.06,52.44,17.87,52.44Z" fill="#434957"/><g opacity="0.5"><path d="M17.87,52.44c.19,0,.27.09.24.28l-2.74,14.6a.25.25,0,0,1-.28.24H13.25a.24.24,0,0,1-.28-.24l-1.45-9.18c0-.06,0-.08-.06-.08s-.05,0-.07.08l-1.34,9.18a.24.24,0,0,1-.28.24H7.91a.25.25,0,0,1-.28-.24L4.76,52.72l0-.09c0-.13.08-.19.24-.19H7.05a.24.24,0,0,1,.28.24l1.51,9s0,.07.07.07.05,0,.06-.07l1.36-9a.25.25,0,0,1,.28-.24h1.73a.24.24,0,0,1,.28.24l1.47,9s0,.07.07.07.05,0,.06-.07l1.36-9a.25.25,0,0,1,.28-.24h2m0-1h-2a1.23,1.23,0,0,0-1.27,1.11l-.47,3.1-.51-3.11a1.24,1.24,0,0,0-1.27-1.1H10.61a1.24,1.24,0,0,0-1.27,1.11l-.48,3.19-.54-3.2a1.24,1.24,0,0,0-1.27-1.1H5a1.19,1.19,0,0,0-1.24,1.19v.12l0,.12,0,.09L6.64,67.48a1.24,1.24,0,0,0,1.27,1.08H9.77A1.23,1.23,0,0,0,11,67.45l.45-3.07L12,67.45a1.23,1.23,0,0,0,1.27,1.11h1.84a1.22,1.22,0,0,0,1.26-1.09l2.74-14.56a1.27,1.27,0,0,0-.26-1,1.23,1.23,0,0,0-1-.42Z" fill="#fff"/></g></svg>