<?xml version="1.0" encoding="utf-8"?>
<!-- Generator: Adobe Illustrator 24.1.0, SVG Export Plug-In . SVG Version: 6.00 Build 0)  -->
<svg version="1.1" id="Layer_1" xmlns="http://www.w3.org/2000/svg" xmlns:xlink="http://www.w3.org/1999/xlink" x="0px" y="0px"
	 width="36px" height="36px" viewBox="0 0 36 36" enable-background="new 0 0 36 36" xml:space="preserve">
<g>
	<path fill="none" stroke="#C0343C" stroke-width="2" stroke-linecap="square" stroke-miterlimit="10" d="M1,32V20
		c0-1.66,1.34-3,3-3h24c1.66,0,3,1.34,3,3v12c0,1.66-1.34,3-3,3H4C2.34,35,1,33.66,1,32z"/>
	<polygon fill="#C0343C" points="2,12.5 2,12.5 5,15.5 8,12.5 8,12.5 	"/>
	<path fill="none" stroke="#C0343C" stroke-width="2" stroke-linecap="square" stroke-miterlimit="10" d="M5,13c0-4.42,3.58-8,8-8"
		/>
	<circle fill="#C0343C" cx="26" cy="26" r="2"/>
	<path fill="none" stroke="#C0343C" stroke-width="2" stroke-linecap="square" stroke-miterlimit="10" d="M32,1H20
		c-1.66,0-3,1.34-3,3v13h11c1.66,0,3,1.34,3,3v11h1c1.66,0,3-1.34,3-3V4C35,2.34,33.66,1,32,1z"/>
</g>
</svg>
