<?xml version="1.0" encoding="utf-8"?>
<!-- Generator: Adobe Illustrator 24.1.0, SVG Export Plug-In . SVG Version: 6.00 Build 0)  -->
<svg version="1.1" id="Layer_1" xmlns="http://www.w3.org/2000/svg" xmlns:xlink="http://www.w3.org/1999/xlink" x="0px" y="0px"
	 width="84px" height="60px" viewBox="0 0 84 60" enable-background="new 0 0 84 60" xml:space="preserve">
<g>
	<path fill="#DC2217" d="M81.2,14c0,0-0.78-5.51-3.18-7.94c-3.04-3.19-6.45-3.2-8.02-3.39C58.81,1.87,42.02,1.87,42.02,1.87h-0.03
		c0,0-16.79,0-27.99,0.81c-1.56,0.19-4.97,0.2-8.02,3.39C3.58,8.49,2.8,14,2.8,14S2,20.48,2,26.95v6.07c0,6.47,0.8,12.95,0.8,12.95
		s0.78,5.51,3.18,7.94c3.04,3.19,7.04,3.09,8.82,3.42c6.4,0.61,27.2,0.8,27.2,0.8s16.81-0.03,28.01-0.83
		c1.56-0.19,4.97-0.2,8.02-3.39c2.4-2.43,3.18-7.94,3.18-7.94S82,39.5,82,33.02v-6.07C82,20.48,81.2,14,81.2,14z"/>
	<path fill="#FFFFFF" d="M33.74,40.38l0-22.48l21.62,11.28L33.74,40.38z"/>
</g>
</svg>
