<?xml version="1.0" encoding="utf-8"?>
<!-- Generator: Adobe Illustrator 24.1.2, SVG Export Plug-In . SVG Version: 6.00 Build 0)  -->
<svg version="1.1" id="Layer_1" xmlns="http://www.w3.org/2000/svg" xmlns:xlink="http://www.w3.org/1999/xlink" x="0px" y="0px"
	 width="180px" height="120px" viewBox="0 0 180 120" style="enable-background:new 0 0 180 120;" xml:space="preserve">
<style type="text/css">
	.st0{clip-path:url(#SVGID_2_);}
	.st1{fill:#C0343C;}
	.st2{opacity:0.35;}
	.st3{opacity:0.3;}
	.st4{opacity:0.25;}
	.st5{opacity:0.2;}
	.st6{opacity:0.15;}
	.st7{opacity:0.1;}
	.st8{opacity:5.000000e-02;}
	.st9{fill:#262B35;}
</style>
<g>
	<defs>
		<path id="SVGID_1_" d="M0,0v120h180V0H0z M116,82c0,2.8-2.2,5-5,5H95c-2.8,0-5-2.2-5-5V38c0-2.8,2.2-5,5-5h16c2.8,0,5,2.2,5,5V82z
			"/>
	</defs>
	<clipPath id="SVGID_2_">
		<use xlink:href="#SVGID_1_"  style="overflow:visible;"/>
	</clipPath>
	<g class="st0">
		<g>
			<g>
				<circle class="st1" cx="90" cy="60" r="5"/>
			</g>
		</g>
		<g class="st2">
			<g>
				<path class="st1" d="M90,73c-7.2,0-13-5.8-13-13s5.8-13,13-13s13,5.8,13,13S97.2,73,90,73z M90,48c-6.6,0-12,5.4-12,12
					s5.4,12,12,12s12-5.4,12-12S96.6,48,90,48z"/>
			</g>
		</g>
		<g class="st3">
			<g>
				<path class="st1" d="M90,80.5c-11.3,0-20.5-9.2-20.5-20.5S78.7,39.5,90,39.5s20.5,9.2,20.5,20.5S101.3,80.5,90,80.5z M90,40.5
					c-10.8,0-19.5,8.8-19.5,19.5S79.2,79.5,90,79.5s19.5-8.8,19.5-19.5S100.8,40.5,90,40.5z"/>
			</g>
		</g>
		<g class="st4">
			<g>
				<path class="st1" d="M90,88c-15.4,0-28-12.6-28-28s12.6-28,28-28s28,12.6,28,28S105.4,88,90,88z M90,33c-14.9,0-27,12.1-27,27
					s12.1,27,27,27s27-12.1,27-27S104.9,33,90,33z"/>
			</g>
		</g>
		<g class="st5">
			<g>
				<path class="st1" d="M90,95.5c-19.6,0-35.5-15.9-35.5-35.5S70.4,24.5,90,24.5s35.5,15.9,35.5,35.5S109.6,95.5,90,95.5z M90,25.5
					C71,25.5,55.5,41,55.5,60S71,94.5,90,94.5S124.5,79,124.5,60S109,25.5,90,25.5z"/>
			</g>
		</g>
		<g class="st6">
			<g>
				<path class="st1" d="M90,103c-23.7,0-43-19.3-43-43s19.3-43,43-43s43,19.3,43,43S113.7,103,90,103z M90,18
					c-23.2,0-42,18.8-42,42s18.8,42,42,42s42-18.8,42-42S113.2,18,90,18z"/>
			</g>
		</g>
		<g class="st7">
			<g>
				<path class="st1" d="M90,110.5c-27.8,0-50.5-22.7-50.5-50.5S62.2,9.5,90,9.5s50.5,22.7,50.5,50.5S117.8,110.5,90,110.5z
					 M90,10.5c-27.3,0-49.5,22.2-49.5,49.5s22.2,49.5,49.5,49.5s49.5-22.2,49.5-49.5S117.3,10.5,90,10.5z"/>
			</g>
		</g>
		<g class="st8">
			<g>
				<path class="st1" d="M90,118c-32,0-58-26-58-58S58,2,90,2s58,26,58,58S122,118,90,118z M90,3C58.6,3,33,28.6,33,60
					s25.6,57,57,57s57-25.6,57-57S121.4,3,90,3z"/>
			</g>
		</g>
		<g>
			<path class="st9" d="M29.6,54.9c-0.8-0.4-1.4-1-1.9-1.8c-0.5-0.8-0.7-1.6-0.7-2.6v-4.3c0-1,0.2-1.9,0.7-2.6s1.1-1.3,1.9-1.8
				s1.7-0.6,2.8-0.6s2,0.2,2.8,0.6s1.4,1,1.9,1.7s0.7,1.5,0.7,2.5c0,0.1,0,0.1-0.1,0.2s-0.1,0.1-0.2,0.1l-2.8,0.2
				c-0.2,0-0.2-0.1-0.2-0.2c0-0.6-0.2-1.1-0.6-1.5C33.5,44.2,33,44,32.4,44s-1.1,0.2-1.5,0.6c-0.4,0.4-0.6,0.9-0.6,1.5v4.5
				c0,0.6,0.2,1.1,0.6,1.5c0.4,0.4,0.9,0.6,1.5,0.6c0.6,0,1.1-0.2,1.5-0.6c0.4-0.4,0.6-0.9,0.6-1.5c0-0.2,0.1-0.2,0.2-0.2l2.8,0.1
				c0.1,0,0.1,0,0.2,0.1s0.1,0.1,0.1,0.1c0,1-0.2,1.8-0.7,2.5c-0.5,0.7-1.1,1.3-1.9,1.7s-1.7,0.6-2.8,0.6
				C31.4,55.5,30.4,55.3,29.6,54.9z"/>
			<path class="st9" d="M39.5,55.3c0,0-0.1-0.1-0.1-0.2V41.6c0-0.1,0-0.1,0.1-0.2s0.1-0.1,0.2-0.1h2.8c0.1,0,0.1,0,0.2,0.1
				s0.1,0.1,0.1,0.2v10.8c0,0.1,0,0.1,0.1,0.1h6.4c0.1,0,0.1,0,0.2,0.1s0.1,0.1,0.1,0.2v2.4c0,0.1,0,0.1-0.1,0.2s-0.1,0.1-0.2,0.1
				h-9.6C39.6,55.3,39.6,55.3,39.5,55.3z"/>
			<path class="st9" d="M51,55.3c0,0-0.1-0.1-0.1-0.2V41.6c0-0.1,0-0.1,0.1-0.2s0.1-0.1,0.2-0.1H54c0.1,0,0.1,0,0.2,0.1
				s0.1,0.1,0.1,0.2v13.5c0,0.1,0,0.1-0.1,0.2s-0.1,0.1-0.2,0.1h-2.8C51.1,55.3,51,55.3,51,55.3z"/>
			<path class="st9" d="M58.6,54.9c-0.8-0.4-1.4-1-1.9-1.8S56,51.5,56,50.5v-4.3c0-1,0.2-1.9,0.7-2.6c0.5-0.8,1.1-1.3,1.9-1.8
				s1.7-0.6,2.8-0.6s2,0.2,2.8,0.6s1.4,1,1.9,1.7s0.7,1.5,0.7,2.5c0,0.1,0,0.1-0.1,0.2s-0.1,0.1-0.2,0.1l-2.8,0.2
				c-0.2,0-0.2-0.1-0.2-0.2c0-0.6-0.2-1.1-0.6-1.5C62.5,44.2,62,44,61.4,44s-1.1,0.2-1.5,0.6s-0.6,0.9-0.6,1.5v4.5
				c0,0.6,0.2,1.1,0.6,1.5c0.4,0.4,0.9,0.6,1.5,0.6s1.1-0.2,1.5-0.6c0.4-0.4,0.6-0.9,0.6-1.5c0-0.2,0.1-0.2,0.2-0.2l2.8,0.1
				c0.1,0,0.1,0,0.2,0.1c0.1,0,0.1,0.1,0.1,0.1c0,1-0.2,1.8-0.7,2.5s-1.1,1.3-1.9,1.7c-0.8,0.4-1.7,0.6-2.8,0.6
				C60.3,55.5,59.4,55.3,58.6,54.9z"/>
			<path class="st9" d="M68.5,55.3c-0.1,0-0.1-0.1-0.1-0.2V41.6c0-0.1,0-0.1,0.1-0.2s0.1-0.1,0.2-0.1h2.8c0.1,0,0.1,0,0.2,0.1
				c0.1,0,0.1,0.1,0.1,0.2v5.2c0,0,0,0.1,0,0.1s0.1,0,0.1,0l4-5.3c0.1-0.1,0.2-0.1,0.3-0.1h3.2c0.1,0,0.2,0,0.2,0.1
				c0,0,0,0.1-0.1,0.2l-4.3,5.8c0,0,0,0.1,0,0.1l4.5,7.5c0,0.1,0,0.1,0,0.1c0,0.1-0.1,0.1-0.2,0.1h-3.2c-0.2,0-0.2,0-0.3-0.2
				l-3.1-5.3c0-0.1-0.1-0.1-0.1,0l-1,1.4c0,0,0,0.1,0,0.1v3.7c0,0.1,0,0.1-0.1,0.2s-0.1,0.1-0.2,0.1h-2.8
				C68.6,55.3,68.5,55.3,68.5,55.3z"/>
			<path class="st9" d="M13.2,63.4c0.1,0,0.1,0.1,0.1,0.2V66c0,0.1,0,0.1-0.1,0.2c-0.1,0.1-0.1,0.1-0.2,0.1H9.5
				c-0.1,0-0.1,0-0.1,0.1v10.8c0,0.1,0,0.1-0.1,0.2c-0.1,0.1-0.1,0.1-0.2,0.1H6.3c-0.1,0-0.1,0-0.2-0.1s-0.1-0.1-0.1-0.2V66.3
				c0-0.1,0-0.1-0.1-0.1H2.6c-0.1,0-0.1,0-0.2-0.1c0-0.1-0.1-0.1-0.1-0.2v-2.4c0-0.1,0-0.1,0.1-0.2s0.1-0.1,0.2-0.1H13
				C13.1,63.3,13.1,63.4,13.2,63.4z"/>
			<path class="st9" d="M16.7,76.9c-0.8-0.4-1.5-1-1.9-1.8s-0.7-1.7-0.7-2.7v-4c0-1,0.2-1.9,0.7-2.7c0.4-0.8,1.1-1.4,1.9-1.8
				s1.8-0.7,2.9-0.7s2,0.2,2.9,0.7s1.5,1,1.9,1.8s0.7,1.7,0.7,2.7v4c0,1-0.2,1.9-0.7,2.7s-1.1,1.4-1.9,1.8s-1.8,0.7-2.9,0.7
				C18.5,77.6,17.5,77.3,16.7,76.9z M21.1,74.1c0.4-0.4,0.6-1,0.6-1.7v-4.1c0-0.7-0.2-1.2-0.6-1.7S20.2,66,19.5,66
				c-0.6,0-1.1,0.2-1.5,0.6c-0.4,0.4-0.6,1-0.6,1.7v4.1c0,0.7,0.2,1.2,0.6,1.7s0.9,0.6,1.5,0.6C20.2,74.7,20.7,74.5,21.1,74.1z"/>
			<path class="st9" d="M30.4,77.3c0-0.1-0.1-0.1-0.1-0.2v-2.6c0-0.1,0-0.2,0.1-0.3l6.1-7.9c0,0,0-0.1,0-0.1s0,0-0.1,0h-5.9
				c-0.1,0-0.1,0-0.2-0.1s-0.1-0.1-0.1-0.2v-2.4c0-0.1,0-0.1,0.1-0.2s0.1-0.1,0.2-0.1h9.5c0.1,0,0.1,0,0.2,0.1s0.1,0.1,0.1,0.2v2.6
				c0,0.1,0,0.2-0.1,0.3L34,74.4c0,0,0,0.1,0,0.1s0,0,0.1,0h6c0.1,0,0.1,0,0.2,0.1s0.1,0.1,0.1,0.2v2.4c0,0.1,0,0.1-0.1,0.2
				c0,0.1-0.1,0.1-0.2,0.1h-9.5C30.5,77.3,30.4,77.3,30.4,77.3z"/>
			<path class="st9" d="M44.3,76.9c-0.8-0.4-1.5-1-1.9-1.8s-0.7-1.7-0.7-2.7v-4c0-1,0.2-1.9,0.7-2.7s1.1-1.4,1.9-1.8
				s1.8-0.7,2.8-0.7c1.1,0,2,0.2,2.9,0.7s1.5,1,1.9,1.8c0.5,0.8,0.7,1.7,0.7,2.7v4c0,1-0.2,1.9-0.7,2.7s-1.1,1.4-1.9,1.8
				c-0.8,0.4-1.8,0.7-2.9,0.7C46,77.6,45.1,77.3,44.3,76.9z M48.7,74.1c0.4-0.4,0.6-1,0.6-1.7v-4.1c0-0.7-0.2-1.2-0.6-1.7
				S47.8,66,47.1,66c-0.6,0-1.1,0.2-1.5,0.6s-0.6,1-0.6,1.7v4.1c0,0.7,0.2,1.2,0.6,1.7s0.9,0.6,1.5,0.6
				C47.8,74.7,48.3,74.5,48.7,74.1z"/>
			<path class="st9" d="M56.7,76.9c-0.8-0.4-1.5-1-1.9-1.8s-0.7-1.7-0.7-2.7v-4c0-1,0.2-1.9,0.7-2.7s1.1-1.4,1.9-1.8
				s1.8-0.7,2.8-0.7c1.1,0,2,0.2,2.9,0.7s1.5,1,1.9,1.8c0.4,0.8,0.7,1.7,0.7,2.7v4c0,1-0.2,1.9-0.7,2.7c-0.5,0.8-1.1,1.4-1.9,1.8
				c-0.8,0.4-1.8,0.7-2.9,0.7C58.5,77.6,57.5,77.3,56.7,76.9z M61.1,74.1c0.4-0.4,0.6-1,0.6-1.7v-4.1c0-0.7-0.2-1.2-0.6-1.7
				S60.2,66,59.5,66c-0.6,0-1.1,0.2-1.5,0.6s-0.6,1-0.6,1.7v4.1c0,0.7,0.2,1.2,0.6,1.7s0.9,0.6,1.5,0.6
				C60.2,74.7,60.7,74.5,61.1,74.1z"/>
			<path class="st9" d="M76,63.3h2.8c0.1,0,0.1,0,0.2,0.1c0.1,0,0.1,0.1,0.1,0.2v13.5c0,0.1,0,0.1-0.1,0.2c-0.1,0.1-0.1,0.1-0.2,0.1
				H76c-0.1,0-0.1,0-0.2-0.1s-0.1-0.1-0.1-0.2v-8c0-0.1,0-0.1,0-0.1s-0.1,0-0.1,0.1l-1.7,2.8c-0.1,0.1-0.2,0.2-0.3,0.2h-1.4
				c-0.1,0-0.2-0.1-0.3-0.2L70.2,69c0,0-0.1-0.1-0.1-0.1s0,0,0,0.1v8.1c0,0.1,0,0.1-0.1,0.2c-0.1,0.1-0.1,0.1-0.2,0.1H67
				c-0.1,0-0.1,0-0.2-0.1s-0.1-0.1-0.1-0.2V63.6c0-0.1,0-0.1,0.1-0.2s0.1-0.1,0.2-0.1h2.8c0.1,0,0.2,0,0.3,0.2l2.8,4.4
				c0,0.1,0.1,0.1,0.1,0l2.7-4.4C75.8,63.4,75.9,63.3,76,63.3z"/>
		</g>
	</g>
</g>
</svg>
